<svg id="Layer_32" data-name="Layer 32" xmlns="http://www.w3.org/2000/svg" viewBox="0 0 386.79 307.8"><defs><style>.cls-1{fill:#b01d22;fill-rule:evenodd;}</style></defs><g id="mail"><path id="Path_5300" data-name="Path 5300" class="cls-1" d="M17.62,31.39A21.5,21.5,0,0,1,39.11,9.9h343.6a21.49,21.49,0,0,1,21.48,21.49h0V274.73a43,43,0,0,1-43,43H60.38a43,43,0,0,1-43-43V38.36a20.12,20.12,0,0,1,.21-3ZM60.38,79.18V274.73H361.22V79.18L256.39,184a64.47,64.47,0,0,1-91.16,0L60.38,79.14Zm33.78-27H327.44L226,153.62a21.48,21.48,0,0,1-30.39,0l0,0L94.18,52.19Z" transform="translate(-17.41 -9.9)"/></g></svg>