<svg id="Layer_35" data-name="Layer 35" xmlns="http://www.w3.org/2000/svg" viewBox="0 0 308.49 307.8"><defs><style>.cls-1{fill:#b01d22;}</style></defs><path id="call" class="cls-1" d="M161.88,93.68l-26.51,26.2q5.41,19.59,28.62,48.35a343.44,343.44,0,0,0,51.95,52q28.76,23.19,48.64,28.62l26.21-26.21q4.51-4.53,16-3.77a133.91,133.91,0,0,1,23,3.61,99,99,0,0,1,19.12,6.49q16.88,8.13,24.7,20t.9,18.52L342.3,299.7q-13,13.24-35.24,14.91t-48.2-6.93Q233,299.1,204,280.42a335.56,335.56,0,0,1-55.12-44.87,337.46,337.46,0,0,1-45-55.27q-18.81-29.07-27.42-55t-6.93-48q1.68-22.14,14.91-35.1L116.69,9.94Q123,3.61,133.25,11.3t22,24.25q5.72,8.13,9,29.22t-2.41,28.92Z" transform="translate(-69.28 -7.08)"/></svg>