<svg xmlns="http://www.w3.org/2000/svg" viewBox="0 0 2490.01 1531.14"><defs><style>.cls-1{isolation:isolate;}.cls-2{fill:#cafbff;}.cls-3{fill:#258d8c;}.cls-4{fill:#ed2b47;}.cls-5{fill:#fec786;}.cls-6{fill:#f7597f;}.cls-7{opacity:0.5;}.cls-11,.cls-7{mix-blend-mode:multiply;}.cls-8{fill:#223749;}.cls-9{fill:#4cb7d8;}.cls-10{fill:#3aa1c9;}.cls-12{fill:#3f9896;}.cls-13{fill:#a5dbc1;}.cls-14{fill:#7fc6a6;}.cls-15,.cls-18{opacity:0.3;}.cls-16{opacity:0.2;}.cls-17{fill:#fcaf5b;}.cls-18,.cls-29{fill:#fff;}.cls-19{fill:#33192c;}.cls-20{fill:#fe9f73;}.cls-21{fill:#f07162;}.cls-22{fill:#49263e;}.cls-23{fill:#ea5942;}.cls-24{fill:#fbfdfc;}.cls-25{fill:#21111d;}.cls-26{fill:#d61339;}.cls-27{fill:#febac7;}.cls-28{fill:#ff424d;}.cls-30{fill:#b3edff;}.cls-31{fill:#fdeacf;}.cls-32{fill:#f9956e;}.cls-33{fill:#4c222e;}.cls-34{fill:#d6e8f4;}.cls-35{fill:#f99247;}.cls-36{fill:#dcf4ff;}</style></defs><g class="cls-1"><g id="Layer_45" data-name="Layer 45"><path class="cls-2" d="M905.35,1020.17h74.47C1125.48,892.93,1136,453.09,1056.33,327.4,921.5,114.8,849.65,155.64,731.62,30.69c-91.26-96.61,23.46-368.66-251.83-497s-691,68.41-841.69,142.81-221.35,26-308.77-3.72-367.16-51.85-525.26,297.08c-112.85,249.05-24,462.84-130.87,637.92-144.28,236.29,28.79,403.39,28.79,403.39l2147.77,2.2Z" transform="translate(1384.23 508.75)"/><path class="cls-3" d="M-744.21,1022.32c-11-11-96.41-164.33-155.57-85.45,0,0-96.68-222.4-219.11-178.85,0,0-78.06,45.19-21.37,157.76,0,0-189-12-186.52,106.54Z" transform="translate(1384.23 508.75)"/><path d="M-1027,800a1.28,1.28,0,0,0,1-.49,1.28,1.28,0,0,0-.22-1.79c-1.26-1-31.27-24.39-58.7-27.68a1.26,1.26,0,0,0-1.41,1.11,1.26,1.26,0,0,0,1.11,1.41c26.71,3.21,57.13,26.92,57.43,27.16A1.23,1.23,0,0,0-1027,800Z" transform="translate(1384.23 508.75)"/><path d="M-1027,814.77a1.27,1.27,0,0,0,1-.47,1.28,1.28,0,0,0-.19-1.79c-.21-.16-20.77-16.68-47-24.33a1.28,1.28,0,0,0-1.58.86,1.29,1.29,0,0,0,.87,1.58c25.73,7.5,45.92,23.71,46.12,23.87A1.26,1.26,0,0,0-1027,814.77Z" transform="translate(1384.23 508.75)"/><ellipse class="cls-3" cx="-1239.14" cy="748.93" rx="33.18" ry="61.93" transform="translate(621.16 -109.7) rotate(-39.65)"/><ellipse class="cls-3" cx="-1262.02" cy="843.91" rx="19.64" ry="36.66" transform="translate(555.28 -102.44) rotate(-39.66)"/><path class="cls-4" d="M453.7-162.14c-10.06,0-17.51-2.9-22.52-8.81-12-14.15-3.18-39,6.33-57.41,10.42-20.16,20.81-36.14,30.88-47.49,20.71-23.35,37-22.62,47.06-17.91h0c31.73,14.9,47.12,33.36,45.76,54.87-2,32.08-42.69,59.52-79.61,71.44C470.71-163.93,461.43-162.16,453.7-162.14Zm50-117c-12.85,0-31.8,21.64-51,58.7-10.73,20.76-12,34.25-8.47,38.4,1.34,1.58,7.62,6.13,32-1.75,32.2-10.39,66.34-34.25,67.73-56.17,1.09-17.14-18.92-30.25-35.9-38.22A10.22,10.22,0,0,0,503.73-279.16Z" transform="translate(1384.23 508.75)"/><path class="cls-4" d="M409.08-162.28c-7.73,0-17-1.7-27.94-5.15-37-11.71-77.79-38.91-80-71-1.49-21.51,13.8-40.06,45.43-55.14h0c10-4.77,26.33-5.59,47.17,17.64,10.13,11.29,20.62,27.21,31.16,47.31,9.61,18.33,18.56,43.15,6.65,57.37C426.57-165.29,419.14-162.31,409.08-162.28ZM354-278C337-270,317.09-256.74,318.28-239.6c1.51,21.91,35.79,45.57,68.05,55.78,24.46,7.74,30.7,3.15,32,1.56,3.49-4.17,2.15-17.65-8.7-38.35C387.93-262,366.59-284,354-278Z" transform="translate(1384.23 508.75)"/><rect class="cls-5" x="253.01" y="-170.82" width="362.9" height="322.57" transform="translate(1384.26 510.01) rotate(-0.17)"/><rect class="cls-6" x="241.86" y="-170.82" width="384.54" height="96.14" transform="matrix(1, 0, 0, 1, 1384.58, 510.01)"/><path d="M239.78-71.89l-.29-98.37a2.23,2.23,0,0,1,2.23-2.24h0a2.23,2.23,0,0,1,2.23,2.23l.27,93.9,382.31-1.11h0a2.23,2.23,0,0,1,2.24,2.23A2.24,2.24,0,0,1,626.55-73Z" transform="translate(1384.23 508.75)"/><path d="M253.48,154.51a2.23,2.23,0,0,1-2.23-2.23l-.66-226.43a2.25,2.25,0,0,1,2.23-2.25h0a2.23,2.23,0,0,1,2.23,2.23l.66,226.44a2.24,2.24,0,0,1-2.23,2.24Z" transform="translate(1384.23 508.75)"/><path d="M616.18,85.52A2.23,2.23,0,0,1,614,83.29L613.49-75.2a2.23,2.23,0,0,1,2.22-2.25h0A2.25,2.25,0,0,1,618-75.22l.45,158.49a2.23,2.23,0,0,1-2.22,2.25Z" transform="translate(1384.23 508.75)"/><path d="M596-127a2.26,2.26,0,0,1-1.58-.65L571.2-150.78a2.23,2.23,0,0,1,0-3.16,2.23,2.23,0,0,1,3.16,0l23.18,23.12a2.24,2.24,0,0,1,0,3.16A2.21,2.21,0,0,1,596-127Z" transform="translate(1384.23 508.75)"/><path d="M589.43-106.28a2.23,2.23,0,0,1-1.58-.66L564.68-130a2.23,2.23,0,0,1,0-3.16,2.23,2.23,0,0,1,3.16,0L591-110.1a2.23,2.23,0,0,1,0,3.16A2.21,2.21,0,0,1,589.43-106.28Z" transform="translate(1384.23 508.75)"/><rect class="cls-4" x="424.28" y="-201.18" width="16.55" height="383.29" transform="translate(1806 66.7) rotate(89.83)"/><rect class="cls-4" x="424.28" y="-170.82" width="16.55" height="322.57" transform="translate(1384.26 510) rotate(-0.17)"/><g class="cls-7"><rect class="cls-6" x="497.21" y="-76.33" width="118.74" height="227.74" transform="translate(1384.12 510.36) rotate(-0.17)"/></g><g class="cls-7"><rect class="cls-6" x="492.98" y="-171.18" width="133.43" height="96.14" transform="translate(1384.59 510.37) rotate(-0.17)"/></g><path class="cls-8" d="M105.48-105.28c-8,0-13.84-2.3-17.8-7-9.48-11.19-2.52-30.85,5-45.38,8.24-16,16.45-28.58,24.41-37.55,16.37-18.46,29.27-17.88,37.21-14.16h0C179.38-197.56,191.55-183,190.47-166c-1.61,25.36-33.75,47.06-62.93,56.48C118.92-106.7,111.59-105.3,105.48-105.28ZM145-197.79c-10.16,0-25.14,17.1-40.28,46.4C96.26-135,95.27-124.32,98.05-121c1.06,1.25,6,4.85,25.31-1.38,25.46-8.22,52.45-27.08,53.55-44.41.86-13.55-15-23.91-28.39-30.22A7.94,7.94,0,0,0,145-197.79Z" transform="translate(1384.23 508.75)"/><path class="cls-8" d="M70.21-99.43c-6.12,0-13.46-1.35-22.09-4.08-29.24-9.25-61.5-30.76-63.26-56.11-1.18-17,10.91-31.67,35.92-43.59h0c7.92-3.77,20.81-4.42,37.29,14,8,8.92,16.3,21.5,24.63,37.4,7.6,14.49,14.68,34.11,5.26,45.36C84-101.81,78.16-99.46,70.21-99.43ZM26.63-190.94c-13.39,6.38-29.15,16.83-28.21,30.38,1.2,17.32,28.3,36,53.8,44.1,19.33,6.11,24.27,2.49,25.32,1.23,2.77-3.3,1.71-14-6.87-30.32-17.18-32.76-34.06-50.15-44-45.39Z" transform="translate(1384.23 508.75)"/><rect class="cls-9" x="-101.32" y="-109.11" width="383.17" height="255.02" transform="translate(1384.17 509.01) rotate(-0.17)"/><rect class="cls-10" x="-113.04" y="-109.11" width="406.03" height="48.29" transform="translate(1384.47 509.01) rotate(-0.17)"/><path d="M-101,141.37a2.23,2.23,0,0,1-2.23-2.23l-.58-199.39a2.23,2.23,0,0,1,2.23-2.24h0a2.22,2.22,0,0,1,2.23,2.22l.58,199.4a2.25,2.25,0,0,1-2.23,2.24Z" transform="translate(1384.23 508.75)"/><path d="M-115.2-58l-.14-50.52a2.22,2.22,0,0,1,2.22-2.24h0a2.22,2.22,0,0,1,2.23,2.22l.14,46.06,403.79-1.17h0a2.23,2.23,0,0,1,2.23,2.23,2.23,2.23,0,0,1-2.22,2.24Z" transform="translate(1384.23 508.75)"/><path d="M282.09,99.43a2.25,2.25,0,0,1-2.24-2.23l-.46-158.56a2.23,2.23,0,0,1,2.23-2.24h0a2.22,2.22,0,0,1,2.23,2.22l.46,158.57a2.23,2.23,0,0,1-2.23,2.24Z" transform="translate(1384.23 508.75)"/><path d="M222.51,91.49a2.24,2.24,0,0,1-1.23-.37l-32-21.19a2.24,2.24,0,0,1,2.47-3.73l32,21.19a2.24,2.24,0,0,1-1.24,4.1Z" transform="translate(1384.23 508.75)"/><path d="M218.69,106.7a2.24,2.24,0,0,1-1.23-.37l-32-21.19A2.23,2.23,0,0,1,188,81.42l32,21.19a2.23,2.23,0,0,1-1.24,4.09Z" transform="translate(1384.23 508.75)"/><rect class="cls-8" x="82.22" y="-178.82" width="13.09" height="394.44" transform="translate(1491.13 438.34) rotate(89.83)"/><rect class="cls-8" x="82.22" y="-109.1" width="13.09" height="255.01" transform="translate(1384.17 509.01) rotate(-0.17)"/><g class="cls-11"><rect class="cls-9" x="158.49" y="-61.19" width="123.44" height="206.72" transform="translate(1384.11 509.39) rotate(-0.17)"/></g><g class="cls-11"><rect class="cls-10" x="154.21" y="-109.49" width="138.78" height="48.29" transform="translate(1384.48 509.4) rotate(-0.17)"/></g><path class="cls-12" d="M366.4,1021.25c6.15-4.92,106.4-198.21,172.77-106,0,0,99.56-338,236-322s20.89,266.72,20.89,266.72S912.83,812,885.79,938.58c0,0,148.72-27,137.66,79.89Z" transform="translate(1384.23 508.75)"/><ellipse class="cls-12" cx="945.87" cy="717.91" rx="51.62" ry="27.66" transform="translate(1173.76 1496.74) rotate(-50.34)"/><path class="cls-12" d="M952.34,786.64c-10.77,13-13.86,28.21-6.9,34s21.34-.09,32.11-13.08,13.86-28.21,6.9-34S963.11,773.65,952.34,786.64Z" transform="translate(1384.23 508.75)"/><path d="M790.66,884.63a1.42,1.42,0,0,1-.49-2.58c1.19-.8,29.49-19.46,54.33-14.07h0a1.43,1.43,0,1,1-.6,2.79h0c-23.65-5.13-51.86,13.47-52.15,13.65A1.38,1.38,0,0,1,790.66,884.63Z" transform="translate(1384.23 508.75)"/><path d="M809.68,886.77a1.43,1.43,0,0,1-.49-2.59c.55-.36,13.62-8.82,36.83-7.38a1.43,1.43,0,1,1-.18,2.85c-22.26-1.38-35,6.83-35.07,6.91A1.48,1.48,0,0,1,809.68,886.77Z" transform="translate(1384.23 508.75)"/><path d="M455.24,942a1.42,1.42,0,0,1-1-2.42c1-1,24.7-25.27,50.11-25.27a1.43,1.43,0,1,1,0,2.86h0c-24.22,0-47.82,24.15-48.06,24.4A1.41,1.41,0,0,1,455.24,942Z" transform="translate(1384.23 508.75)"/><path d="M474.28,940a1.42,1.42,0,0,1-1-2.42c.46-.47,11.44-11.51,34.43-15a1.43,1.43,0,0,1,.43,2.82c-22,3.36-32.71,14.09-32.81,14.19A1.41,1.41,0,0,1,474.28,940Z" transform="translate(1384.23 508.75)"/><path class="cls-12" d="M-627,222.7s-67.14-111-228.21-82.21C-855.21,140.49-746.78,301.29-627,222.7Z" transform="translate(1384.23 508.75)"/><path class="cls-13" d="M-522.16,252s-20-222.5-291-299.68C-813.15-47.68-766.89,283.09-522.16,252Z" transform="translate(1384.23 508.75)"/><path d="M744.32,577.74c-1.53,0-1.94-1.14-2.06-2.12h0c0-.31,0-.62-.06-.85l-2.38-82.11,4.2-.12c.81,28.2,2.36,81.83,2.41,83l-2.1.1h2.11l-2.08,2.12Z" transform="translate(1384.23 508.75)"/><path class="cls-14" d="M712.84,641.49H2027.68a43,43,0,0,1,43,43v814.06a28.73,28.73,0,0,1-28.73,28.73H712.84a28.73,28.73,0,0,1-28.73-28.73V670.21A28.73,28.73,0,0,1,712.84,641.49Z"/><g class="cls-15"><g class="cls-16"><path class="cls-17" d="M686.44,914.24V172.07a39.33,39.33,0,0,0-39.34-39.33H-439.57c.13,9.92,0,19.63,1.32,27,9.23,50.67,33.58,98.33,67.23,137.13,48.82,56.3,115.84,94.73,186.52,118.33C-147.91,427.42-109.9,436-75.27,453S-8.75,497.16,3,533.9c10.32,32.28,4,67.76,12,100.68,11.7,47.91,53.11,84.3,99.14,102s96.49,19.47,145.8,18.88c45.36-.53,92.7-2.49,133.81,16.68,50.53,23.55,82.7,74.89,130.5,103.57,41.54,24.93,91.39,30.8,139.55,36.12C671.34,912.66,678.88,913.49,686.44,914.24Z" transform="translate(1384.23 508.75)"/></g></g><path class="cls-18" d="M-700.11,823.25V989.79a28.72,28.72,0,0,0,28.72,28.72H657.71a28.72,28.72,0,0,0,28.73-28.72V823.25Z" transform="translate(1384.23 508.75)"/><rect class="cls-6" x="1729.09" y="623.55" width="156.31" height="903.71"/><rect class="cls-6" x="-82.63" y="-137.43" width="150.61" height="1426.11" transform="translate(1952.53 1091.69) rotate(90)"/><path class="cls-6" d="M378.1,585S550,704.72,668,727.5c47.52,9.18,91.32-28.42,91.32-76.83V444c0-57.77-60.81-96-112.42-70C530.6,432.48,378.1,585,378.1,585Z" transform="translate(1384.23 508.75)"/><path class="cls-6" d="M468,585S296,704.72,178.08,727.5c-47.53,9.18-91.32-28.42-91.32-76.83V444c0-57.77,60.81-96,112.41-70C315.45,432.48,468,585,468,585Z" transform="translate(1384.23 508.75)"/><path class="cls-4" d="M519.62,485s148-140.75,194.64-93.32S519.62,485,519.62,485Z" transform="translate(1384.23 508.75)"/><path class="cls-4" d="M330.65,485S182.63,344.28,136,391.71,330.65,485,330.65,485Z" transform="translate(1384.23 508.75)"/><path d="M163.8,731a78.13,78.13,0,0,1-49.78-18,80.49,80.49,0,0,1-29.37-62.26V444a79.89,79.89,0,0,1,38.27-68.44,78.74,78.74,0,0,1,77.2-3.44c34.43,17.32,75.39,44.57,121.77,81l50.35,40.46-2.64,3.28-50.33-40.44c-46.13-36.22-86.86-63.32-121-80.51a74.57,74.57,0,0,0-73.11,3.26A75.72,75.72,0,0,0,88.86,444v206.7a76.32,76.32,0,0,0,27.84,59,73.62,73.62,0,0,0,61,15.73c91.93-17.75,217.28-95,266.91-127.35l2.3,3.52c-49.84,32.51-175.75,110.07-268.41,128A76.92,76.92,0,0,1,163.8,731Z" transform="translate(1384.23 508.75)"/><path d="M682.25,731a76.84,76.84,0,0,1-14.68-1.41c-92.66-17.89-218.58-95.45-268.41-128l2.3-3.52c49.62,32.37,175,109.6,266.91,127.35a73.63,73.63,0,0,0,61-15.73,76.32,76.32,0,0,0,27.84-59V444a75.71,75.71,0,0,0-36.27-64.86,74.57,74.57,0,0,0-73.1-3.26c-34.18,17.2-74.91,44.29-121.06,80.52l-50.31,40.43-2.64-3.28,50.33-40.44c46.39-36.42,87.36-63.67,121.79-81a78.76,78.76,0,0,1,77.2,3.44A79.88,79.88,0,0,1,761.39,444v206.7A80.5,80.5,0,0,1,732,712.94,78.13,78.13,0,0,1,682.25,731Z" transform="translate(1384.23 508.75)"/><rect class="cls-4" x="1747.98" y="993.78" width="126.36" height="185.95" rx="12.89"/><rect x="993.84" y="1006.96" width="477.14" height="4.21"/><rect x="663.85" y="1157.45" width="807.13" height="4.21"/><rect x="-461.33" y="539.56" width="49.51" height="4.21" transform="translate(1070.26 365.6) rotate(-28.72)"/><rect x="-464.32" y="561.62" width="49.51" height="4.21" transform="translate(1059.31 366.88) rotate(-28.72)"/><path d="M476.13,673.08H377.75A16.11,16.11,0,0,1,361.65,657V499a16.12,16.12,0,0,1,16.1-16.1h98.38A16.11,16.11,0,0,1,492.22,499V657A16.11,16.11,0,0,1,476.13,673.08ZM377.75,487.14A11.9,11.9,0,0,0,365.86,499V657a11.9,11.9,0,0,0,11.89,11.89h98.38A11.91,11.91,0,0,0,488,657V499a11.9,11.9,0,0,0-11.89-11.89Z" transform="translate(1384.23 508.75)"/><path d="M330.25,487.1c-147.66-28.57-186.13-59.9-187.7-61.22l2.71-3.22c.38.32,39.58,32,185.79,60.31Z" transform="translate(1384.23 508.75)"/><path d="M600.56,422.37,598,419c2.58-2,63.7-48.29,102.2-37.74l-1.11,4C662.6,375.36,601.18,421.9,600.56,422.37Z" transform="translate(1384.23 508.75)"/><rect x="732.82" y="556.25" width="4.21" height="46.86" transform="translate(1355.36 547.35) rotate(-2.95)"/><rect x="1482.87" y="1111.83" width="4.21" height="54.52"/><rect x="1493.49" y="1088.43" width="4.21" height="42.21"/><rect x="393.42" y="516.3" width="4.21" height="34.29" transform="translate(1145.47 845.5) rotate(-36.22)"/><rect x="392.2" y="545.3" width="4.21" height="20.18" transform="translate(1130.93 853.07) rotate(-36.57)"/><polygon points="1887.51 982.99 1883.3 982.99 1883.3 625.65 1825.58 625.65 1825.58 621.44 1887.51 621.44 1887.51 982.99"/><rect x="1726.99" y="775.56" width="4.21" height="207.42"/><rect x="1727.44" y="1168.63" width="4.21" height="302.63"/><polygon points="1887.98 1527.26 1837.63 1527.26 1837.63 1523.1 1883.78 1523.1 1884.24 1169.37 1888.44 1169.38 1887.98 1527.26"/><rect x="405.26" y="717.57" width="25.93" height="4.21" transform="translate(997.84 1015.27) rotate(-45)"/><rect x="405.23" y="735.95" width="25.99" height="4.21" transform="translate(984.22 1022.91) rotate(-45.16)"/><path d="M688.54,365.68h-4.2V170.83a36,36,0,0,0-36-36H568.69v-4.2h79.66a40.24,40.24,0,0,1,40.19,40.19Z" transform="translate(1384.23 508.75)"/><path d="M-533.16,1018.51l-127.37,2.1a41.73,41.73,0,0,1-41.69-41.68V714.52H-698V978.93a37.52,37.52,0,0,0,37.48,37.48l127.37-2.1Z" transform="translate(1384.23 508.75)"/><rect x="1451.2" y="676.97" width="119.65" height="4.21"/><rect x="1528.13" y="707.85" width="93.37" height="4.21"/><path class="cls-19" d="M-368.64-148.92s6.46-11.66-6.49-23.08-16.78,5.65-22.3,6.77-15.07-1.68-19.56,8-3.11,17.29-8.91,18.36S-451.54-125-448.35-105.7s21.63,19.82,21.63,19.82,71.84,9.19,78.31-9.15.18-27-8.43-34.15C-362.14-133.55-373.16-137.74-368.64-148.92Z" transform="translate(1384.23 508.75)"/><path class="cls-20" d="M-376.61-143.69s3.9,26.17-.49,32c0,0-2.16,3.09-7.3,3.18v16.38h-23.11v-53.72Z" transform="translate(1384.23 508.75)"/><path class="cls-21" d="M-384.15-123.14a.21.21,0,0,1-.21-.17.22.22,0,0,1,.16-.25c1.36-.29,2.21-2,2.46-2.5a6.32,6.32,0,0,1-3.49-4,6.89,6.89,0,0,1,1.09-5.1.23.23,0,0,1,.3-.05.22.22,0,0,1,0,.3,6.57,6.57,0,0,0-1,4.76,6,6,0,0,0,3.44,3.78l.17.09-.06.18c0,.1-1,2.54-2.84,2.94Z" transform="translate(1384.23 508.75)"/><path class="cls-21" d="M-384.4-101.95v-6.59s-11.14-.65-18-4.95C-402.37-113.49-393.1-104.58-384.4-101.95Z" transform="translate(1384.23 508.75)"/><path class="cls-19" d="M-397-134.24a.44.44,0,0,1-.3-.12.42.42,0,0,1,0-.59c.06-.06,5.45-5.58,10.39-1.6a.42.42,0,0,1,.06.59.42.42,0,0,1-.59.06c-4.33-3.48-9.05,1.32-9.25,1.53A.39.39,0,0,1-397-134.24Z" transform="translate(1384.23 508.75)"/><path class="cls-19" d="M-382.42-135.16a.43.43,0,0,1-.32-.14.44.44,0,0,1,0-.6c.16-.13,3.91-3.34,6.29-1.3a.42.42,0,0,1,0,.59.41.41,0,0,1-.59.05c-1.83-1.57-5.15,1.27-5.19,1.3A.38.38,0,0,1-382.42-135.16Z" transform="translate(1384.23 508.75)"/><path class="cls-22" d="M-377.6-131.89a1.18,1.18,0,0,1-1.18,1.17,1.18,1.18,0,0,1-1.17-1.17,1.18,1.18,0,0,1,1.17-1.18A1.18,1.18,0,0,1-377.6-131.89Z" transform="translate(1384.23 508.75)"/><path class="cls-22" d="M-388-131.89a1.17,1.17,0,0,1-1.17,1.17,1.17,1.17,0,0,1-1.17-1.17,1.17,1.17,0,0,1,1.17-1.18A1.17,1.17,0,0,1-388-131.89Z" transform="translate(1384.23 508.75)"/><path class="cls-20" d="M-402.91-126.88a6.57,6.57,0,0,1-6.57,6.58,6.58,6.58,0,0,1-6.58-6.58,6.58,6.58,0,0,1,6.58-6.57A6.57,6.57,0,0,1-402.91-126.88Z" transform="translate(1384.23 508.75)"/><path class="cls-21" d="M-410-122.82a2.75,2.75,0,0,1-2.6-2.07,2.6,2.6,0,0,1,1.05-3,3.1,3.1,0,0,1,3.41.08,3,3,0,0,0-1.29-1.53,4.07,4.07,0,0,0-2.89-.18.23.23,0,0,1-.27-.14.2.2,0,0,1,.13-.26,4.44,4.44,0,0,1,3.23.21,3.59,3.59,0,0,1,1.7,2.42l.18.73-.54-.53a2.82,2.82,0,0,0-3.44-.44,2.21,2.21,0,0,0-.87,2.56,2.32,2.32,0,0,0,2.24,1.77.21.21,0,0,1,.21.21.21.21,0,0,1-.21.21Z" transform="translate(1384.23 508.75)"/><path class="cls-20" d="M-376.61-143.69s-2-10.12-15.54-11.23-15.36,9-15.36,9l15.45,3.13,14.46-1Z" transform="translate(1384.23 508.75)"/><path class="cls-19" d="M-376.61-152.26S-385-144-396-145.88c0,0-3.64,13.35-11.55,12.73s-3.6-19.11-3.6-19.11,14.78-6,15.72-6,16.61-.94,16.61-.94Z" transform="translate(1384.23 508.75)"/><path class="cls-23" d="M-387.58-128.15a.27.27,0,0,1,0-.53.27.27,0,0,1,0,.53Z" transform="translate(1384.23 508.75)"/><path class="cls-23" d="M-389.16-127.21a.27.27,0,0,1,0-.53.27.27,0,0,1,0,.53Z" transform="translate(1384.23 508.75)"/><path class="cls-23" d="M-392-129.09a.26.26,0,0,1,0-.52.26.26,0,0,1,0,.52Z" transform="translate(1384.23 508.75)"/><path class="cls-23" d="M-394.5-127.21a.27.27,0,0,1,0-.53.27.27,0,0,1,0,.53Z" transform="translate(1384.23 508.75)"/><path class="cls-23" d="M-397.08-129.74a.26.26,0,0,1,0-.52.26.26,0,0,1,0,.52Z" transform="translate(1384.23 508.75)"/><path class="cls-23" d="M-398-126a.26.26,0,0,1,0-.52.26.26,0,0,1,0,.52Z" transform="translate(1384.23 508.75)"/><path class="cls-23" d="M-382.35-129.68a.26.26,0,0,1,0-.52.26.26,0,0,1,0,.52Z" transform="translate(1384.23 508.75)"/><path class="cls-23" d="M-380.41-127.57a.26.26,0,0,1,0-.52.26.26,0,0,1,0,.52Z" transform="translate(1384.23 508.75)"/><path class="cls-23" d="M-378.07-128.51a.26.26,0,0,1,0-.52.26.26,0,0,1,0,.52Z" transform="translate(1384.23 508.75)"/><path class="cls-23" d="M-377.89-124.81a.26.26,0,0,1,0-.52.26.26,0,0,1,0,.52Z" transform="translate(1384.23 508.75)"/><path class="cls-23" d="M-376.13-127a.26.26,0,0,1,0-.52.26.26,0,0,1,0,.52Z" transform="translate(1384.23 508.75)"/><path class="cls-23" d="M-376.54-130.21a.26.26,0,0,1,0-.52.26.26,0,0,1,0,.52Z" transform="translate(1384.23 508.75)"/><path class="cls-23" d="M-391-125.57a.26.26,0,0,1,0-.52.26.26,0,0,1,0,.52Z" transform="translate(1384.23 508.75)"/><path class="cls-24" d="M-382.08-120.23c-.11,0-7.86-1.6-7.86-1.6s.4,3.39,3.28,4S-382.08-120.23-382.08-120.23Z" transform="translate(1384.23 508.75)"/><polygon class="cls-20" points="1226.19 816.27 1175.61 816.96 1174.88 769.67 1225.27 763.43 1226.19 816.27"/><path class="cls-10" d="M-268,40.41S-161.5,57-158.41,69.34-146.47,213-153.09,269c0,0-40.58,2.79-60-1.92l-4.73-136.6-32-3.68-73.39-88.23Z" transform="translate(1384.23 508.75)"/><path class="cls-25" d="M-284,242.9c-2.06-7.94-2.65-85.37-2.67-88.66h1.49c0,.8.61,80.54,2.62,88.3Z" transform="translate(1384.23 508.75)"/><path class="cls-25" d="M-207.3,133.43c-9.78-3.16-23.25-3.64-23.38-3.64l.05-1.49c.13,0,13.8.48,23.79,3.71Z" transform="translate(1384.23 508.75)"/><path class="cls-25" d="M-185.29,270.58a132.35,132.35,0,0,1-28-2.73l-.55-.14-4.78-138.12,6.1,4.91-.93,1.16-3.57-2.87,4.63,133.73a134.58,134.58,0,0,0,28.51,2.56l0,1.49Z" transform="translate(1384.23 508.75)"/><path class="cls-4" d="M-322,6.53c1.47,0,60.73,25.46,60.73,25.46l-11.94,22.85-33.26-7.3Z" transform="translate(1384.23 508.75)"/><path class="cls-4" d="M-395.43-97.81s-37.62-2.74-49.65,4.08C-463-83.56-456.64-25.32-456.64-25.32s15.26-8.32,16.18-11.1S-395.43-97.81-395.43-97.81Z" transform="translate(1384.23 508.75)"/><g class="cls-7"><rect class="cls-10" x="-250.73" y="177.91" width="8.61" height="48.98" transform="matrix(-0.98, -0.2, 0.2, -0.98, 855.61, 859.65)"/></g><g class="cls-7"><rect class="cls-10" x="-270.76" y="173.78" width="8.61" height="48.98" transform="translate(816.78 847.44) rotate(-168.36)"/></g><g class="cls-7"><rect class="cls-10" x="-290.8" y="169.65" width="8.61" height="48.98" transform="translate(777.96 835.22) rotate(-168.36)"/></g><path class="cls-4" d="M-432.25-95.12c14.32-2,52.11-3.35,52.11-3.35s5,1.31,3.41.57c41.73,7.37,46.34,38.32,46.34,38.32L-310,29.83l22.67,1.22c7.34,13.9,2,51.39,2,51.39L-395.19,94.82S-418.92,98.73-439,73c-13.28-17-17.8-69.31-17.79-107.51C-456.78-34.52-454.5-92-432.25-95.12Z" transform="translate(1384.23 508.75)"/><path class="cls-25" d="M-395.34,31.38a.77.77,0,0,0,.4,0,.69.69,0,0,0,.52-.83c-.12-.49-11.59-49.27-16.47-80a.7.7,0,0,0-.8-.58.7.7,0,0,0-.57.8c4.89,30.74,16.37,79.57,16.49,80.06A.69.69,0,0,0-395.34,31.38Z" transform="translate(1384.23 508.75)"/><path class="cls-25" d="M-324.33,30.57a.72.72,0,0,0,.46,0,.7.7,0,0,0,.45-.87c-.17-.55-17.2-54.56-20.75-73.23a.7.7,0,0,0-.81-.56.7.7,0,0,0-.56.81c3.58,18.76,20.62,72.85,20.8,73.39A.67.67,0,0,0-324.33,30.57Z" transform="translate(1384.23 508.75)"/><path class="cls-25" d="M-414,26.75l.09,0L-395.34,31a.68.68,0,0,0,.83-.52.69.69,0,0,0-.52-.83l-18.54-4.24a.7.7,0,0,0-.83.52A.69.69,0,0,0-414,26.75Z" transform="translate(1384.23 508.75)"/><path class="cls-25" d="M-294.91,17.94a.69.69,0,0,0,.89-.4.69.69,0,0,0-.39-.9l-20-8a.69.69,0,0,0-.9.39.69.69,0,0,0,.39.9l20,8Z" transform="translate(1384.23 508.75)"/><polygon class="cls-20" points="1147.68 816.27 1097.09 816.96 1096.37 769.67 1146.75 763.43 1147.68 816.27"/><path class="cls-9" d="M-395.19,94.82l71.23-8c10.25,13.42,17,23.43,17,23.43l-8.41,28.67s-43.55.72-74.07-.33c-9.8-.33-18.52.36-23.68-.79-12.76-2.84-19.74-27.91-18-56.28C-413.23,97.78-395.19,94.82-395.19,94.82Z" transform="translate(1384.23 508.75)"/><path class="cls-9" d="M-285.4,82.44a220.41,220.41,0,0,0,1.85-23c22.57,7.67,47.6,17.59,49.27,24.29,3.09,12.35,11.88,129.54,5.27,185.57,0,0-43.65,2.5-63.06-2.21l-5.23-128.86-18.82.66L-344.44,89.1Z" transform="translate(1384.23 508.75)"/><path class="cls-25" d="M-414.32,92.76c1.63.61,3.16,1.09,4.58,1.47a38,38,0,0,0,14.66,1.27.69.69,0,0,0,.57-.79.7.7,0,0,0-.79-.58,37.44,37.44,0,0,1-14.16-1.26c-7.58-2-18.76-7.19-29-20.31C-451.28,56.1-456,5.41-456.09-33a.68.68,0,0,0-.69-.69.68.68,0,0,0-.69.69c.11,38.62,4.88,89.67,17.93,106.41C-430.95,84.43-421.68,90-414.32,92.76Z" transform="translate(1384.23 508.75)"/><path class="cls-25" d="M-348.12,140.28c-19,0-41.78-.65-67.39-2.57l.11-1.48c76.3,5.75,127.48.06,128,0l.17,1.47C-287.59,137.74-310.4,140.28-348.12,140.28Z" transform="translate(1384.23 508.75)"/><path class="cls-25" d="M-265.88,270.85c-19.28,0-26.16-2.9-26.48-3l-.43-.19L-297.85,138l8,3.75-.63,1.35-5.75-2.71,4.93,126.21c2.08.72,12.09,3.61,35.71,2.52l.07,1.48C-259.34,270.78-262.77,270.85-265.88,270.85Z" transform="translate(1384.23 508.75)"/><path class="cls-26" d="M-234.15-13.62C-246.46-18.21-259.8-28.1-260-39c-.14-7.3,5.34-13.31,16.3-17.88h0c3.47-1.44,9-1.44,15.66,6.77a79.88,79.88,0,0,1,9.73,16.53c2.94,6.36,5.55,14.91,1.28,19.52-1.78,1.92-4.34,2.8-7.75,2.64A31.89,31.89,0,0,1-234.15-13.62Zm-7.32-37.87c-5.86,2.44-12.83,6.57-12.72,12.39.14,7.44,11.33,16,22.07,20,8.14,3,10.33,1.59,10.81,1.07,1.25-1.35,1-5.93-2.29-13.12-5.93-12.82-12-20.41-16.36-20.62A3.49,3.49,0,0,0-241.47-51.49Z" transform="translate(1384.23 508.75)"/><path class="cls-26" d="M-217.27-11.6c-3.82-5-.41-13.25,3.11-19.31a80.46,80.46,0,0,1,11.25-15.54c7.4-7.54,12.91-7,16.23-5.26h0c10.47,5.58,15.37,12.08,14.54,19.34C-173.37-21.56-187.59-13-200.27-9.56a31.58,31.58,0,0,1-9.53,1.32C-213.21-8.4-215.68-9.51-217.27-11.6Zm27.85-35c-4.18-2.23-11.73,4.9-19.71,18.59-4,6.84-4.63,11.38-3.52,12.85.43.55,2.48,2.2,10.87,0,11.06-3,23-10.46,23.86-17.85.66-5.78-5.89-10.56-11.5-13.54Z" transform="translate(1384.23 508.75)"/><rect class="cls-27" x="-282.02" y="-14.06" width="122.9" height="109.24" transform="translate(941.42 579.42) rotate(-177.3)"/><rect class="cls-6" x="-283.88" y="-14.02" width="130.23" height="32.56" transform="translate(946.84 502.95) rotate(-177.3)"/><polygon points="1222.44 607.21 1099.24 601.39 1099.26 600.95 1102.88 524.35 1103.75 524.39 1100.16 600.55 1222.48 606.33 1222.44 607.21"/><polygon points="1230.16 530.8 1099.63 524.64 1099.67 523.76 1229.32 529.88 1230.84 497.8 1231.71 497.84 1230.16 530.8"/><rect x="-179.6" y="25.28" width="0.88" height="12.41" transform="translate(1329.93 407.95) rotate(-36.69)"/><rect x="-181.98" y="31.29" width="0.88" height="11.89" transform="translate(1322.71 404.78) rotate(-38.04)"/><path class="cls-20" d="M-241.17,66.59a3.44,3.44,0,0,0-2.74-3.8l-10.9-2.36a.82.82,0,0,1-.64-.71h0a.82.82,0,0,1,.87-.91l16.43,1.32a2.71,2.71,0,0,0,3-3.13h0a4.37,4.37,0,0,0-3.82-3.69L-255.7,52a.82.82,0,0,1-.74-.72l0-.28a.81.81,0,0,1,.71-.91l18.52-2.16a3.45,3.45,0,0,0,3.09-3.52,3.38,3.38,0,0,0-3.76-3.18l-18.63,2.17a.81.81,0,0,1-.91-.71l-.1-.87a.83.83,0,0,1,.62-.89l16.9-4.26a3.43,3.43,0,0,0,2.6-3.89,3.36,3.36,0,0,0-4.13-2.66s-26.13,5.1-30.27,5.56l4.51-8.63a3.38,3.38,0,0,0-.55-4.73h0a3.38,3.38,0,0,0-4.74.56l-15.33,15.32c-.75.95-.48,3.37.2,5.25.8,19.86,1.08,22.91,1.79,28.25l21-3.18a50.57,50.57,0,0,1,18.23.58l1.5.32A3.37,3.37,0,0,0-241.17,66.59Z" transform="translate(1384.23 508.75)"/><path class="cls-4" d="M-287.35,31.05s7.25,17.1,2,51.39l-7.3-24.25L-304,42.61Z" transform="translate(1384.23 508.75)"/><path class="cls-25" d="M-419.29,32A.86.86,0,0,0-419,32c1,0,99.09-3,131.18-.33.79,2.11,4.41,13,3.4,32.91a.69.69,0,0,0,.66.73.7.7,0,0,0,.72-.66c1.15-22.57-3.46-33.46-3.65-33.91l-.17-.38-.41,0c-31.72-2.71-130.77.26-131.77.29a.69.69,0,0,0-.67.71A.69.69,0,0,0-419.29,32Z" transform="translate(1384.23 508.75)"/><path class="cls-20" d="M-423.73-98S-408.6-86.26-391-87.34s18.83-10,18.83-10S-387.75-101-423.73-98Z" transform="translate(1384.23 508.75)"/><path class="cls-25" d="M-319.46,17.68a.69.69,0,0,0,.85-.3l4.65-8-.06-.27L-329.7-59.71c-.1-.62-1.46-8.65-8.26-17.49-6.38-8.3-19-18.85-42.65-22a.7.7,0,0,0-.78.6.7.7,0,0,0,.6.78c23.18,3.08,35.46,13.34,41.68,21.4,6.74,8.74,8,16.86,8,16.94v0l15.63,68.61-4.38,7.51a.69.69,0,0,0,.25.94Z" transform="translate(1384.23 508.75)"/><path class="cls-28" d="M-211.79,314.79l44.49,3.91,19.77-18.07,31.27,22.55,7.11.62a5.21,5.21,0,0,1,4.79,4.52,5.09,5.09,0,0,1-5.5,5.63l-103.45-9.08a1.39,1.39,0,0,1-1.26-1.5l.59-6.74A2,2,0,0,1-211.79,314.79Z" transform="translate(1384.23 508.75)"/><path class="cls-10" d="M-211.4,314.89l1.6-18.27s8.38-9.43,19.34-3.28c0,0,16.18,13.76,32.69.28l36.31,20.07s10,4.37,12.37,10.17Z" transform="translate(1384.23 508.75)"/><rect x="-219.72" y="305.33" width="18.24" height="0.76" transform="translate(887.51 577.93) rotate(-84.98)"/><path d="M-175.45,299.84a16.85,16.85,0,0,0,2.36.07l0-.75a27,27,0,0,1-17.08-6.11l-.49.58A28.06,28.06,0,0,0-175.45,299.84Z" transform="translate(1384.23 508.75)"/><rect x="-204.32" y="307.22" width="0.76" height="5.84" transform="translate(1067.3 465.32) rotate(-51.05)"/><rect x="-200.78" y="306.61" width="0.76" height="5.84" transform="translate(1069.48 467.72) rotate(-50.99)"/><path d="M-106.26,333.38a5.47,5.47,0,0,0,2.29-4,5.48,5.48,0,0,0-5-5.92l-102.29-9a2.93,2.93,0,0,0-3.18,2.66l-.44,5,.76.06.44-5a2.18,2.18,0,0,1,2.35-2l102.3,9a4.71,4.71,0,0,1,4.27,5.1,4.71,4.71,0,0,1-2,3.43Z" transform="translate(1384.23 508.75)"/><path d="M-109.33,324l.72-.26c-.07-.19-1.77-4.61-9.22-8.59s-39.43-21.67-39.75-21.84l-.37.66c.32.18,32.45,17.94,39.77,21.85C-111,319.63-109.34,323.94-109.33,324Z" transform="translate(1384.23 508.75)"/><path class="cls-28" d="M-291.79,314.79l44.49,3.91,19.77-18.07,31.27,22.55,7.11.62a5.21,5.21,0,0,1,4.79,4.52,5.09,5.09,0,0,1-5.5,5.63l-103.45-9.08a1.39,1.39,0,0,1-1.26-1.5l.59-6.74A2,2,0,0,1-291.79,314.79Z" transform="translate(1384.23 508.75)"/><path class="cls-9" d="M-291.4,314.89l1.6-18.27s8.38-9.43,19.34-3.28c0,0,16.18,13.76,32.69.28l36.31,20.07s10.05,4.37,12.37,10.17Z" transform="translate(1384.23 508.75)"/><rect x="-299.72" y="305.33" width="18.24" height="0.76" transform="translate(814.51 498.23) rotate(-84.98)"/><path d="M-255.45,299.84a16.85,16.85,0,0,0,2.36.07l0-.75a27,27,0,0,1-17.08-6.11l-.49.58A28.06,28.06,0,0,0-255.45,299.84Z" transform="translate(1384.23 508.75)"/><rect x="-284.32" y="307.22" width="0.76" height="5.84" transform="translate(1037.59 403.11) rotate(-51.05)"/><rect x="-280.78" y="306.61" width="0.76" height="5.84" transform="translate(1039.84 405.56) rotate(-50.99)"/><path d="M-186.26,333.38a5.47,5.47,0,0,0,2.29-4,5.48,5.48,0,0,0-5-5.92l-102.29-9a2.93,2.93,0,0,0-3.18,2.66l-.44,5,.76.06.44-5a2.18,2.18,0,0,1,2.35-2l102.3,9a4.71,4.71,0,0,1,4.27,5.1,4.71,4.71,0,0,1-2,3.43Z" transform="translate(1384.23 508.75)"/><path d="M-189.33,324l.72-.26c-.07-.19-1.77-4.61-9.22-8.59s-39.43-21.67-39.75-21.84l-.37.66c.32.18,32.45,17.94,39.77,21.85C-191,319.63-189.34,323.94-189.33,324Z" transform="translate(1384.23 508.75)"/><path d="M-820.13,287.75a4.43,4.43,0,0,0-2-.47l-5.45,0-14.56.07-5.45,0a4.44,4.44,0,0,0-2,.49c-40,5.23-71.2,50.72-70.93,105.74l.44,90.94a4.37,4.37,0,0,0,4.39,4.34,4.36,4.36,0,0,0,4.34-4.39l-.44-90.93c-.26-53.56,31-97.3,69.65-97.48l14.56-.07c38.67-.19,70.34,43.23,70.6,96.8l.44,90.93a4.37,4.37,0,0,0,4.39,4.34,4.35,4.35,0,0,0,4.34-4.38l-.44-90.94C-748.44,337.77-780.09,292.59-820.13,287.75Z" transform="translate(1384.23 508.75)"/><path class="cls-29" d="M-695.43,541.66c1.69-61.73-38.37-145.11-126.74-190.1s-76.18-143.7-76.18-143.7l-23.43,23.7-14.06-23.7-19.53,23.7-18.75-23.7-17.18,23.7-21.09-23.7-18,23.7-18-23.7-14.84,23.7-18-23.7-11.72,23.7-11.72-19.18s-28.33,111.58,60,156.57S-927.76,476.37-929.46,538.1Z" transform="translate(1384.23 508.75)"/><rect class="cls-30" x="-1080.39" y="275.29" width="170.69" height="5.97" transform="translate(1373.9 474.17) rotate(-2)"/><rect class="cls-30" x="-1072.88" y="292.47" width="170.69" height="5.97" transform="translate(1373.31 474.44) rotate(-2)"/><rect class="cls-30" x="-1062.98" y="309.65" width="170.69" height="5.97" transform="translate(1372.71 474.8) rotate(-2)"/><rect class="cls-30" x="-1029.14" y="347.15" width="170.69" height="5.97" transform="matrix(1, -0.03, 0.03, 1, 1371.42, 476)"/><rect class="cls-30" x="-1009.63" y="360.68" width="170.69" height="5.97" transform="translate(1370.96 476.69) rotate(-2)"/><rect class="cls-30" x="-977.59" y="377.74" width="170.69" height="5.97" transform="translate(1370.39 477.82) rotate(-2)"/><rect class="cls-30" x="-935.63" y="426.04" width="170.69" height="5.97" transform="translate(1368.73 479.31) rotate(-2)"/><rect class="cls-30" x="-916.49" y="448.66" width="170.69" height="5.97" transform="translate(1367.95 480) rotate(-2)"/><rect class="cls-30" x="-910.03" y="464.41" width="170.69" height="5.97" transform="translate(1367.4 480.23) rotate(-2)"/><polygon class="cls-6" points="751.27 979.42 565.54 976.14 557.26 976.18 371.93 977.08 325.71 1530.46 559.96 1529.32 568.24 1529.28 802.49 1528.14 751.27 979.42"/><polygon class="cls-27" points="810.49 976.86 625.16 977.77 616.88 977.81 431.54 978.71 385.48 1530.16 619.57 1530.95 627.85 1530.91 862.1 1529.77 810.49 976.86"/><circle class="cls-31" cx="-761.86" cy="745.61" r="121.54" transform="translate(633.86 188.41) rotate(-45)"/><path d="M-975.78,749.27H-976a2.62,2.62,0,0,1-2.4-2.83l23.31-279.08L-732,466.27a2.61,2.61,0,0,1,2.63,2.6,2.62,2.62,0,0,1-2.6,2.64l-218.29,1.06-22.91,274.3A2.62,2.62,0,0,1-975.78,749.27Z" transform="translate(1384.23 508.75)"/><path d="M-673,949.46a2.61,2.61,0,0,1-2.1-1,2.63,2.63,0,0,1,.51-3.67l80.4-60.92a2.61,2.61,0,0,1,3.67.5A2.62,2.62,0,0,1-591,888l-80.41,60.92A2.56,2.56,0,0,1-673,949.46Z" transform="translate(1384.23 508.75)"/><path d="M-614.87,938.31a2.6,2.6,0,0,1-2.06-1,2.62,2.62,0,0,1,.41-3.68l55.65-44.5a2.61,2.61,0,0,1,3.68.41,2.6,2.6,0,0,1-.41,3.68l-55.65,44.5A2.6,2.6,0,0,1-614.87,938.31Z" transform="translate(1384.23 508.75)"/><path class="cls-6" d="M-714.23,697.69c-27.69-18.34-44.38,12.25-48,20-4.32-7.4-23.6-36.43-49.61-15.75-34.91,27.76,20.5,96,54,116.21h0C-726.32,795.09-677,722.33-714.23,697.69Z" transform="translate(1384.23 508.75)"/><path d="M-1009.69,470.47a2.62,2.62,0,0,0-2.4-2.83,2.63,2.63,0,0,0-2.82,2.39l-46.42,551.68,5.6,0Z" transform="translate(1384.23 508.75)"/><path d="M-762.14,287.47a4.17,4.17,0,0,0-2-.47l-5.45,0-14.56.07-5.45,0a4.31,4.31,0,0,0-2,.49c-40,5.23-71.2,50.72-70.93,105.74l.44,90.93a4.37,4.37,0,0,0,4.39,4.35,4.37,4.37,0,0,0,4.34-4.39l-.44-90.93c-.26-53.57,31-97.3,69.65-97.49l14.56-.07c38.67-.19,70.34,43.24,70.6,96.8l.45,90.94a4.36,4.36,0,0,0,4.38,4.34,4.35,4.35,0,0,0,4.34-4.39l-.44-90.93C-690.45,337.49-722.1,292.31-762.14,287.47Z" transform="translate(1384.23 508.75)"/><path d="M-522.56,1019a2.64,2.64,0,0,1-2.62-2.39l-51-545.89-73.91.36h0a2.64,2.64,0,0,1-2.64-2.62,2.64,2.64,0,0,1,2.62-2.65l78.75-.38.22,2.4,51.18,548.29a2.64,2.64,0,0,1-2.38,2.87Z" transform="translate(1384.23 508.75)"/><path class="cls-8" d="M-607.48,240.67a60,60,0,0,1,4.8-23.7,64.8,64.8,0,0,1,14-20.5A65.39,65.39,0,0,1-568,182.27a60.86,60.86,0,0,1,24.08-4.8,61.25,61.25,0,0,1,24.26,4.89,65.48,65.48,0,0,1,20.69,14.11,63.78,63.78,0,0,1,13.82,20.31,60.44,60.44,0,0,1,4.8,23.89,63.75,63.75,0,0,1-4.7,24.55,63,63,0,0,1-13.92,20.59,63.91,63.91,0,0,1-20.69,14,62.42,62.42,0,0,1-24.26,4.79A61,61,0,0,1-568,299.83a66.81,66.81,0,0,1-20.69-14,63.76,63.76,0,0,1-14-20.78A62.92,62.92,0,0,1-607.48,240.67Zm19.19.28q0,18.66,12.95,31.58A42.74,42.74,0,0,0-544,285.44a42.81,42.81,0,0,0,31.53-13,43,43,0,0,0,13-31.48,42.64,42.64,0,0,0-13-31.38A43,43,0,0,0-544,196.66a42.74,42.74,0,0,0-31.34,12.91A42.64,42.64,0,0,0-588.29,241Zm49.17,219.41h-17.64L-395.4,173h17.64Zm82.68-68.65a61.43,61.43,0,0,1,4.7-23.89A62.54,62.54,0,0,1-438,347.51a62.74,62.74,0,0,1,20.6-14.2,61.52,61.52,0,0,1,24.17-4.8,61.49,61.49,0,0,1,24.17,4.89,65,65,0,0,1,20.78,14.11,63.52,63.52,0,0,1,14.11,20.41,59.6,59.6,0,0,1,4.89,23.79,62.06,62.06,0,0,1-4.8,24.36,65,65,0,0,1-14.2,20.78,63.45,63.45,0,0,1-20.78,14,62.49,62.49,0,0,1-24.17,4.8,61.52,61.52,0,0,1-24.17-4.8,64,64,0,0,1-20.6-14,64,64,0,0,1-13.73-20.69A63.75,63.75,0,0,1-456.44,391.71Zm19.18.28a43.13,43.13,0,0,0,12.86,31.48,42.52,42.52,0,0,0,31.44,13,42.93,42.93,0,0,0,31.44-13,42.83,42.83,0,0,0,13-31.48,42.53,42.53,0,0,0-13-31.38A43.07,43.07,0,0,0-393,347.7a42.66,42.66,0,0,0-31.44,12.91A42.83,42.83,0,0,0-437.26,392Z" transform="translate(1384.23 508.75)"/><path class="cls-32" d="M-71.38,581.76s-21.37,8.72-24.52,9.35-24,3.68-28.6,7.88-2.85,9-2.79,14c0,1.23,2.81,8.6,5.54,8.6s18-11.84,18-11.84l10.3,4.61,29.18-1.68Z" transform="translate(1384.23 508.75)"/><polygon class="cls-20" points="1597.95 1489.58 1621.42 1462.87 1598.15 1439.37 1571.71 1464.47 1597.95 1489.58"/><path class="cls-19" d="M78.85,644.81s15.62,84,29.87,178.24c41.19,39.71,84.07,82.51,116.1,118.05,0,0-8.89,20.64-36,32.82l-67.09-57.44c0,.34.09.68.13,1-18.43-14.71-66.08-51.67-83.32-65.38a14.88,14.88,0,0,1-5.3-8.56L20.86,662.37Z" transform="translate(1384.23 508.75)"/><path class="cls-20" d="M73.27,376.87l-6,34.05s-2,9.17,5.87,11.76l-5.06,16.55c-1.37,4.48,2,4.87,6.13,7a25.22,25.22,0,0,0,7.42,2.53c9.25,1.63,15.48-4.41,16.86-7.74s2-20.31,2-20.31l1.72-8.08L106.7,381Z" transform="translate(1384.23 508.75)"/><path class="cls-5" d="M92,401.19a.46.46,0,0,0,.28-.06.4.4,0,0,0,.11-.55c0-.06-4.38-6.42-9.91-3.37a.39.39,0,0,0-.16.53.38.38,0,0,0,.53.15c4.9-2.69,8.73,2.89,8.89,3.13A.41.41,0,0,0,92,401.19Z" transform="translate(1384.23 508.75)"/><path class="cls-5" d="M76.52,396.07a.39.39,0,0,0,.37-.63c-.13-.16-3.25-3.95-5.93-2.37a.39.39,0,0,0-.13.53.38.38,0,0,0,.53.14c2.1-1.24,4.89,2.16,4.92,2.19A.4.4,0,0,0,76.52,396.07Z" transform="translate(1384.23 508.75)"/><path class="cls-33" d="M83.92,401.37a1.17,1.17,0,1,0,2.31.4,1.17,1.17,0,0,0-2.31-.4Z" transform="translate(1384.23 508.75)"/><path class="cls-33" d="M71.85,398a1.16,1.16,0,0,0,1,1.36,1.17,1.17,0,1,0,.4-2.31A1.17,1.17,0,0,0,71.85,398Z" transform="translate(1384.23 508.75)"/><path class="cls-5" d="M105.65,378.36s9,1.14,9.94,10.14-3.16,12.89-3.7,15.42S110.05,424,98.2,420.55l1.75-29L106.16,381Z" transform="translate(1384.23 508.75)"/><path class="cls-20" d="M93.54,402.65a7,7,0,1,0,8.16-5.71A7,7,0,0,0,93.54,402.65Z" transform="translate(1384.23 508.75)"/><path class="cls-21" d="M100.23,408.21a2.91,2.91,0,0,0,3.1-1.68,2.75,2.75,0,0,0-.53-3.36,3.3,3.3,0,0,0-3.66-.52,3.23,3.23,0,0,1,1.7-1.46,4.4,4.4,0,0,1,3.11.35.2.2,0,1,0,.19-.35,4.81,4.81,0,0,0-3.42-.37A3.81,3.81,0,0,0,98.5,403l-.29.64.58-.4a3.06,3.06,0,0,1,3.75.18,2.39,2.39,0,0,1,.44,2.9,2.52,2.52,0,0,1-2.68,1.47h0a.19.19,0,0,0-.22.16.2.2,0,0,0,.15.23Z" transform="translate(1384.23 508.75)"/><path class="cls-21" d="M93.26,418.14S90,433.51,70.4,431.58l2.72-8.9S85.21,427.41,93.26,418.14Z" transform="translate(1384.23 508.75)"/><path class="cls-21" d="M78.47,408.44a.19.19,0,0,0,.21-.1.2.2,0,0,0-.08-.26l-3.64-2,2.83-8.87a.2.2,0,0,0-.13-.25.21.21,0,0,0-.25.13l-2.92,9.18,3.92,2.11Z" transform="translate(1384.23 508.75)"/><path class="cls-24" d="M80.8,412.72c-.12,0-7.59-1.55-7.59-1.55s.39,3.28,3.17,3.84S80.8,412.72,80.8,412.72Z" transform="translate(1384.23 508.75)"/><path class="cls-5" d="M103.74,385.41s-22.66,6.2-33.31-7.24-7.22-15.25-2.28-14.26,11.71,3.25,17.29,1.77,17-1.27,20.6,5.27S113.38,381.51,103.74,385.41Z" transform="translate(1384.23 508.75)"/><path class="cls-32" d="M-96,591.11l69.38-26.46,18.47-65L7.56,512.4,30.75,526l13.53,5.22s-18.12,60.66-35,72.5-119.41,16-119.41,16Z" transform="translate(1384.23 508.75)"/><path class="cls-8" d="M18,453.13s-20,15.57-33.1,56.94L-22.82,534S-.35,548.69,27.26,549.9s23.66-69.71,19.39-79.56S32.74,446,32.74,446,22.89,448.42,18,453.13Z" transform="translate(1384.23 508.75)"/><polygon class="cls-20" points="1503.24 1516.16 1538.48 1516.65 1538.98 1483.41 1503.88 1479.03 1503.24 1516.16"/><path class="cls-22" d="M158.1,634.5s10.36,216.23-.18,344.28c0,0-21,13.7-48.43,2.78L82.52,728,62.18,674.27V585.8Z" transform="translate(1384.23 508.75)"/><path d="M129.79,986.49a69.55,69.55,0,0,0,27.51-6l.34-.16.07-.37c9-48.84,3.26-289.54,3.2-292a.74.74,0,0,0-.74-.72h0a.74.74,0,0,0-.72.76c.06,2.42,5.78,241.74-3.11,291.29-3,1.36-25.66,11-46.52,1.53a.74.74,0,1,0-.62,1.35A49.54,49.54,0,0,0,129.79,986.49Z" transform="translate(1384.23 508.75)"/><path class="cls-34" d="M157.54,555.82l1.92,121.11s-81.28,6.18-137.4-5.82c0,0,8.5-212.83,10.16-222.19,2-11,55.77-11.68,78.24-8.86,0,0,13.69-2.09,32.35,9.56Z" transform="translate(1384.23 508.75)"/><path d="M144.86,984.7a.74.74,0,0,0,.74-.73l1.3-87.18a.73.73,0,0,0-.73-.75h0a.73.73,0,0,0-.74.73L144.11,984a.75.75,0,0,0,.74.75Z" transform="translate(1384.23 508.75)"/><path class="cls-20" d="M101.38,438.61s-6.37,12-17,12c-16.27.05-19-12-19-12l18-.83Z" transform="translate(1384.23 508.75)"/><path class="cls-8" d="M158.4,513.66l3.53,171.72S114,695,92.46,686.4c0,0,.12-240.45,8.92-247.79,1.08,0,23.21.46,39,2.44S158.4,513.66,158.4,513.66Z" transform="translate(1384.23 508.75)"/><path class="cls-8" d="M65.69,438.61S61.24,654.34,56.85,686.4c0,0-17.93,1.24-40.79-7,0,0,4.11-225,10-231.06S65.69,438.61,65.69,438.61Z" transform="translate(1384.23 508.75)"/><path d="M64.73,481.88a.73.73,0,0,0,.74-.72l1-43.35-.81.07c-1.51.11-37.11,3-47.62,15.25a.74.74,0,0,0,.07,1.05.75.75,0,0,0,1.05-.08c9.26-10.77,40.34-14.16,45.79-14.67L64,481.12a.75.75,0,0,0,.73.76Z" transform="translate(1384.23 508.75)"/><path d="M92.46,687.14h0a.74.74,0,0,0,.74-.74C92.83,533.31,97,480.11,97.06,479.59a.74.74,0,0,0-.68-.8.75.75,0,0,0-.8.68c0,.52-4.23,53.76-3.87,206.93A.75.75,0,0,0,92.46,687.14Z" transform="translate(1384.23 508.75)"/><path d="M15.69,680.09h0a.75.75,0,0,0,.72-.76c-1.45-67,10.34-212,10.45-213.44a.74.74,0,0,0-.67-.8.72.72,0,0,0-.8.68C25.29,467.23,13.5,612.26,15,679.36A.74.74,0,0,0,15.69,680.09Z" transform="translate(1384.23 508.75)"/><path d="M158.4,567.31a.74.74,0,0,0,.74-.74V531.49a.74.74,0,1,0-1.48,0v35.08A.74.74,0,0,0,158.4,567.31Z" transform="translate(1384.23 508.75)"/><path class="cls-20" d="M190.24,519.18s7.71,50.49,8.91,56c2.7,12.49-6.62,105.23-6.62,105.23l-33.43-1.67-3.16-90.09-10.69-47.15Z" transform="translate(1384.23 508.75)"/><path class="cls-8" d="M134.07,440.36s14.08.37,23.59,8.28S192.48,515.21,201.35,549l-75.76,23.62Z" transform="translate(1384.23 508.75)"/><path d="M152.6,547.65a.91.91,0,0,0,.23,0l44.22-12.89a.81.81,0,0,0,.55-1,.8.8,0,0,0-1-.54l-44.23,12.89a.8.8,0,0,0-.55,1A.82.82,0,0,0,152.6,547.65Z" transform="translate(1384.23 508.75)"/><path class="cls-25" d="M156.11,459a.49.49,0,0,1-.4-.2c-4.87-6.49-12.82-9.12-12.9-9.15a.51.51,0,0,1-.32-.64.5.5,0,0,1,.63-.32c.34.11,8.33,2.75,13.39,9.5a.51.51,0,0,1-.1.71A.47.47,0,0,1,156.11,459Z" transform="translate(1384.23 508.75)"/><path class="cls-25" d="M155.16,463.63a.51.51,0,0,1-.4-.2c-4.87-6.48-12.82-9.12-12.9-9.15a.5.5,0,0,1-.32-.63.5.5,0,0,1,.63-.33c.34.11,8.33,2.76,13.39,9.51a.5.5,0,0,1-.1.7A.47.47,0,0,1,155.16,463.63Z" transform="translate(1384.23 508.75)"/><path d="M122.31,691.35c15.66,0,36-4.11,36.25-4.16a.8.8,0,0,0-.32-1.57c-.27,0-27.05,5.46-42.55,3.82a.79.79,0,0,0-.88.71.81.81,0,0,0,.71.88A65.83,65.83,0,0,0,122.31,691.35Z" transform="translate(1384.23 508.75)"/><path d="M146.15,567.08l56.18-17.52-.21-.75c-.14-.51-14.62-51.73-28.35-76.08q-1.74-3.09-3.25-5.83c-11.2-20.17-14.58-26.26-39.11-27.58a.8.8,0,1,0-.08,1.6c23.64,1.27,26.92,7.18,37.79,26.76,1,1.83,2.09,3.77,3.26,5.84,12.73,22.58,26.14,68.55,28,75l-53,16.53a339.74,339.74,0,0,0-11.78-41.91c-.31-.9-.6-1.74-.86-2.51a.8.8,0,0,0-1.52.52c.26.77.55,1.61.87,2.51A341.25,341.25,0,0,1,146,566.22Z" transform="translate(1384.23 508.75)"/><path d="M137.31,531.55a.78.78,0,0,0,.61-.29.8.8,0,0,0-.1-1.13l-5.94-4.92a.8.8,0,1,0-1,1.24l5.94,4.91A.77.77,0,0,0,137.31,531.55Z" transform="translate(1384.23 508.75)"/><path d="M20,550.72a.79.79,0,0,0,.78-.62.8.8,0,0,0-.6-1c-.26-.06-26.35-6.14-42-15.54l10.37-31.52a.81.81,0,0,0-.52-1,.8.8,0,0,0-1,.51l-10.75,32.73.54.33c15.83,9.72,42.77,16,43,16.06A.55.55,0,0,0,20,550.72Z" transform="translate(1384.23 508.75)"/><path d="M12.74,536.11a.8.8,0,0,0,.2-1.58c-.21-.06-21.23-5.53-31.62-11.89a.81.81,0,0,0-1.11.27.8.8,0,0,0,.27,1.1c10.59,6.48,31.19,11.85,32.06,12.07Z" transform="translate(1384.23 508.75)"/><path d="M188.78,974.72a.78.78,0,0,0,.33-.07c27.51-12.46,36.36-33,36.45-33.24l.2-.48-.36-.38c-.53-.57-53.56-57.53-73.05-75.95a.8.8,0,0,0-1.1,1.17c18.6,17.58,67.87,70.39,72.62,75.48-1.48,3.08-10.8,20.78-35.42,31.94a.8.8,0,0,0,.33,1.53Z" transform="translate(1384.23 508.75)"/><path d="M216.75,954.08a.8.8,0,0,0,.57-1.37l-49.1-50.11a.8.8,0,0,0-1.13,0,.79.79,0,0,0,0,1.13l49.1,50.12A.78.78,0,0,0,216.75,954.08Z" transform="translate(1384.23 508.75)"/><rect class="cls-5" x="-459.75" y="926.15" width="239.81" height="27.82" transform="translate(704.54 2388.88) rotate(180)"/><rect class="cls-5" x="-483.89" y="898.33" width="239.81" height="27.82" transform="translate(656.26 2333.23) rotate(180)"/><rect class="cls-5" x="-463.82" y="870.51" width="239.81" height="27.82" transform="translate(696.4 2277.59) rotate(180)"/><rect class="cls-5" x="-491.62" y="842.71" width="239.81" height="27.82" transform="translate(640.8 2221.99) rotate(180)"/><rect class="cls-5" x="-463.82" y="814.91" width="239.81" height="27.82" transform="translate(696.4 2166.39) rotate(180)"/><rect class="cls-5" x="-483.89" y="787.09" width="239.81" height="27.82" transform="translate(656.26 2110.75) rotate(180)"/><rect class="cls-5" x="-453.85" y="759.26" width="239.81" height="27.82" transform="translate(716.33 2055.1) rotate(180)"/><rect class="cls-5" x="-483.89" y="731.44" width="239.81" height="27.82" transform="translate(656.26 1999.45) rotate(180)"/><rect class="cls-5" x="-467.89" y="703.62" width="239.81" height="27.82" transform="translate(688.25 1943.81) rotate(180)"/><rect class="cls-5" x="-483.89" y="675.79" width="239.81" height="27.82" transform="translate(656.26 1888.16) rotate(180)"/><path class="cls-35" d="M-491.54,870.53V842.71h27.8v-27.8H-483.8V787.09h30V759.26h-30V731.44h16V703.62h-16V675.79h109.93a8,8,0,0,1,8,8v11.83a8,8,0,0,0,8,8h0a8,8,0,0,1,8,8v11.82a8,8,0,0,1-8,8h0a8,8,0,0,0-8,8v11.83a8,8,0,0,0,8,8h14a8,8,0,0,1,8,8v11.83a8,8,0,0,1-8,8h-14a8,8,0,0,0-8,8v11.82a8,8,0,0,0,8,8h4.08a8,8,0,0,1,8,8v11.8a8,8,0,0,1-8,8h-11.81a8,8,0,0,0-8,8v11.82a8,8,0,0,0,8,8h11.81a8,8,0,0,1,8,8v11.8a8,8,0,0,1-8,8h-4.08a8,8,0,0,0-8,8v11.83a8,8,0,0,0,8,8h8.15a8,8,0,0,1,8,8V946a8,8,0,0,1-8,8H-459.67V926.15H-483.8V898.33h20.06v-27.8Z" transform="translate(1384.23 508.75)"/><rect x="916.42" y="1211.39" width="239.73" height="1.96"/><rect x="900.42" y="1239.21" width="239.73" height="1.96"/><rect x="930.46" y="1267.03" width="239.73" height="1.96"/><rect x="900.42" y="1294.85" width="239.73" height="1.96"/><rect x="920.49" y="1322.68" width="239.73" height="1.96"/><rect x="892.69" y="1350.48" width="239.73" height="1.96"/><rect x="892.69" y="1378.3" width="239.73" height="1.96"/><rect x="920.49" y="1406.1" width="239.73" height="1.96"/><rect x="924.56" y="1433.92" width="239.73" height="1.96"/><circle class="cls-9" cx="1147.78" cy="1509.28" r="17.98"/><circle class="cls-19" cx="1147.78" cy="1509.28" r="9.61"/><path class="cls-36" d="M-213.76,972.82s.7,8.95-8.87,13.82-9.57,9.57-9.57,9.57.92,7.25-4.33,7.41-5.55-6.64-5.09-12.2,4.63-11.27,5.48-12.66.31-5.94.31-5.94Z" transform="translate(1384.23 508.75)"/><rect class="cls-9" x="-237.68" y="968.58" width="27.48" height="6.33" transform="translate(936.34 2452.23) rotate(180)"/><rect class="cls-36" x="-225.66" y="954.22" width="4.26" height="14.36" transform="translate(937.16 2431.54) rotate(180)"/><circle class="cls-9" cx="926.34" cy="1509.28" r="17.98"/><circle class="cls-19" cx="926.34" cy="1509.28" r="9.61"/><path class="cls-36" d="M-435.2,972.82s.7,8.95-8.87,13.82-9.57,9.57-9.57,9.57.92,7.25-4.33,7.41-5.55-6.64-5.09-12.2,4.63-11.27,5.48-12.66.31-5.94.31-5.94Z" transform="translate(1384.23 508.75)"/><rect class="cls-9" x="-459.12" y="968.58" width="27.48" height="6.33" transform="translate(493.46 2452.23) rotate(180)"/><rect class="cls-36" x="-447.1" y="954.22" width="4.26" height="14.36" transform="translate(494.28 2431.54) rotate(180)"/><path class="cls-36" d="M-468.85,954.38c2.56-.32,83.78-.36,241.4-.12l40,.06h0a6.18,6.18,0,0,0,5.23-2.8,6.19,6.19,0,0,0,.54-5.92l-22.12-52.1-6.27-15.06.64-4.39,35.17-228.83,1.49-9.71L-101,603l3.32,7.34-67.86,30.69-36.35,236.51,27.56,64.89A14.31,14.31,0,0,1-175.54,956a14.29,14.29,0,0,1-11.94,6.41h0l-40-.07c-149-.22-236.69-.2-240.51.08l.12,0Z" transform="translate(1384.23 508.75)"/><path d="M-140.1,618.19l39.5-16.3a6.83,6.83,0,0,1,9,4l.24.65a6.82,6.82,0,0,1-3.8,8.66l-39.44,16.28a6.83,6.83,0,0,1-8.76-3.37l-.3-.62A6.82,6.82,0,0,1-140.1,618.19Z" transform="translate(1384.23 508.75)"/><path d="M-201.29,874.75a.8.8,0,0,0,.79-.68l35.79-232.9a.8.8,0,0,0-.67-.92.8.8,0,0,0-.92.67l-35.79,232.91a.79.79,0,0,0,.67.91Z" transform="translate(1384.23 508.75)"/><path d="M-468.85,955.19h0l281.36-.06a.81.81,0,0,0,.81-.81.8.8,0,0,0-.81-.8h0l-281.36.06a.8.8,0,0,0-.81.8A.81.81,0,0,0-468.85,955.19Z" transform="translate(1384.23 508.75)"/><path d="M-185.65,719.93a.8.8,0,0,0,.79-.68l12.79-83.19,18.12-8.19a.82.82,0,0,0,.41-1.07.8.8,0,0,0-1.07-.4L-173.53,635l-.07.44L-186.45,719a.8.8,0,0,0,.68.91Z" transform="translate(1384.23 508.75)"/><path class="cls-28" d="M155.37,1011.35h-31.2l-12.65-13.78-23.14,13.78h-5a3.64,3.64,0,0,0-3.62,2.85,3.55,3.55,0,0,0,3.49,4.25h72.55a1,1,0,0,0,1-1v-4.73A1.41,1.41,0,0,0,155.37,1011.35Z" transform="translate(1384.23 508.75)"/><path class="cls-8" d="M155.1,1011.39V998.58s-5.26-7.07-13.26-3.46c0,0-12.1,8.58-22.77-1.81l-26.49,11.76s-7.26,2.42-9.23,6.32Z" transform="translate(1384.23 508.75)"/><rect x="1539.06" y="1507.33" width="0.53" height="12.74"/><path d="M131,998.72a13.21,13.21,0,0,1-1.64-.09l.08-.52a18.9,18.9,0,0,0,12.26-3.21l.3.44A19.61,19.61,0,0,1,131,998.72Z" transform="translate(1384.23 508.75)"/><rect x="148.15" y="1007.37" width="4.08" height="0.53" transform="matrix(0.83, -0.56, 0.56, 0.83, 847.13, 764.37)"/><rect x="145.72" y="1006.73" width="4.08" height="0.53" transform="matrix(0.83, -0.56, 0.56, 0.83, 846.44, 763.48)"/><path d="M80.8,1017.84a3.82,3.82,0,0,1,2.47-6.73H155a2.05,2.05,0,0,1,2.05,2v3.54h-.53v-3.54a1.52,1.52,0,0,0-1.52-1.51H83.27a3.28,3.28,0,0,0-2.13,5.79Z" transform="translate(1384.23 508.75)"/><path d="M83.51,1011.49l-.48-.23c0-.13,1.51-3.1,6.93-5.42s28.77-12.66,29-12.77l.22.49c-.24.1-23.68,10.5-29,12.77S83.52,1011.46,83.51,1011.49Z" transform="translate(1384.23 508.75)"/><path class="cls-28" d="M245,961.54l-22.25,21.87-18.69-1-6.84,26-3.55,3.49a3.64,3.64,0,0,0-.58,4.57,3.55,3.55,0,0,0,5.46.59l51.74-50.86a1,1,0,0,0,0-1.36L247,961.56A1.4,1.4,0,0,0,245,961.54Z" transform="translate(1384.23 508.75)"/><path class="cls-8" d="M244.84,961.76l-9-9.13s-8.7-1.36-11.88,6.82c0,0-2.61,14.61-17.5,14.67l-10.66,27s-3.48,6.82-2.15,11Z" transform="translate(1384.23 508.75)"/><rect x="240.06" y="950.8" width="0.53" height="12.74" transform="translate(782.14 951.84) rotate(-44.51)"/><path d="M218.77,969.62a11.43,11.43,0,0,1-1.24,1.09l-.31-.43a18.78,18.78,0,0,0,6.5-10.88l.52.1A19.56,19.56,0,0,1,218.77,969.62Z" transform="translate(1384.23 508.75)"/><rect x="236.67" y="962.26" width="4.08" height="0.53" transform="translate(632.11 1512.49) rotate(-78.45)"/><rect x="234.49" y="963.5" width="4.08" height="0.53" transform="translate(629.19 1512.25) rotate(-78.51)"/><path d="M196.37,1018.44a3.82,3.82,0,0,1-3-6.53l51.15-50.28a2.06,2.06,0,0,1,2.9,0l2.48,2.53-.38.37L247.09,962a1.52,1.52,0,0,0-2.14,0l-51.16,50.29a3.28,3.28,0,0,0,2.54,5.62Z" transform="translate(1384.23 508.75)"/><path d="M193.85,1012l-.5.17c0-.13-1.1-3.27,1.15-8.72s11.63-29.2,11.73-29.44l.49.19c-.09.24-9.52,24.09-11.73,29.45S193.84,1012,193.85,1012Z" transform="translate(1384.23 508.75)"/><path class="cls-20" d="M163.73,730.65c-7.13,6.65-7.46-1.09-7.46-1.09-4.2,3.18-5.91,2.18-6.61.79a3.62,3.62,0,0,1,.05-3.24c1.63-3.22,6.64-13,10.14-19,.12-4.47-7.49-3.79-11.52-2.18-2.08.83-5.34.58-1.59-3.92,3.07-3.66,12.49-8.71,12.49-8.71l-.69-30.62L193,675.39s-3.17,28.18-3.62,32.43-6.7,18-10.86,21.95c-7.56,7.13-7.43,2.19-7.43,2.19C162.54,738.64,163.73,730.65,163.73,730.65Z" transform="translate(1384.23 508.75)"/><path class="cls-21" d="M162.77,721.2a.52.52,0,0,0-1-.34,62.68,62.68,0,0,1-5.94,8.37.52.52,0,0,0,.07.73.51.51,0,0,0,.72-.07,62.78,62.78,0,0,0,6.06-8.54A.88.88,0,0,0,162.77,721.2Z" transform="translate(1384.23 508.75)"/><path class="cls-21" d="M169.17,722.34a.51.51,0,0,0-1-.27,32.27,32.27,0,0,1-4.85,8.25.51.51,0,0,0,.78.66,32.18,32.18,0,0,0,5-8.55A.29.29,0,0,0,169.17,722.34Z" transform="translate(1384.23 508.75)"/><path class="cls-21" d="M176.28,724.76a.52.52,0,0,0-.31-.56.51.51,0,0,0-.67.28,27.59,27.59,0,0,1-4.59,7.13.51.51,0,1,0,.75.7,28,28,0,0,0,4.79-7.44Z" transform="translate(1384.23 508.75)"/><path d="M-700.11,272.06a2.2,2.2,0,0,1-2.2-2.2V158c0-.29.77-25.47,27.28-27.43h184a2.2,2.2,0,0,1,2.2,2.2,2.2,2.2,0,0,1-2.2,2.2H-674.79c-22.38,1.7-23.11,22.21-23.13,23.09V269.86A2.2,2.2,0,0,1-700.11,272.06Z" transform="translate(1384.23 508.75)"/><rect class="cls-19" x="27.41" y="1526.71" width="2418.65" height="4.43"/><path class="cls-29" d="M196-272.54c-29.8-1.71-99.68-4.69-160.43.43C10.47-270-11.23-290.06-10.66-315.28c.23-10.32,3.93-22.32,13.51-35.93,36.88-52.38,101-2.35,100.38,24.24,0,0,13-40,52.33-33S181-294.77,181-294.77s12.7-2.68,21.51,3.33C211.17-285.53,206.5-271.94,196-272.54Z" transform="translate(1384.23 508.75)"/><path class="cls-29" d="M-687.53-111.75a14.37,14.37,0,0,0-4-9.11c-5.61-6-15.17-10.83-31.25-12,0,0,5.54-99.69-69.76-106.3-86.37-7.57-87.42,90.37-87.42,90.37s-39.25-37.26-67.56,10c0,0-48.93-28.28-73.61,24a8.21,8.21,0,0,0-.79,3.06Z" transform="translate(1384.23 508.75)"/></g></g></svg>