<svg id="Layer_12" data-name="Layer 12" xmlns="http://www.w3.org/2000/svg" viewBox="0 0 307.56 307.74"><defs><style>.cls-1{fill:#b01f24;}</style></defs><path class="cls-1" d="M163.08,7.47a14.78,14.78,0,0,0,1.55.86,11.65,11.65,0,0,1,7.19,12.32,11.27,11.27,0,0,1-10,9.8c-6.54.69-13.15.79-19.66,1.63a123.41,123.41,0,0,0-59.9,24.68C55.44,77.2,38.13,103.93,32.13,137.23,25.39,174.55,33.21,208.92,56,239.38c18.25,24.4,42.27,41,71.93,48.2,42.28,10.25,81,1.93,115-25.48a124.92,124.92,0,0,0,43.74-68.32c2.22-8.89,2.78-18.2,4-27.33.3-2.17.14-4.4.41-6.57a11.47,11.47,0,0,1,22.47-1.76,4.5,4.5,0,0,0,.51.87v13.73a11.22,11.22,0,0,0-.57,1.66c-1.45,8.46-2.19,17.11-4.43,25.35-12.11,44.61-38.79,77.81-79.95,98.79-34.2,17.44-70.39,21.19-107.44,11.35-44.25-11.76-77.17-38.42-98.21-79.08-16.79-32.45-21-66.87-13.18-102.58C17.21,96.42,33,69.55,56.93,47.65A151.13,151.13,0,0,1,138.48,9.07c3.26-.49,6.52-1.07,9.78-1.6Z" transform="translate(-6.5 -7.47)"/><path class="cls-1" d="M149.94,188.62c3.34-3.52,6.15-6.62,9.11-9.57q64.39-64.28,128.79-128.53c3.51-3.5,7.46-5.31,12.38-3.92a10.93,10.93,0,0,1,8.08,8.5c1,4.5-.45,8.25-3.66,11.45Q292.28,78.83,280,91.16l-93.45,93.22c-9.32,9.3-18.63,18.63-28,27.88-5.85,5.77-12.72,5.61-18.25-.39Q112,181.23,83.75,150.51c-4.37-4.75-5.26-9.88-2.66-14.52,3.92-7,12.86-8.23,18.59-2.26,7.1,7.38,13.95,15,20.89,22.54q14,15.14,27.87,30.29C148.81,187,149.09,187.45,149.94,188.62Z" transform="translate(-6.5 -7.47)"/></svg>