<svg id="Layer_42" data-name="Layer 42" xmlns="http://www.w3.org/2000/svg" viewBox="0 0 242 308"><defs><style>.cls-1{fill:#fff;}</style></defs><g id="report"><path id="Path_14104" data-name="Path 14104" class="cls-1" d="M154.67,190.14h88v22h-88Z" transform="translate(-99.67 -14.14)"/><path id="Path_14105" data-name="Path 14105" class="cls-1" d="M154.67,135.14h132v22h-132Z" transform="translate(-99.67 -14.14)"/><path id="Path_14106" data-name="Path 14106" class="cls-1" d="M154.67,245.14h55v22h-55Z" transform="translate(-99.67 -14.14)"/><path id="Path_14107" data-name="Path 14107" class="cls-1" d="M319.67,47.14h-33v-11a22,22,0,0,0-22-22h-88a22,22,0,0,0-22,22v11h-33a22,22,0,0,0-22,22v231a22,22,0,0,0,22,22h198a22,22,0,0,0,22-22v-231A22,22,0,0,0,319.67,47.14Zm-143-11h88v44h-88Zm143,264h-198v-231h33v33h132v-33h33Z" transform="translate(-99.67 -14.14)"/></g></svg>