<svg id="Layer_43" data-name="Layer 43" xmlns="http://www.w3.org/2000/svg" viewBox="0 0 333.29 333.69"><defs><style>.cls-1{fill:#fff;}</style></defs><path class="cls-1" d="M222.68,4.39h3.26a56.76,56.76,0,0,1,4.5,5.34c5.64,8.62,11.26,17.26,16.64,26,1.53,2.49,2.87,2.71,5.43,1.7,13.31-5.22,26.69-10.27,40.06-15.35,5.26-2,7.92-.71,9.63,4.64,3.22,10.12,6.48,20.22,9.56,30.38.65,2.12,1.51,2.91,3.8,2.87,9.22-.14,18.45-.06,27.67-.06,7.17,0,8.66,1.47,8.66,8.51q0,41,0,82.05v4c3.47,0,6.43-.32,9.29.07,4,.55,8.22,1.07,11.92,2.6,6.42,2.67,9.71,8.33,11.86,14.7v76.9a3.5,3.5,0,0,0-.57.74c-4.08,11.13-11.29,16.2-23.16,16.23h-9.34V270q0,30.13,0,60.27c0,6.07-1.73,7.83-7.67,7.83q-126.24,0-252.48,0a43.49,43.49,0,0,1-9.67-1c-18.65-4.3-30.38-19.66-30.38-39.75q-.06-98.22,0-196.45a47.48,47.48,0,0,1,.57-8.43C55.73,73.08,71.44,60.14,91.68,60q20.85-.16,41.7,0a13.07,13.07,0,0,0,7.84-2.39c8.92-6,17.94-11.83,26.94-17.7Q195.4,22.15,222.68,4.39Zm-159.87,122v3.5q0,83.73,0,167.48a34.77,34.77,0,0,0,.93,8.71C67.35,319.31,78,327,92.73,327H340.57V265.75h-3.7q-27.71,0-55.4,0a56.27,56.27,0,0,1-8.1-.58c-20-3-33.64-20.61-32.46-41.78,1-18.54,17.4-34.74,36.45-35.2,19.75-.47,39.53-.18,59.29-.22h3.9v-50h-4.38q-119.09,0-238.19,0a101.1,101.1,0,0,1-15.56-1C75.1,135.72,68.91,131.91,62.81,126.35Zm7.83-7.78c9.53,7.51,19.12,10.6,30.06,6.57q78.74-29,157.39-58.23c4.49-1.67,7.77-1.36,11,2.35a20.19,20.19,0,0,0,14.78,7.29c4.15.16,6.14,2.21,7.36,6,4.47,13.83,9.11,27.6,13.77,41.36.36,1.07,1.34,2.71,2.1,2.75,4.83.25,9.68.13,15,.13C312.28,95.63,302.6,65,292.8,34ZM374,196.21c-7,3.59-14.11,2.87-21.13,2.89-16.72,0-33.45,0-50.17,0-8.47,0-16.95-.18-25.4.23-13,.62-24.14,11.75-25.21,24.72-1.42,17.12,11.09,30.52,28.74,30.57,26.82.08,53.65,0,80.47,0,8.56,0,12.83-4.22,12.86-12.78.05-14.12,0-28.24,0-42.35C374.16,198.66,374.07,197.81,374,196.21Zm-80.36-69.59a3.64,3.64,0,0,0,.08-1.12c-4-12.14-8-24.29-12.18-36.38A3.81,3.81,0,0,0,279,87.2a31.24,31.24,0,0,1-15.19-7.67c-1.68-1.59-3.09-1.68-5.18-.91Q195.85,101.93,133,125.09c-.91.34-1.78.78-3.45,1.53ZM111.18,90.55l.32.55L238.42,42.75c-5.48-8.55-10.69-16.66-16.07-25.06ZM64.45,107.86l55.64-36.48c-11.21,0-21.38-.21-31.54.07-8.43.22-15.18,4.25-20.16,10.93C62.72,90,61.44,98.44,64.45,107.86Zm276.07,18.93V71.31H316.75c-.09.43-.21.66-.16.83q8.34,26.51,16.76,53a2.87,2.87,0,0,0,1.93,1.61A39.46,39.46,0,0,0,340.52,126.79ZM352.07,188c3.32,0,6.33,0,9.33,0a23.79,23.79,0,0,0,3.87-.34,10.79,10.79,0,0,0,8.8-10.24c.24-5.21-3.05-10.31-8-11.13-4.51-.74-9.18-.51-14-.72Z" transform="translate(-51.67 -4.39)"/><path class="cls-1" d="M149.15,154.52v10.87H127.08c0-3.1-.1-6.12.08-9.11a2.46,2.46,0,0,1,1.69-1.69C135.54,154.47,142.24,154.52,149.15,154.52Z" transform="translate(-51.67 -4.39)"/><path class="cls-1" d="M127.46,299.29h21.6V310h-21.6Z" transform="translate(-51.67 -4.39)"/><path class="cls-1" d="M216.27,165.39V154.7h21.9v10.69Z" transform="translate(-51.67 -4.39)"/><path class="cls-1" d="M260.72,165.41V154.74h21.87v10.67Z" transform="translate(-51.67 -4.39)"/><path class="cls-1" d="M81.34,309.58l2.56-10.67h20.63v10.67Z" transform="translate(-51.67 -4.39)"/><path class="cls-1" d="M193.71,310H171.83v-10.7h21.88Z" transform="translate(-51.67 -4.39)"/><path class="cls-1" d="M216.33,299.27h21.73V310H216.33Z" transform="translate(-51.67 -4.39)"/><path class="cls-1" d="M282.62,299.38V310H260.74V299.38Z" transform="translate(-51.67 -4.39)"/><path class="cls-1" d="M81.33,165l2.54-10.56h20.79V165Z" transform="translate(-51.67 -4.39)"/><path class="cls-1" d="M193.72,165.52H171.94V154.73h21.78Z" transform="translate(-51.67 -4.39)"/><path class="cls-1" d="M324,154.51v10.91H305.05c0-3.19-.1-6.3.09-9.39,0-.54,1.23-1.44,1.9-1.45C312.55,154.46,318.06,154.51,324,154.51Z" transform="translate(-51.67 -4.39)"/><path class="cls-1" d="M323.93,310H305.21V299.34h18.72Z" transform="translate(-51.67 -4.39)"/><path class="cls-1" d="M263,226.7a16.63,16.63,0,0,1,33.26.13A16.63,16.63,0,1,1,263,226.7Zm22.14.23a5.63,5.63,0,0,0-5.29-5.54,5.48,5.48,0,0,0-5.72,5.37,5.63,5.63,0,0,0,5.56,5.62A5.81,5.81,0,0,0,285.18,226.93Z" transform="translate(-51.67 -4.39)"/></svg>