<svg xmlns="http://www.w3.org/2000/svg" viewBox="0 0 347.11 378.19"><defs><style>.cls-1{isolation:isolate;}.cls-2{fill:#d8d8d8;mix-blend-mode:multiply;}.cls-2,.cls-3,.cls-4,.cls-5,.cls-6,.cls-7,.cls-8,.cls-9{fill-rule:evenodd;}.cls-3{fill:#f36566;}.cls-4{fill:#eb3939;}.cls-5{fill:#cc0d16;}.cls-6{fill:#ba7331;}.cls-7{fill:#f7ce7f;}.cls-8{fill:#e5bb57;}.cls-9{fill:#cea341;}</style></defs><g class="cls-1"><g id="OBJECTS"><polygon class="cls-2" points="303.13 323.71 164.19 281.68 25.24 323.71 164.19 371.43 303.13 323.71"/><polygon class="cls-3" points="164.19 183.34 196.8 179.55 298.57 210.04 261.36 212.73 205.41 204.63 164.19 183.34"/><polygon class="cls-3" points="67.01 212.73 164.19 246.11 183.28 302.44 164.19 355.99 67.01 322.61 67.01 212.73"/><polygon class="cls-4" points="261.36 212.73 164.19 246.11 164.19 355.99 261.36 322.61 261.36 212.73"/><polygon class="cls-3" points="67.01 212.73 39.87 244.39 135.19 279.94 164.19 246.11 67.01 212.73"/><polygon class="cls-4" points="67.01 262.51 135.19 287.94 164.19 246.11 135.19 279.94 67.01 254.51 67.01 262.51"/><polygon class="cls-3" points="261.36 212.73 288.5 244.39 193.19 279.94 164.19 246.11 261.36 212.73"/><polygon class="cls-5" points="261.36 262.51 193.19 287.94 164.19 246.11 193.19 279.94 261.36 254.51 261.36 262.51"/><polygon class="cls-3" points="164.19 183.34 131.57 179.55 29.8 210.04 67.01 212.73 122.97 204.63 164.19 183.34"/><polygon class="cls-5" points="261.36 212.73 164.19 183.34 67.01 212.73 164.19 246.11 261.36 212.73"/><path class="cls-6" d="M245.31,95.13c-14.41-6.44-20.9-13.95-32.72-21-5.83-1.92-11.1.17-13.28,5.14-2.61,9.71-12.23,27.67,2.78,30.63h43.07Z" transform="translate(-85.81 -73.42)"/><path class="cls-7" d="M245.31,95.13c-14.41-6.44-20.9-13.95-32.72-21-5.83-1.92-11.1.17-13.28,5.14-.68,2.55-1.85,5.67-2.93,8.93-2,7.7-2,15.09,7.15,16.9h41.68Z" transform="translate(-85.81 -73.42)"/><path class="cls-6" d="M259.84,95.13c14.4-6.44,20.9-13.95,32.72-21,5.83-1.92,11.1.17,13.28,5.14,2.61,9.71,12.23,27.67-2.78,30.63H260Z" transform="translate(-85.81 -73.42)"/><path class="cls-7" d="M259.84,95.13c14.4-6.44,20.9-13.95,32.72-21,5.83-1.92,11.1.17,13.28,5.14.68,2.55,1.85,5.67,2.93,8.93,2,7.7,2,15.09-7.15,16.9H259.94Z" transform="translate(-85.81 -73.42)"/><path class="cls-8" d="M244.54,109.89h16.31a0,0,0,0,0,0,0V95.13a3.06,3.06,0,0,0-3.05-3H247.58a3.06,3.06,0,0,0-3.05,3v14.75a0,0,0,0,0,0,0" transform="translate(-85.81 -73.42)"/><path class="cls-6" d="M242.12,93.62s-.11,5.17-.61,5.3-3.75-1.27-3.75-1.27l-9.07-4.76A41.72,41.72,0,0,0,242.27,102l.44,4.12,1.82,2.16,0-13.53Z" transform="translate(-85.81 -73.42)"/><path class="cls-6" d="M263.29,93.62s.11,5.17.62,5.3,3.74-1.27,3.74-1.27l9.08-4.76A41.94,41.94,0,0,1,263.15,102l-.45,4.12-1.81,2.16,0-13.53Z" transform="translate(-85.81 -73.42)"/><polygon class="cls-5" points="70.41 61.99 166.88 63.74 263.35 61.99 263.35 49.44 166.88 49.44 70.41 49.44 70.41 61.99"/><polygon class="cls-3" points="70.41 39.81 166.88 27.26 166.88 49.44 70.41 61.99 70.41 39.81"/><polygon class="cls-7" points="103.79 35.47 124.3 32.8 124.3 54.98 103.79 57.65 103.79 35.47"/><polygon class="cls-4" points="263.35 39.81 166.88 27.26 166.88 49.44 263.35 61.99 263.35 39.81"/><polygon class="cls-7" points="229.97 35.47 209.47 32.8 209.47 54.98 229.97 57.65 229.97 35.47"/><polygon class="cls-7" points="6.03 151.21 6.82 175.44 45.27 147.43 6.03 151.21"/><polygon class="cls-9" points="6.03 151.21 16.52 158.24 6.82 175.44 6.03 151.21"/><polygon class="cls-6" points="6.82 175.44 16.52 158.24 45.27 147.43 6.82 175.44"/><polygon class="cls-8" points="309.23 23.17 328.37 38.04 283.12 52.71 309.23 23.17"/><polygon class="cls-9" points="309.23 23.17 308.76 35.79 328.37 38.04 309.23 23.17"/><polygon class="cls-6" points="328.37 38.04 308.76 35.79 283.12 52.71 328.37 38.04"/><polygon class="cls-7" points="324.61 158.92 320.93 178.47 293.26 150.92 324.61 158.92"/><polygon class="cls-9" points="324.61 158.92 315.22 163.3 320.93 178.47 324.61 158.92"/><polygon class="cls-6" points="320.93 178.47 315.22 163.3 293.26 150.92 320.93 178.47"/><polygon class="cls-7" points="13.8 31.69 0 46.02 38.48 52.61 13.8 31.69"/><polygon class="cls-9" points="13.8 31.69 15.67 41.88 0 46.02 13.8 31.69"/><polygon class="cls-6" points="0 46.02 15.67 41.88 38.48 52.61 0 46.02"/><path class="cls-6" d="M296.24,437.61l20.57-7.07c2.59-6.14,10.83-11.53,16.94-14.29v-2.8l-16.09,2.91-3.19,3.85-4.92,2.18L302,430.15Z" transform="translate(-85.81 -73.42)"/><path class="cls-8" d="M296.24,437.61c11.55-15.23,25.12-27,48-18.92C369.37,427.57,384,449,415.45,451.6l17.47-7.42c-11.06.29-21.53-.4-29.92-4.66-17.47-8.89-29.32-24.37-50.74-29.06-22.59-4.94-41.52,6.3-56,27.15" transform="translate(-85.81 -73.42)"/><path class="cls-6" d="M216.83,442.17l-27.74-9.53c-3.49-8.28-14.61-15.55-22.84-19.27l0-3.78,21.72,3.92,4.29,5.2,6.64,2.94,10.24,10.46Z" transform="translate(-85.81 -73.42)"/><path class="cls-8" d="M216.83,442.17c-15.58-20.53-33.87-36.41-64.72-25.51-17.41,6.15-31.09,16.76-46,26.11l-.77-9.95L90.09,434c15.53-11.11,29.84-23.74,51.19-28.41,30.47-6.67,56,8.49,75.55,36.61" transform="translate(-85.81 -73.42)"/></g></g></svg>