<svg id="Layer_2" data-name="Layer 2" xmlns="http://www.w3.org/2000/svg" viewBox="0 0 266.18 308.47"><defs><style>.cls-1{fill:#fbf5f6;}.cls-2{fill:#af1d22;}.cls-3{fill:#b01e22;}</style></defs><path class="cls-1" d="M250.53,315.47c6.36-1.77,10.29-6.18,13-12v12Z" transform="translate(-11.26 -7)"/><path class="cls-2" d="M266.51,220.27c-56.2-53.8-139.59-65.13-207.6-27.44-17,9.4-32.79,20.55-44.63,36.24a18,18,0,0,0-3,7v3.1a2,2,0,0,1,0,1.08v58.8c0,12.33,14.87,14.71,14.94,14.72a38.51,38.51,0,0,0,5.74.4c75.71-.3,151.43-.16,227.14-.18,12,0,18.08-6.08,18.1-18.08,0-16.78-.58-33.58.22-50.32C277.91,234.9,274,227.39,266.51,220.27Z" transform="translate(-11.26 -7)"/><path class="cls-3" d="M173.22,13.41a88.46,88.46,0,0,0-11.34-4A72.69,72.69,0,0,0,147.09,7h-7.93a56.11,56.11,0,0,0-9.33,1.33c-.79.26-1.59.5-2.4.7A71.25,71.25,0,0,0,72.75,77c-1,48.22,45.2,84,90.88,70.36,28.84-8.59,49.76-33.67,51.82-62.13C217.72,53.94,201.51,26.08,173.22,13.41Z" transform="translate(-11.26 -7)"/></svg>