<svg id="Layer_3" data-name="Layer 3" xmlns="http://www.w3.org/2000/svg" viewBox="0 0 352.11 306.92"><defs><style>.cls-1{fill:#b01e23;}.cls-2{fill:#b01f24;}</style></defs><path class="cls-1" d="M177.56,315c-21.6,0-43.2.06-64.8,0-14.51-.05-25-9.56-25.17-23.91-.3-20.75-.68-41.57.54-62.26,2.34-40.06,30.82-70.41,70.75-76.3,19.18-2.83,38.71-3.71,57.18,2.82,30.31,10.73,49,32.51,55.41,64.2,1.46,7.25,1.6,14.83,1.73,22.27.25,15,.16,29.91,0,44.86A46.69,46.69,0,0,1,272,298c-2.69,10.26-9.89,15.58-20.24,16.06-15.58.73-31.19,1-46.8,1.32-9.13.18-18.27,0-27.41,0Z" transform="translate(-4.32 -8.51)"/><path class="cls-1" d="M180.41,8.51a59.45,59.45,0,0,1,59.67,59.87c-.07,33-27.28,60.06-60.06,59.69a59.78,59.78,0,0,1,.39-119.56Z" transform="translate(-4.32 -8.51)"/><path class="cls-1" d="M264.42,162a37.84,37.84,0,0,1,24.09-10.15c10.22-.51,20.69-.75,30.73.87,20.93,3.39,36.7,22.26,37,43.42.34,25.41.19,50.84,0,76.25-.05,10.26-7.33,19.52-17.2,20.06-14.86.83-29.81.22-45.42.22,0-1.92,0-3.67,0-5.42,0-18.1.23-36.21-.16-54.3-.58-26.55-9.14-50-27.88-69.37C265.26,163.2,265,162.76,264.42,162Z" transform="translate(-4.32 -8.51)"/><path class="cls-2" d="M59.1,52.52A37.76,37.76,0,1,1,59.3,128c-20.53,0-37.86-17.23-37.94-37.75S38.32,52.63,59.1,52.52Z" transform="translate(-4.32 -8.51)"/><path class="cls-1" d="M301.39,52.52A38,38,0,0,1,339.32,90.1c0,20.55-17,37.72-37.75,37.93s-38-17-38-38A37.51,37.51,0,0,1,301.39,52.52Z" transform="translate(-4.32 -8.51)"/><path class="cls-1" d="M77,152.66a227.7,227.7,0,0,0-24.78-1.25C31.92,151.38,16,161.9,8,179.91a51.64,51.64,0,0,0-3.69,19.6v74.65a15.67,15.67,0,0,0,1.46,6.35,1.82,1.82,0,0,1,.15.23c4.16,8.51,11,12.36,20.41,12.26,11.78-.13,23.57,0,35.36,0,1.73,0,3.47-.2,5.34-.32v-6.09c0-18.58-.38-37.18.28-55.74.81-22.78,7.78-43.6,22.54-61.39,2.08-2.51,4.26-4.92,6.5-7.5C90.48,157,84.2,153.47,77,152.66Z" transform="translate(-4.32 -8.51)"/></svg>