<svg id="Layer_4" data-name="Layer 4" xmlns="http://www.w3.org/2000/svg" viewBox="0 0 307.06 307.07"><defs><style>.cls-1{fill:#b01e23;}.cls-2{fill:#b01f24;}</style></defs><path class="cls-1" d="M68.47,9.93c.84,9.74,1.65,19.48,2.54,29.21.36,3.92.9,7.82,1.4,12.07h107c-6.06,30.72,1.1,57.35,24.34,78,23,20.49,50,24.92,79.81,15.35-1.59,15.31-3.17,30.1-4.65,44.9s-2.83,29.38-4.31,44.83H84.49a31.83,31.83,0,0,0-5.95.34c-6.08,1.16-9.67,5.9-9.4,12.1.26,5.75,4.38,10.08,10.4,10.77a49.75,49.75,0,0,0,5.47.17H274.24v17.95H252.77c4.5,14.79,1.53,26.9-10.61,35.86a28.76,28.76,0,0,1-32.71.77c-11.67-7.43-15.2-17.75-12.16-36.17H149.42c2.51,7.79,2.8,15.54-.54,23.1a29.61,29.61,0,0,1-44.75,11.86c-10.63-8-14.06-19.8-9.91-35.36-4.41,0-8.67.1-12.92,0-13.54-.4-24.41-7.86-28.56-19.49A29.62,29.62,0,0,1,66.63,220c1.16-.64,2.34-1.25,4.17-2.22q-9.45-94.51-19-189.89H9.66V9.93ZM141.05,175.5H123.61v17.28h17.44Zm40.87,17.43v-17.5H164.66v17.5Zm41.87-17.43H206.23v17.36h17.56Z" transform="translate(-9.66 -9.93)"/><path class="cls-2" d="M273,12.42a67.8,67.8,0,0,0-34.46.11c-42.32,12.31-57.7,66.43-27.16,99,16.65,17.74,37.36,24,60.72,17.56,23.52-6.49,38.53-22.66,43.39-46.54C322.24,49.19,301,20.38,273,12.42ZM245.54,99.7,218.7,72.51,231.21,59.7c4.76,5.12,9.71,10.44,15.08,16.23L280,41.9,291.44,54Z" transform="translate(-9.66 -9.93)"/></svg>