<svg id="Layer_31" data-name="Layer 31" xmlns="http://www.w3.org/2000/svg" viewBox="0 0 302.94 307.2"><defs><style>.cls-1{fill:#b01e23;}</style></defs><path class="cls-1" d="M77.13,315.37c-2.35-2.87-5.12-5.49-7-8.65C56.81,283.9,43.64,261,30.43,238.07c-3.75-6.49-2.64-10.61,3.87-14.37l38.88-22.42c6.22-3.58,10.4-2.5,14,3.66q20.74,35.9,41.45,71.8c3.56,6.17,2.45,10.4-3.71,14q-19.66,11.4-39.39,22.75c-1.16.67-2.37,1.27-3.56,1.91Z" transform="translate(-28.29 -8.17)"/><path class="cls-1" d="M182.79,268.61c-11.8,0-23.6-.06-35.4.06a4.15,4.15,0,0,1-4.16-2.46q-16.9-29.49-34-58.87a4.17,4.17,0,0,1-.07-4.89c10.45-17.23,25.8-27.36,45.51-30.39,18.79-2.89,35.07,3,48.87,16a5.83,5.83,0,0,0,3.66,1.34c10.8.1,21.6,0,32.4.08,8.58.06,14.34,7.48,12.07,15.35-1.49,5.15-6.16,8.51-12.05,8.52-15,0-30,0-45,0-6.85,0-11.3,6.23-8.81,12.26a8.63,8.63,0,0,0,8.39,5.69c14.9.06,29.8.14,44.7-.07,6.75-.1,12.79-2.63,18.29-6.63Q284,205.14,310.9,185.82c6-4.32,13.68-3.13,17.83,2.55a12.45,12.45,0,0,1-3,17.77c-22,16-43.94,32-66.08,47.73A78.79,78.79,0,0,1,211,268.65C201.59,268.43,192.19,268.61,182.79,268.61Z" transform="translate(-28.29 -8.17)"/><path class="cls-1" d="M209.52,8.17a76,76,0,0,0-.31,151.93c41.74.11,76-33.75,76.12-75.34A76,76,0,0,0,209.52,8.17ZM243.33,64c-.12,1.79-.11,3.6-.05,5.4.08,2.26-.85,3.23-3.19,3.15-3.69-.12-7.38,0-11.19,0-3.63,15.59-14,23.23-29.83,25.18,1.68,1.85,3.16,3.42,4.58,5,5.45,6.25,10.93,12.49,16.32,18.8q6.25,7.32,12.27,14.85a3.56,3.56,0,0,1,.45,2.93,3,3,0,0,1-2.34,1.32c-4.49.13-9,.16-13.49,0a4.8,4.8,0,0,1-3.05-1.51c-7.15-8.13-14.17-16.38-21.29-24.54-4.61-5.28-9.37-10.44-14-15.75a5.74,5.74,0,0,1-1.18-3.21c-.18-2.38.06-4.8-.08-7.19-.18-2.93,1.29-3.89,4-3.93,4.87-.07,9.81.22,14.58-.51,6.72-1,12.3-4.23,15.34-11.49-10.43,0-20.33-.07-30.21,0-2.77,0-3.82-1-3.67-3.68.11-1.8.07-3.6,0-5.4-.08-2.31,1-3.15,3.26-3.14,9.6.08,19.2,0,29.26,0a11.93,11.93,0,0,0-2.68-3.5,9.48,9.48,0,0,0-4.61-2.83,26.83,26.83,0,0,0-8.16-1.76h-.11a39.21,39.21,0,0,0-4.81,0H182l-1,0c-2.32-.1-3.62-.6-3.68-3-.07-2.9,0-5.8,0-8.7-.05-2,.82-2.94,2.83-2.92,2.9,0,5.8,0,8.7,0h49.8c4.17,0,4.59.46,4.63,4.63.06,8.1.44,8-7.76,7.92-3.69,0-7.38,0-11.09,0,1.51,3.37,3,6.65,4.58,10.24,3.32,0,7,.15,10.7,0C242.52,60.18,243.5,61.34,243.33,64Z" transform="translate(-28.29 -8.17)"/></svg>