<svg id="Layer_47" data-name="Layer 47" xmlns="http://www.w3.org/2000/svg" viewBox="0 0 346.97 302.04"><defs><style>.cls-1{fill:#fff;}</style></defs><path class="cls-1" d="M210.72,331.52c-20.93,0-41.86.06-62.79,0-16.57-.06-26.16-9.78-26.22-26.42s-.41-33.57,0-50.34c.38-14,2.6-27.87,9.4-40.38,13.73-25.28,35.31-39.38,63.64-43.26,16.75-2.3,33.61-2.11,49.94,2.08,30.89,7.94,56.28,37,58.85,68.81,1.79,22.13,1.42,44.48.93,66.71-.32,14.88-8.95,22.07-26,22.46-22.57.51-45.17.12-67.75.12Z" transform="translate(-39.82 -29.5)"/><path class="cls-1" d="M213.21,147.05A58.78,58.78,0,1,1,272,88.6,58.61,58.61,0,0,1,213.21,147.05Z" transform="translate(-39.82 -29.5)"/><path class="cls-1" d="M94.18,147a37,37,0,1,1,37.08-37.21C131.43,130,114.61,146.9,94.18,147Z" transform="translate(-39.82 -29.5)"/><path class="cls-1" d="M331.87,147c-20.44-.42-37.18-17.68-36.57-37.7A37.19,37.19,0,1,1,331.87,147Z" transform="translate(-39.82 -29.5)"/><path class="cls-1" d="M79,171.34c-23.27,3.22-39.14,21.84-39.18,46.47q-.08,34.91,0,69.82c0,14,7.7,22,21.73,22.33,11.3.23,22.6.16,33.9.13a38.75,38.75,0,0,0,5.28-.64c0-15-.06-29.42,0-43.87.17-31.35,5.39-61,30.31-85.09-1.68-.87-3.24-1.83-4.73-2.75C109,169.31,80.69,171.22,79,171.34Z" transform="translate(-39.82 -29.5)"/><path class="cls-1" d="M386.79,224v-7.91a60.8,60.8,0,0,0-.81-7.17c0-.15-.09-.29-.12-.44-3.38-17.69-13.53-30.08-30.6-35.27-15.13-4.6-30.86-4-46.12.35-4.57,1.3-8.63,4.39-13.45,6.94,15.81,16,25.4,34,27.76,55.09,1.64,14.63,1.6,29.46,2,44.21.28,9.76,0,19.54,0,29.57a19.56,19.56,0,0,0,3.75.71c12.45,0,24.9,0,37.35-.27,5.8-.11,11.05-2.16,14.69-6.8,0-.17.21-.47.71-1a34.15,34.15,0,0,0,2.16-3.59c2.37-6.06,2.59-16.08,2.6-18.68v-54A12.33,12.33,0,0,1,386.79,224Z" transform="translate(-39.82 -29.5)"/></svg>