<svg id="Layer_25" data-name="Layer 25" xmlns="http://www.w3.org/2000/svg" viewBox="0 0 284.8 316.85"><path d="M29.17,318.93c-3.58-2-4.6-5.1-4.3-9.08,2.71-36,18.87-63.47,51.7-79.6,10.27-5.05,21.63-7.9,32.58-11.5a9.14,9.14,0,0,0,6.16-5.31c2.62-5.81,5.63-11.44,8.09-16.36-4.21-6.53-8-12.61-12.05-18.56-.52-.77-1.94-1.12-3-1.32-3.51-.66-7.31-.53-10.53-1.85-7.14-2.94-10.59-8.86-11-16.5-.14-2.46,0-4.94,0-7.42-9.23-4-12.71-11.18-12.46-20.85C74.68,115.84,74,101,75,86.35,76.65,63.22,86.45,43.5,103.33,27.6c20.6-19.4,45.28-27.8,73.4-25,25.63,2.55,46.67,14.27,62.87,34.28,14.16,17.5,20.59,37.77,20.49,60.21,0,11.55,0,23.11,0,34.66,0,13-7.59,20.62-20.51,20.65h-9.42c-1.76,16.71-7.68,31.57-19.58,43.72,3.39,6.79,6.64,13.46,10.08,20a5.34,5.34,0,0,0,2.92,1.9c8.87,3,17.82,5.82,26.64,9,26,9.23,43,27.6,53.11,52.73a93.14,93.14,0,0,1,6.27,30.12c.22,4-.74,7.07-4.32,9.08ZM222.62,107.35c-1.7-.3-3-.51-4.29-.75-5.16-.93-10.39-1.62-15.49-2.85A110.73,110.73,0,0,1,154.19,78a5.23,5.23,0,0,0-3.46-1.39,42.91,42.91,0,0,0-21.66,8.25c-6.58,4.77-10.9,11.49-15.62,17.85a7.11,7.11,0,0,0-1.33,4.47c1.19,13.55,2.44,27.1,3.95,40.62.63,5.68,1.93,11.29,2.94,17,5.68,0,10.83-.06,16,0a3.06,3.06,0,0,0,3.27-2c3.42-6.77,9.11-10.18,16.65-10.39,4.13-.12,8.26-.13,12.38,0,10.52.34,18.5,8.43,18.48,18.6s-8.06,18.18-18.59,18.48c-3.71.1-7.42,0-11.14,0-8.17,0-14.26-3.39-18-10.78-.32-.64-1-1.5-1.6-1.52-3.73-.13-7.46-.07-11.63-.07,5.73,9.33,12.83,16.25,22.23,20.41,29.46,13.06,60.13-3.77,68.26-34.08,2.76-10.29,3.73-21.09,5.12-31.7C221.46,123.76,221.89,115.63,222.62,107.35ZM114.05,230.08c-8.06,2.7-15.43,5.33-22.9,7.63-19.42,6-33.64,18.27-43.54,35.77a77.51,77.51,0,0,0-10,32.91H156.37C139.65,282.05,123.24,258.2,114.05,230.08Zm64.41,76.27H297c-.34-2.57-.52-4.94-1-7.26-5.29-26.1-18.86-46.25-43.36-57.69-9.46-4.42-19.76-7-29.69-10.45a8.59,8.59,0,0,0-1.45-.36c-6.56,13.28-12.36,26.51-19.45,39S186.53,293.86,178.46,306.35ZM222.56,94.6a2.08,2.08,0,0,0,.28-.59c2.21-21.41-11.32-43.27-31.38-51.28-9.7-3.87-19.75-3.86-29.85-3.58C141.82,39.7,127,48.75,117.38,66a40.88,40.88,0,0,0-5.3,17.11c.42,0,.56,0,.61,0,.45-.42.9-.84,1.32-1.29C124,71.2,136.27,65.5,150.69,64a12.73,12.73,0,0,1,10.87,3.74C178.67,84,199.29,92.33,222.56,94.6Zm24.55-6.1c-1.65-36.27-33.24-73.87-79.59-74.07s-78.4,36.94-80.22,74H99c.1-1.16.17-2.17.27-3.18C102,59,115.54,40.71,140,30.7c11.89-4.86,24.47-4.48,36.92-3.73a62,62,0,0,1,56,45.85c1.35,5.11,2,10.43,2.91,15.68ZM166.86,243.19a5,5,0,0,0-1,.59c-6.67,7-13.28,14.1-20,21.06-1.47,1.51-.67,2.47.14,3.71q10,15.22,20,30.48a15,15,0,0,0,1.27,1.48c6.35-9.53,12.63-18.82,18.77-28.21,4-6.05,3.88-6.11-1.28-11.26Q175.81,252.1,166.86,243.19Zm29.42,11.12s.2-.07.27-.24q6.49-15,13-30a2.52,2.52,0,0,0,.24-1.75c-2.62-5.39-5.32-10.73-8.14-16.38l-26.07,27.6Zm-58.47,1.09,19.37-20.49-25.89-25.86c-1.9,3.77-4,8-6.1,12.24a3.58,3.58,0,0,0-.35,2.57C129,234.14,133.25,244.38,137.81,255.4ZM102.12,140c-1-13.13-2.05-25.92-3.06-38.74H86.76c0,10.92-.08,21.61,0,32.3A6.09,6.09,0,0,0,93,140C95.91,140.13,98.89,140,102.12,140Zm133.27-38.88c-1,13-2,25.79-3.07,38.91,2.62,0,5.17,0,7.71,0,5.39,0,7.65-2.32,7.66-7.77,0-9.57,0-19.14,0-28.71,0-.78-.13-1.56-.21-2.42Zm-74.66,76c2.16,0,4.34.12,6.49,0a6.25,6.25,0,0,0,6.14-6.14,6.18,6.18,0,0,0-6.15-6.12q-6.18-.27-12.37,0A6.17,6.17,0,0,0,148.7,171a6.26,6.26,0,0,0,6.15,6.13C156.8,177.25,158.77,177.14,160.73,177.14Zm6,47.63,10.33-10.94H155.86C159.13,217.12,162.87,220.86,166.77,224.77Zm-67.3-72.24c-1.25,6.71.11,12.83,6.8,11.83-.34-1.92-.67-3.83-1-5.75s-.74-4-1.12-6.08Z" transform="translate(-24.82 -2.08)"/><path d="M271.55,290.4c-.84-.66-3-1.59-4-3.24a66.34,66.34,0,0,0-14.29-17.27c-3-2.56-3.09-6.15-.78-8.78s5.77-2.89,8.85-.44a61.15,61.15,0,0,1,16.71,20.38C280.34,285.54,277.54,290.39,271.55,290.4Z" transform="translate(-24.82 -2.08)"/><path d="M235.28,259.45a6.14,6.14,0,1,1,6.18-6.1A6.34,6.34,0,0,1,235.28,259.45Z" transform="translate(-24.82 -2.08)"/></svg>