<svg xmlns="http://www.w3.org/2000/svg" width="1889.179" height="656.697" viewBox="0 0 1889.179 656.697">
  <g id="Group_84" data-name="Group 84" transform="translate(-39.897 -52.242)">
    <path id="Path_66" data-name="Path 66" d="M1416.169,708.9c-9.8.288-27.548-.839-45.194-2.421a623.033,623.033,0,0,1-89.339-14.427,588.434,588.434,0,0,1-98.145-32.573,495.369,495.369,0,0,1-73.973-39.891,459.5,459.5,0,0,1-48.418-36.3,387.884,387.884,0,0,1-31.733-30.07,359.623,359.623,0,0,1-35.954-45.038c-2.265-3.4-4.168-7.093-6.751-10.228-1.978-2.4-.842-3.661.907-4.77,5.95-3.773,11.98-7.425,18.031-11.035,1.8-1.073,2.994-.147,4.059,1.49a381.968,381.968,0,0,0,22.677,31.553,387.213,387.213,0,0,0,41.468,43.3,404.063,404.063,0,0,0,56.686,42.5,467.1,467.1,0,0,0,64.441,33.8,542.639,542.639,0,0,0,52.859,19.765,566.982,566.982,0,0,0,74.89,17.93,548.428,548.428,0,0,0,60.778,7.042c15.225.856,30.459,2.407,45.688,1.725,19.647-.88,39.3-1.505,58.913-3.619a595.883,595.883,0,0,0,88.933-16.25,514.006,514.006,0,0,0,70.08-23.893,496.573,496.573,0,0,0,46.163-22.041,454.788,454.788,0,0,0,63.137-41.684,384.293,384.293,0,0,0,39.717-35.854,334.938,334.938,0,0,0,41.65-53.051c1.8-2.886,3.018-4.126,6.322-1.815a184.589,184.589,0,0,0,16.689,10.4c2.364,1.3,2.243,2.451,1.107,4.154-8.735,13.1-17.694,26.024-27.875,38.1-8.206,9.73-16.447,19.461-25.591,28.262a467.444,467.444,0,0,1-90.97,68.868,552.128,552.128,0,0,1-103.569,46.06,579.755,579.755,0,0,1-76.968,19.605c-18.249,3.329-36.668,5.748-55.2,7.367C1462.518,707.532,1443.363,708.593,1416.169,708.9Z" fill="#fdb912"/>
    <path id="Path_67" data-name="Path 67" d="M1102.451,241.456c0-31.754.081-62.541-.1-93.326-.023-3.988,1.08-5,4.942-4.857,7.984.3,15.99.217,23.981.027,3.07-.073,4.249.516,4.242,3.986-.119,56.581.212,113.165-.213,169.743-.2,27.165-6.935,52.782-22.731,75.426a131.074,131.074,0,0,1-120.86,56.212c-25.746-2.367-48.838-12.188-68.967-28.878-14.5-12.021-26.32-26.1-34.595-42.894a132.962,132.962,0,0,1-12.732-44.088,126.722,126.722,0,0,1,12.34-71.727c8.814-17.908,21.5-32.859,37.45-45.319a126.434,126.434,0,0,1,53.712-24.975,117.923,117.923,0,0,1,36.257-1.743,122.507,122.507,0,0,1,44.45,13.273,109.716,109.716,0,0,1,38.815,33.789C1099.54,237.648,1100.712,239.139,1102.451,241.456Zm-.116,77.129c.857-7.932-.3-16.247-2.375-24.368a100.091,100.091,0,0,0-37.036-56.047c-15.14-11.628-32.5-17.567-51.326-18.815-19.866-1.317-38.566,3.484-55.854,13.284a92.807,92.807,0,0,0-36.086,36.341,105.071,105.071,0,0,0-12.4,40.149,100.307,100.307,0,0,0,2.767,35.475,97.547,97.547,0,0,0,27.759,47.318A91.721,91.721,0,0,0,993.8,417.74c21.521,2.093,42.294-1.6,61.282-12.93a95.957,95.957,0,0,0,37.739-40.8C1099.706,349.97,1103.4,334.961,1102.335,318.585Z" fill="#af1d22"/>
    <path id="Path_68" data-name="Path 68" d="M73.058,241.891c13.512-18.777,28.66-33.651,48.7-42.892a117.538,117.538,0,0,1,35.912-9.843c25.7-3.018,49.773,2.091,72.381,13.816,35.717,18.526,57.918,47.994,67.845,86.8a115.252,115.252,0,0,1,2.852,39.71,133.521,133.521,0,0,1-75.933,107.927,116.525,116.525,0,0,1-36.7,10.567c-21.663,2.5-42.746.751-63.264-7a134.111,134.111,0,0,1-36.814-21.49c-15.98-12.86-27.85-28.778-36.416-47.327-5.148-11.148-7.5-22.946-9.689-34.939-2.881-15.81-1.716-31.66-1.783-47.489-.2-47.085-.014-94.172-.171-141.258-.014-4.105.9-5.388,5.127-5.2,7.977.361,15.988.27,23.973,0,3.39-.114,4.06,1.033,4.048,4.183-.114,29.449-.067,58.9-.067,88.349Zm98.091,176.066c57.04.474,97.537-45.3,97.476-100.055-.063-55.789-43-96.83-94.985-98.473C114.222,217.551,72.523,263.7,72.247,319.144,71.973,374.13,114.441,418.907,171.149,417.957Z" fill="#af1d22"/>
    <path id="Path_69" data-name="Path 69" d="M1643.159,390.569c-7.1,9.74-14.111,19.014-22.922,26.781a111.625,111.625,0,0,1-51.208,25.594c-11.758,2.536-23.716,2.715-35.511,1.789-19.476-1.528-37.71-7.713-54.628-17.618-15.873-9.294-28.745-22.022-39.377-36.677a120.253,120.253,0,0,1-21.321-49.579c-1.756-9.706-3.387-19.436-2.848-29.271,1.558-28.418,9.97-54.486,28.012-76.923,11.52-14.327,24.709-26.934,41.407-35.04,13.117-6.368,26.784-11.442,41.435-13.381,7.166-.949,14.31-2.185,21.547-1.906,28,1.08,53.583,9.108,76.179,26.134,22.776,17.161,38.081,39.4,46.572,66.488a119.816,119.816,0,0,1,5.566,35.6c.133,41.1-.014,82.2.152,123.292.016,4.091-.861,5.384-5.109,5.181-7.976-.381-15.988-.29-23.973-.025-3.418.114-4.071-1.082-4.04-4.211C1643.24,421.388,1643.159,405.978,1643.159,390.569Zm-96.867,23.419c53.6,1.467,99.543-43.917,97.794-101.439-1.585-52.117-40.889-98.353-99.035-97.153-51.234,1.058-100.248,41.177-96.834,106.437C1450.688,369.047,1491.769,415.6,1546.292,413.988Z" fill="#af1d22"/>
    <path id="Path_70" data-name="Path 70" d="M559.771,389.624a152.858,152.858,0,0,1-23.5,27.329c-14.794,13.4-32.153,21.709-51.575,25.982-11.911,2.621-24.057,2.811-35.993,1.753-16.223-1.439-31.679-6.467-46.293-13.844-11.19-5.648-20.865-13.163-30.135-21.651-13.028-11.932-22.432-26.09-29.631-41.907a127.592,127.592,0,0,1-9.865-34.912,137.856,137.856,0,0,1-.663-30.239c1.475-19.3,7.906-37.3,17.486-54.145a118.813,118.813,0,0,1,19.043-24.777A131.571,131.571,0,0,1,411.9,194.388c18.011-7.5,36.907-11.207,56.424-9.983A132.467,132.467,0,0,1,524.9,200.632a135.154,135.154,0,0,1,35.357,28.74c14.56,16.251,23.83,35.332,28.563,56.679,2.292,10.338,2.44,20.779,3.2,31.247a226.487,226.487,0,0,1,.57,29.263c-1.736,30.223-.354,60.45-.743,90.669-.041,3.236-1.052,3.828-3.975,3.757-7.824-.189-15.662-.259-23.481.022-3.618.131-4.783-.675-4.72-4.553C559.92,420.849,559.771,405.235,559.771,389.624Zm-.032-76.572c.755-7.107-.526-15.067-2.481-22.856-5.238-20.874-15.534-38.628-32.4-52.5-17.212-14.161-36.913-21.306-58.993-22.435a93.817,93.817,0,0,0-23.019,2.024c-24.178,4.778-44.277,16.692-58.717,36.582-17.3,23.827-23.926,50.553-18.284,79.915,4.816,25.066,17.167,45.629,37.491,60.879,22.81,17.115,48.961,22.893,76.87,18.106,24.147-4.142,44.358-16.255,59.051-35.982C552.991,358.35,560.568,337.462,559.739,313.052Z" fill="#af1d22"/>
    <path id="Path_71" data-name="Path 71" d="M1197.4,228.8c3.557-4.351,6.49-7.751,9.217-11.308,12.167-15.871,28.713-23.831,48.019-27.3a120.282,120.282,0,0,1,28.043-1.825c23.984,1.336,46.809,7,65.645,22.65,18.788,15.608,29.947,36.065,35.068,60.027,3.751,17.553,3.985,35.233,3.932,53.019q-.172,57.909.07,115.818c.019,4.165-.982,5.343-5.156,5.135-7.477-.371-15-.362-22.475,0-3.934.19-4.547-1.167-4.537-4.731.124-43.931.406-87.866-.077-131.791-.2-17.759-2.8-35.329-11.4-51.435-10.563-19.792-26.756-31.665-48.849-35.889-16.421-3.139-32.442-2.429-48.283,2.99-20.193,6.908-33.305,21.034-41.163,40.373a103.173,103.173,0,0,0-7.138,34.648c-2.073,46.685-.345,93.384-.818,140.073-.043,4.264-.675,6.1-5.522,5.782a205.162,205.162,0,0,0-21.973-.035c-3.681.153-4.7-.776-4.683-4.587.176-30.784.1-61.569.1-92.354q0-99.594-.118-199.187c-.012-4.664,1.3-5.833,5.728-5.607a209.075,209.075,0,0,0,20.977,0c4.183-.208,5.579.662,5.527,5.281-.281,24.792-.133,49.588-.133,74.382Z" fill="#af1d22"/>
    <path id="Path_72" data-name="Path 72" d="M844.6,371.326c0,22.963-.116,45.927.108,68.888.04,4.085-1.233,4.93-4.985,4.785-7.317-.281-14.664-.326-21.976.014-4.035.188-5.261-.745-5.241-5.048.19-40.434.537-80.876-.083-121.3-.272-17.694-.925-35.536-7.678-52.513-9.675-24.32-26.518-39.713-52.506-44.974-18.845-3.815-37.226-2.388-54.661,5.291a61.9,61.9,0,0,0-29.544,27,103.262,103.262,0,0,0-12.561,43.1c-.628,8.285-.655,16.519-.7,24.769-.094,17.41-2.058,34.8-.987,52.2,1.358,22.061.562,44.13,1.054,66.188.1,4.639-1.357,5.451-5.527,5.279-7.98-.33-15.986-.2-23.977-.038-2.739.057-3.673-.623-3.668-3.533.091-44.928-.486-89.865.288-134.779.41-23.818,4.538-47.245,16.763-68.426,8.469-14.673,19.543-26.684,34.452-35.176,14.246-8.115,29.41-12.305,45.7-13.908,25.162-2.476,49.19.454,71.834,12.143,14.157,7.309,25.151,18.051,33.8,31.319,10.29,15.784,15.517,33.256,18.187,51.78,3.212,22.283,1.356,44.643,1.887,66.964C844.737,358.011,844.6,364.67,844.6,371.326Z" fill="#af1d22"/>
    <path id="Path_73" data-name="Path 73" d="M1706.095,370.576c0-21.962-.439-43.936.123-65.883.573-22.429,4.464-44.318,15.327-64.349,13.059-24.079,32.756-39.794,59.351-47.213a137.382,137.382,0,0,1,45.3-4.7c22.072,1.295,43.036,6.849,60.9,20.6,18.512,14.25,29.509,33.635,35.756,55.76a154.9,154.9,0,0,1,5.208,34.721c2.024,41.689.281,83.391.889,125.081.082,5.655-.1,11.317.063,16.969.075,2.524-.536,3.476-3.274,3.422q-13.234-.258-26.475,0c-2.649.048-3.36-.744-3.34-3.357.123-16.138-.742-32.331.317-48.4,1.029-15.6.948-31.182.529-46.723-.406-15.076-.177-30.174-.939-45.218-.782-15.45-3.675-30.738-11.117-44.5-9.925-18.348-25.005-30.511-45.743-35.125-19.536-4.347-38.781-3.473-57.063,4.742-19.633,8.822-31.432,24.86-37.772,45.044a123.585,123.585,0,0,0-5.152,32.222c-1.868,45.683-.475,91.378-.817,137.065-.027,3.635-1.116,4.381-4.482,4.267-7.486-.252-15-.323-22.475.02-4.05.185-5.278-.769-5.233-5.06C1706.224,416.831,1706.095,393.7,1706.095,370.576Z" fill="#af1d22"/>
    <path id="Path_74" data-name="Path 74" d="M321.44,488.991c-5.786,16.458-11.131,31.706-16.508,46.943-7.143,20.238-14.394,40.438-21.373,60.731-.97,2.82-2.421,2.977-4.854,3.122-2.976.178-4.619-.878-5.561-3.576-3.374-9.673-6.66-19.38-10.227-28.982-10.093-27.17-20.316-54.292-30.462-81.442-.821-2.2-1.439-4.468-2.132-6.643,4.951-.959,7.82-.39,9.869,5.407,12.107,34.257,24.887,68.277,37.449,102.373.2.554.514,1.07,1.173,2.421,3.528-10.162,6.843-19.649,10.114-29.152q13.527-39.3,26.977-78.633c1.134-3.338,3.587-2.647,5.933-2.687,2.061-.036,3.553-.288,4.557,2.736,7.266,21.881,14.937,43.627,22.493,65.412,4.821,13.9,9.664,27.79,14.873,42.762,2.608-6.762,4.962-12.567,7.1-18.451Q387,526.875,402.985,482.364c1.474-4.123,4.544-3.83,7.572-3.393,2.564.37,1.03,1.94.529,3.307C407.111,493.1,403.33,504,399.317,514.812c-7.079,19.072-14.3,38.092-21.42,57.147-3.029,8.1-6.091,16.192-8.879,24.376-.889,2.609-2.115,3.53-4.857,3.439-2.648-.088-4.37-.323-5.4-3.385-4.778-14.279-9.889-28.446-14.842-42.667C336.552,532.554,329.213,511.375,321.44,488.991Z"/>
    <path id="Path_75" data-name="Path 75" d="M217.571,573.359c-16.044,20.79-36.761,30.294-62.088,28.146-20.152-1.709-35.606-12.292-46.329-29.383a58.46,58.46,0,0,1-9.018-33.668c.543-14.859,5.01-28.26,14.7-40.137,18.9-23.161,51.562-27.386,75.517-15.2,17.955,9.134,28.393,24.5,31.564,44.439,1.937,12.183,1.709,12.219-10.448,12.219-32.973,0-65.946.068-98.919-.094-3.7-.018-4.822.807-4.61,4.582,1.274,22.618,17.136,44.218,40.885,49.319,21.053,4.522,39.789-.679,54.936-16.342C207.648,573.226,211.526,571.68,217.571,573.359Zm-56.224-40.545c16.639,0,33.278.026,49.917-.046,1.464-.006,4.321,1.135,3.616-2.181-2.4-11.3-6.4-22.014-14.351-30.622-16.141-17.478-40.13-21.68-61.315-11.641-17.057,8.082-26.69,22.419-31.1,40.443-.581,2.376-.377,4.2,3.319,4.152C128.066,532.678,144.707,532.814,161.347,532.814Z" fill="#010101"/>
    <path id="Path_76" data-name="Path 76" d="M739.665,509.288c0-18.11.027-36.221-.031-54.331-.008-2.521-.148-4.241,3.474-4.209,3.428.03,3.609,1.38,3.6,4.1-.078,29.955.346,59.917-.233,89.861-.251,12.989-5.556,24.637-14.008,34.771a60.974,60.974,0,0,1-39.642,21.964c-16.731,2.277-32.251-2.094-45.991-12.127-12.442-9.084-19.966-21.308-23.424-36.25-4.372-18.9-.205-35.889,10.994-51.413,9.667-13.4,22.9-21.868,38.943-24.326,17.591-2.7,34.223.93,48.762,12.3C729.168,495.146,734.338,501.983,739.665,509.288Zm0,30.633c.513-31.942-24.586-57.178-54.092-56.83-33.464.395-56.7,24.914-56.44,55.806.3,34.648,24.551,56.164,55.2,56.376C715.714,595.49,739.736,571.788,739.664,539.921Z"/>
    <path id="Path_77" data-name="Path 77" d="M536.784,569.209c-3.407,4.146-6.429,8.223-9.8,12.1a58.652,58.652,0,0,1-33.216,19.306c-11.059,2.3-22.347,2.006-32.823-2.1-22.491-8.826-36.708-24.9-41.146-49.2-5.664-31.01,14.873-64.547,47.926-71.248,21.96-4.453,42.228.3,58.344,16.734a61.146,61.146,0,0,1,17.914,40.773c.37,6.917,1.366,13.9.649,20.731-1.409,13.415-.611,26.818-.746,40.221-.034,3.347-1.6,3.1-3.916,3.247-2.77.18-3.269-.913-3.233-3.394C536.863,587.319,536.784,578.263,536.784,569.209Zm0-30.616c.223-31.034-24.014-55.953-54.786-55.51-34.4.495-56.145,25.956-55.7,56.423.467,32.175,22.71,55.092,55.312,55.746C510.769,595.837,536.81,573.291,536.784,538.593Z"/>
    <path id="Path_78" data-name="Path 78" d="M807.235,601.768c-14.908-.2-27.236-5.184-34.9-18.84-1.683-3-2.956-6.112-2.7-9.66.122-1.674-.7-3.99,2.446-3.527,1.931.284,4.132-1.224,4.754,2.85,2.354,15.4,13.858,20.75,25.791,22.277,9.3,1.189,17.6-.455,25.31-5.292,6.635-4.161,9.584-14.676,8.979-22.649-.794-10.468-5.9-17.376-14.683-21.777-5.4-2.708-11.363-4.317-17.092-6.363-7.373-2.632-15.2-4.233-21.637-9.029-6.752-5.028-9.965-11.877-10.943-20.239-2.367-20.252,15.567-33.3,32.621-32.832,9.09.249,17.421,1.951,24.622,7.288,6.112,4.531,9.231,11.1,9.789,18.754.124,1.693.274,3.667-2.357,3.04-1.65-.393-4.157,1.719-4.752-2.239-1.459-9.7-6.6-16.318-16.622-19.072-12.137-3.333-24.292-.132-30.353,6.736-11.124,12.6-6.276,30.868,11.063,37.6,8.687,3.374,17.708,5.7,26.471,8.867,24.567,8.892,27.073,37.16,14.505,52.226C830.038,598.9,819.058,602.065,807.235,601.768Z"/>
    <path id="Path_79" data-name="Path 79" d="M641.723,86.433c0-9.807.1-19.616-.065-29.421-.048-2.8.689-3.761,3.552-3.561,9.283.649,18.645-1.079,27.866,1.971,23.534,7.784,28.239,37.952,12.853,53.428-7.285,7.327-15.932,10.165-25.78,10.518-4.985.179-9.99-.144-14.969.1-2.906.141-3.565-.862-3.52-3.612C641.82,106.049,641.723,96.24,641.723,86.433Zm11.993-.126V99.736c0,7.685.005,7.5,7.757,7.723,11.924.34,21.667-9.964,21.2-22.2-.489-12.778-13.79-23.126-26.366-20.81-2.523.464-2.612,2.018-2.6,3.955C653.737,74.369,653.716,80.338,653.716,86.307Z"/>
    <path id="Path_80" data-name="Path 80" d="M177,86.424c0-9.646.148-19.3-.081-28.937-.079-3.281.846-4.142,4.094-4.074,7.977.165,7.98-.008,7.98,8.087,0,4.657.131,9.319-.053,13.969-.1,2.423.681,3.108,3.069,3.044q8.983-.242,17.976,0c2.421.068,3.107-.679,3.047-3.066-.157-6.316.055-12.642-.107-18.958-.062-2.413.691-2.987,3.062-3.062,9.987-.317,9.984-.412,9.984,9.567,0,17.463-.089,34.928.08,52.389.031,3.285-.874,4.144-4.122,4.1-8.948-.125-8.95.034-8.95-9.115,0-5.655-.122-11.314.057-16.963.078-2.464-.754-3.074-3.1-3.014-5.988.153-11.987.169-17.975-.006-2.463-.071-3.061.752-3.018,3.1.138,7.482-.085,14.972.12,22.451.079,2.877-.834,3.54-3.6,3.54-8.458,0-8.458.129-8.458-8.1Z"/>
    <path id="Path_81" data-name="Path 81" d="M376.879,86.445c0-9.647.142-19.3-.08-28.939-.074-3.243.788-4.167,4.073-4.1,8,.172,8-.008,8,8.072,0,4.657.128,9.319-.052,13.969-.092,2.4.637,3.13,3.051,3.063q8.984-.249,17.977,0c2.4.065,3.127-.638,3.065-3.049-.162-6.317.05-12.642-.108-18.959-.06-2.391.654-3,3.047-3.079,10-.323,10-.42,10,9.555,0,16.966-.143,33.933.1,50.9.062,4.392-1.187,5.812-5.616,5.619-7.463-.324-7.474-.068-7.475-7.6,0-6.155-.111-12.312.055-18.461.066-2.423-.687-3.106-3.073-3.042q-8.982.242-17.976,0c-2.425-.068-3.092.688-3.045,3.07.147,7.315-.125,14.642.134,21.951.117,3.286-.846,4.143-4.093,4.075-7.977-.165-7.98.008-7.98-8.089Z"/>
    <path id="Path_82" data-name="Path 82" d="M718.677,86.2c0-9.647.133-19.3-.078-28.939-.067-3.057.685-3.906,3.813-3.858,8.255.127,8.258-.049,8.258,8.316,0,4.657.105,9.318-.046,13.97-.07,2.17.571,2.864,2.787,2.816,6.489-.139,12.989-.193,19.474.018,2.774.089,2.833-1.238,2.8-3.3-.09-5.986.152-11.983-.108-17.959-.133-3.071.691-3.9,3.814-3.857,8.253.126,8.255-.048,8.255,8.319,0,17.63-.117,35.263.093,52.891.046,3.817-.827,5.489-4.812,4.816a14.907,14.907,0,0,0-3.987-.011c-3.268.346-4.413-1.024-4.331-4.288.18-7.148-.065-14.306.118-21.453.067-2.645-.734-3.381-3.332-3.3-5.821.187-11.657.193-17.477,0-2.633-.088-3.372.708-3.31,3.318.173,7.314-.11,14.641.14,21.951.106,3.1-.746,3.881-3.834,3.836-8.236-.12-8.239.048-8.239-8.333Z"/>
    <path id="Path_83" data-name="Path 83" d="M305.151,119.13c-1.17.195-1.334.249-1.5.246-3.812-.078-8.4,1.093-11.192-.637-2.3-1.425-2.371-6.322-3.6-9.618-.9-2.406-2.186-4.022-5.4-3.831-5.966.354-11.973.236-17.953.038-2.547-.083-3.973.72-4.556,3.157-.186.78-.527,1.523-.787,2.286-3.1,9.138-3.1,9.079-12.4,8.671-2.29-.1-3.414-.293-2.382-3.065,4.852-13.031,9.537-26.123,14.291-39.19,2.406-6.611,5.14-13.125,7.118-19.862.947-3.224,2.39-3.93,5.416-3.89,8.932.117,8.707.086,11.78,8.726,6.321,17.777,12.87,35.475,19.47,53.151C303.932,116.576,303.312,118.043,305.151,119.13ZM282.909,93.437c-2.863-7.952-5.516-15.32-8.415-23.369-2.387,7.165-4.175,13.626-6.738,19.764-1.312,3.144-.805,3.705,2.242,3.63C274.125,93.36,278.257,93.437,282.909,93.437Z"/>
    <path id="Path_84" data-name="Path 84" d="M989.831,73.465c-2.779-.375-6.141,1.624-6.736-4.1-.409-3.932-5.218-5.466-9.559-4.862-3.692.513-7.318,1.638-7.495,6.082-.158,3.962,2.664,6.3,6.1,7.7a29.143,29.143,0,0,0,4.646,1.169,60.6,60.6,0,0,1,12.815,3.975c9.847,4.644,10.675,14.209,7.795,22.985-3.237,9.863-13.646,14.465-25.172,13.078-10.732-1.291-17.191-7.1-20.3-17.145-1.01-3.258-.843-5.517,3.554-4.949a26.55,26.55,0,0,0,4.988.015c2.524-.152,3.9.472,4.158,3.455.492,5.652,7.861,7.236,12.411,6.718,6.913-.787,9.438-3.084,9.488-8.091.03-3.009-1.114-4.989-3.906-6.622-5.665-3.312-12.233-3.7-18.123-6.306-7.674-3.391-11.4-8.4-10.912-17,.39-6.935,3.452-12.831,11.664-15.448,8.4-2.678,16.264-2.172,23.595,2.523,5.326,3.41,6.6,9.286,7.657,15.073.231,1.272-.444,1.773-1.675,1.749C993.16,73.437,991.495,73.461,989.831,73.465Z"/>
    <path id="Path_85" data-name="Path 85" d="M572.039,73.468c-2.7.5-5.335.376-6.106-4.175-.7-4.115-4.631-4.532-8.071-4.777-3.692-.263-7.159,1.143-8.676,4.355-1.356,2.87-.375,5.78,2.987,7.732,5.548,3.221,11.866,3.822,17.786,5.663,7.247,2.253,10.812,7.233,11.619,13.9.877,7.252-.824,13.9-7.584,18.7-11.242,7.967-26.515,6.294-34.513-3.305-2.7-3.244-4.81-6.829-4.76-11.372.024-2.147.57-3.021,2.78-2.784a15.664,15.664,0,0,0,4.479-.015c3.3-.618,5.012.717,5.774,3.869,1.233,5.1,5.04,6.156,9.69,6.217,5.094.067,9.77-.284,11.825-6.021,1.273-3.553-1.693-8.4-6.4-9.954-4.557-1.506-9.259-2.575-13.812-4.09-13.686-4.553-15.406-18.436-9.182-28.017,3.255-5.012,15.354-8.442,22.353-6.681,7.5,1.887,13.578,5.327,15.845,13.515C579.885,72.777,579.541,73.467,572.039,73.468Z"/>
    <path id="Path_86" data-name="Path 86" d="M853.626,85.61c0-9.312.1-18.625-.058-27.934-.049-2.957.309-4.373,3.9-4.278,10.478.276,20.971.251,31.451.008,3.272-.076,3.759,1.034,3.728,3.935-.088,8.137.047,8.139-7.914,8.139-4.827,0-9.669.238-14.474-.083-3.272-.218-3.764,1-3.743,3.918.065,9.143-.062,9.144,8.908,9.144,3.661,0,7.337.2,10.98-.063,2.794-.2,3.2.946,3.232,3.394.113,8.654.207,8.653-8.388,8.653-3.827,0-7.668.191-11.479-.064-2.781-.186-3.354.915-3.225,3.393a82.9,82.9,0,0,1-.016,10.468c-.208,2.783.918,3.285,3.393,3.226,6.32-.151,12.65.055,18.97-.1,2.57-.064,3.775.262,3.776,3.368,0,8.667.179,8.667-8.405,8.667-8.488,0-16.986-.243-25.46.1-4.375.177-5.363-1.434-5.257-5.458C853.795,104.571,853.626,95.088,853.626,85.61Z" fill="#010101"/>
    <path id="Path_87" data-name="Path 87" d="M791.634,86.339c0-9.645.092-19.292-.057-28.935-.044-2.792.277-4.083,3.653-4,10.647.255,21.3.205,31.954.022,2.945-.051,3.5.94,3.5,3.646,0,8.408.12,8.408-8.143,8.408-5.16,0-10.321.075-15.479-.034-2.291-.049-3.477.16-3.529,3.1-.179,9.916-.339,9.913,9.665,9.913,2.5,0,5.049.334,7.478-.069,5.2-.862,6.036,1.324,6.159,6.124.132,5.185-1.432,6.528-6.3,6.016-4.116-.433-8.325.108-12.47-.148-3.621-.225-4.491,1.285-4.507,4.662-.06,12.372-.166,12.372,12.206,12.372h7.99c6.86,0,6.606.013,6.95,6.626.216,4.139-.583,5.719-5.241,5.491-9.3-.455-18.646-.4-27.952-.021-4.594.19-6.295-.677-6.018-5.743C791.992,104.651,791.634,95.485,791.634,86.339Z"/>
    <path id="Path_88" data-name="Path 88" d="M337.874,92.409c0,7.484-.143,14.973.063,22.452.1,3.465-1.025,4.644-4.56,4.617-8.467-.063-8.469.1-8.469-8.093,0-13.971-.109-27.944.081-41.912.045-3.272-.831-4.421-4.1-4.044-2.3.265-4.7-.252-6.975.113-5.05.81-6.2-1.1-6.219-6.064-.02-5.025,1.244-6.288,6.236-6.116,11.971.413,23.969.255,35.952.054,3.255-.055,4.162.806,4.092,4.076-.17,7.984.008,7.988-8.082,7.988-8.023,0-8.023,0-8.023,7.968Z" fill="#010101"/>
    <path id="Path_89" data-name="Path 89" d="M86.434,477.868a31.794,31.794,0,0,0,4.616-.036c3.126-.522,2.984,1.382,3.045,3.535.064,2.3-.121,3.8-3.1,3.53a37.308,37.308,0,0,0-24.164,5.714c-9.453,6.063-14.225,15.438-16.624,25.84-2.674,11.6-3.1,23.406-2.382,35.423.9,15.09.175,30.273.286,45.416.027,3.665-2.516,2.241-4.146,2.338-1.757.1-3.973.957-3.953-2.545.124-21.632-.5-43.285.286-64.889.43-11.838,2.563-23.709,9.112-34.221s16.039-16.485,27.923-19.121C80.548,478.139,83.751,477.547,86.434,477.868Z"/>
    <path id="Path_90" data-name="Path 90" d="M566.766,562.091c0-10.97-.51-21.97.127-32.9.84-14.42,4.334-28.109,14.946-38.921,9.838-10.023,22.207-12.694,35.665-12.447,3.312.06,1.995,2.282,2.214,3.8.293,2.033.054,3.408-2.734,3.3a43.363,43.363,0,0,0-15.446,1.736c-11.486,3.737-18.385,11.809-22.678,22.364-3.819,9.392-5.121,19.381-5.106,29.529.03,18.949-.025,37.9.046,56.848.01,2.732.1,4.485-3.737,4.456s-3.306-2.061-3.3-4.358Q566.781,578.8,566.766,562.091Z"/>
    <path id="Path_91" data-name="Path 91" d="M617.739,86.93c0,9.643-.1,19.288.062,28.929.046,2.751-.621,3.68-3.52,3.608-11.066-.276-9.455,1.169-9.492-9.067-.064-17.624.065-35.248-.094-52.871-.028-3.212.752-4.175,4.062-4.123,8.979.14,8.982-.03,8.982,9.083Z" fill="#010101"/>
    <path id="Path_92" data-name="Path 92" d="M461.829,86.065c0,9.816-.1,19.633.06,29.446.045,2.828-.333,4.046-3.677,3.991-8.373-.137-8.376.072-8.376-8.215,0-17.8.084-35.6-.077-53.4-.03-3.281.464-4.616,4.2-4.49,7.867.267,7.875.03,7.875,7.716Z"/>
    <path id="Path_93" data-name="Path 93" d="M498.451,88.445h5.494c6.858,0,6.6.014,6.949,6.63.218,4.151-.59,5.9-5.252,5.47a139.589,139.589,0,0,0-16.468-.072c-2.422.064-3.415-.378-3.449-3.187-.105-8.843-.258-8.841,8.731-8.841Z"/>
    <path id="Path_94" data-name="Path 94" d="M922.639,53.613c4.656-.747,5.413.419,4.229,4.974a41.288,41.288,0,0,0-1.289,10.6c.022,1.943.187,3.579-2.7,3.345-2.314-.188-4.616-.108-4.272-3.263.383-3.508-.756-6.792-1.07-10.191C917.164,55.051,917.645,52.02,922.639,53.613Z"/>
  </g>
</svg>
