<svg id="Layer_20" data-name="Layer 20" xmlns="http://www.w3.org/2000/svg" viewBox="0 0 234.61 308"><g id="privacy-policy"><path id="Path_5242" data-name="Path 5242" d="M251.44,70.35,191.29,10.19a9,9,0,0,0-6.38-2.64H52.56A33.12,33.12,0,0,0,19.48,40.63V282.46a33.12,33.12,0,0,0,33.08,33.09H221a33.14,33.14,0,0,0,33.09-33.09V76.73A9.08,9.08,0,0,0,251.44,70.35Zm-57.51-32L223.28,67.7H193.93ZM221,297.5H52.56a15.06,15.06,0,0,1-15-15V40.63a15,15,0,0,1,15-15H175.88V76.73a9,9,0,0,0,9,9H236V282.46A15.06,15.06,0,0,1,221,297.5Z" transform="translate(-19.48 -7.55)"/><path id="Path_5243" data-name="Path 5243" d="M196.94,129.07a29.78,29.78,0,0,1-26.76-16.54L168.91,110a9,9,0,0,0-8.07-5H112.72a9,9,0,0,0-8.07,5l-1.27,2.54a29.78,29.78,0,0,1-26.76,16.54,9,9,0,0,0-9,9v51.49a93.43,93.43,0,0,0,66.59,89.49,9,9,0,0,0,5.18,0A93.42,93.42,0,0,0,206,189.58V138.09a9,9,0,0,0-9-9Zm-9,60.51A74.89,74.89,0,0,1,136.78,261a74.89,74.89,0,0,1-51.13-71.38V146.27a47.65,47.65,0,0,0,32.56-23.22h37.14a47.65,47.65,0,0,0,32.56,23.22Z" transform="translate(-19.48 -7.55)"/><path id="Path_5244" data-name="Path 5244" d="M155.92,168.83l-27.65,27.65-10.63-10.63a9,9,0,1,0-12.91,12.61l.15.15,17,17a9,9,0,0,0,12.76,0h0l34-34A9,9,0,0,0,156,168.72a1.14,1.14,0,0,1-.11.11Z" transform="translate(-19.48 -7.55)"/></g></svg>