<svg id="Layer_21" data-name="Layer 21" xmlns="http://www.w3.org/2000/svg" viewBox="0 0 299.88 308"><g id="settings"><path id="Path_5286" data-name="Path 5286" d="M279.87,169.3V152.42l21.18-18.53a22,22,0,0,0,4.18-28.13l-26-44.12a22.23,22.23,0,0,0-26.14-9.92l-26.81,9a126,126,0,0,0-14.45-8.28l-5.63-27.8A22.07,22.07,0,0,0,184.11,6.92H132.48a22.07,22.07,0,0,0-22.06,17.76l-5.63,27.8a126.64,126.64,0,0,0-14.56,8.28L64,51.26a22,22,0,0,0-7-.65,22.05,22.05,0,0,0-19.08,11l-26,44.12a22.07,22.07,0,0,0,4.52,27.69l20.85,19.09v16.87L16.33,187.94a22.08,22.08,0,0,0-4.52,28.14l26,44.12A22.23,22.23,0,0,0,64,270.12l26.81-9a123.75,123.75,0,0,0,14.45,8.28l5.63,27.8a22.07,22.07,0,0,0,22.06,17.76H185a22.07,22.07,0,0,0,22.06-17.76l5.63-27.8a126,126,0,0,0,14.56-8.28l26.7,9a22.23,22.23,0,0,0,26.14-9.92l25.15-44.12a22,22,0,0,0-4.52-27.69Zm-19.75,79.87-37.84-12.8a97.74,97.74,0,0,1-29.9,17.32l-7.83,39.6H132.49l-7.83-39.17a103.17,103.17,0,0,1-29.79-17.31L56.93,249.17,30.9,205l30-26.47a98.18,98.18,0,0,1,0-34.53l-30-27.25,26-44.12,37.84,12.8a97.74,97.74,0,0,1,29.9-17.32l7.82-39.6h52.07l7.84,39.17A103.45,103.45,0,0,1,222.18,85l37.94-12.35,26,44.12-30,26.48a98.12,98.12,0,0,1,0,34.52l30,27.25Z" transform="translate(-8.64 -6.92)"/><path id="Path_5287" data-name="Path 5287" d="M158.52,227.11a65.53,65.53,0,1,1,47-19.19A66.19,66.19,0,0,1,158.52,227.11Zm0-110.32a43.14,43.14,0,0,0-44.12,42.13c0,.66,0,1.33,0,2A43.12,43.12,0,0,0,156.52,205c.67,0,1.34,0,2,0a43.13,43.13,0,0,0,44.13-42.12c0-.67,0-1.33,0-2a43.15,43.15,0,0,0-42.12-44.13q-1,0-2,0Z" transform="translate(-8.64 -6.92)"/></g></svg>