<svg id="Layer_46" data-name="Layer 46" xmlns="http://www.w3.org/2000/svg" viewBox="0 0 305.25 304.94"><defs><style>.cls-1{fill:#fff;}</style></defs><path class="cls-1" d="M354.39,178.08c-5.73,11-16.13,15.7-26.86,19.78-20.18,7.65-41.33,10.87-62.66,13a439.94,439.94,0,0,1-87.46.07c-23-2.32-45.73-6-67.23-15-5.68-2.37-10.91-5.85-16.34-8.82l.59-1.24c9.54,1.54,19.06,3.3,28.63,4.6,28.2,3.84,56.53,4.51,84.94,3.06,24.9-1.27,49.66-3.8,73.73-10.48,10.78-3,21.25-7.39,31.5-12,8.89-4,14-10.88,12.65-21.41-.48-3.89-.07-7.89-.07-11.72,13.13-2.72,21.77,2,28.58,15.2Z" transform="translate(-49.14 -22.72)"/><path class="cls-1" d="M185.92,327.65c-8.55-.7-17.1-1.32-25.64-2.11-21.85-2-43.44-5.52-64.12-13.09a93.39,93.39,0,0,1-17.71-8.87c-3.62-2.29-6.29-6.05-9.39-9.16l.81-1c8.7,2.23,17.33,4.77,26.1,6.63,35.58,7.54,71.56,9.7,107.85,8.05,27.24-1.24,54.28-4,80.59-11.37a206.6,206.6,0,0,0,27.34-10.36c10-4.42,15.87-11.82,14.08-23.56a22.06,22.06,0,0,1,0-4c0-.29.25-.56.6-1.32,5.06,3.24,8.45,7.35,8.62,13.48.16,5.81.09,11.63,0,17.44-.09,7.31-4.61,11.85-10.16,15.56-11.35,7.59-24.23,11.44-37.33,14.53-21.86,5.17-44.09,7.52-66.51,8.39a31.91,31.91,0,0,0-4.28.73Z" transform="translate(-49.14 -22.72)"/><path class="cls-1" d="M202,98.52c-33.13-.19-66.06-2.46-97.87-12.43A113.74,113.74,0,0,1,77.18,73.61c-11.71-7.49-11.5-17.79-.35-26.17,11.39-8.55,24.81-12.55,38.4-15.69,35.33-8.16,71.19-10.13,107.32-8.51,25.93,1.17,51.65,3.85,76.55,11.51,8.17,2.52,15.88,6.57,23.79,10a14.2,14.2,0,0,1,2.51,1.6c12.86,9,12.88,19.73-.22,28.49C312.85,83.06,298.77,87,284.49,90.26,257.33,96.39,229.75,98.54,202,98.52Z" transform="translate(-49.14 -22.72)"/><path class="cls-1" d="M334.57,218.69c-3.87,3.43-7.37,7.44-11.67,10.19-12.64,8.09-27.06,11.69-41.51,14.71-40.32,8.41-81,9-121.92,5.47-21.21-1.86-42.23-5-62.27-12.44-7.38-2.74-14.36-6.79-21.11-10.92-5.41-3.32-7.89-8.76-7.71-15.29.14-4.82-.41-9.7.18-14.44a23.16,23.16,0,0,1,3.56-10c4-5.72,4.85-5.62,11.74-2.46l-1.65,2.37c-4.67,6.86-4.61,13.08,2,18a95,95,0,0,0,21.55,12c21.15,8.37,43.54,11.63,66,14a468.2,468.2,0,0,0,83.55,1.19c25.87-1.93,51.47-5.41,76.2-13.69a13.06,13.06,0,0,1,1.89-.3Z" transform="translate(-49.14 -22.72)"/><path class="cls-1" d="M315.43,256.67c-3.35,3.22-6.35,7-10.13,9.57-10.26,7.09-22.14,10.43-34.06,13.43-26.71,6.72-53.92,9.06-81.39,9.39-30.79.38-61.42-1.2-91.4-8.5-11.82-2.88-23.36-7.35-34.55-12.2-10-4.34-16.12-12-14.51-24,.49-3.59.09-7.3.08-11,0-6.25,3.37-10.37,9.09-14.31,0,3.6.17,6.36,0,9.09-.52,7.41,2.77,12.73,8.72,16.76,11.17,7.58,23.81,11.64,36.7,14.85,27.49,6.84,55.51,9.62,83.79,10.44,32.63,1,65-1,97.07-7.28,9.9-1.94,19.63-4.71,29.44-7.09Z" transform="translate(-49.14 -22.72)"/><path class="cls-1" d="M315.9,140.49a50.73,50.73,0,0,1-18,14.62,146.59,146.59,0,0,1-55.19,15.69c-24.1,2-48.33,3.83-72.49,3.68-31.4-.2-62.66-3.63-92.45-14.58-7.81-2.87-15-7.51-22.16-12-4.6-2.89-6.41-7.8-6.21-13.4.18-5,.12-10,0-15-.13-6.45,3.15-10.81,9.11-15,0,3.43.2,6,0,8.54-.76,8.28,2.88,14.51,9.88,18,9.13,4.6,18.51,9,28.24,12.05,24.36,7.61,49.62,10.32,75,12a436.52,436.52,0,0,0,97.79-4.08c13.88-2.23,27.5-6,41.24-9.14C312.08,141.64,313.45,141.18,315.9,140.49Z" transform="translate(-49.14 -22.72)"/><path class="cls-1" d="M334.92,93.76c1.28,7.75-1.91,13.64-8.3,18.15-12.33,8.7-26.48,12.87-40.9,16.18-24.83,5.71-50.06,8-75.52,8.43-31.14.54-62-1.36-92.42-8.44a147.91,147.91,0,0,1-40.14-15.72c-7.8-4.46-11.08-10.43-8.8-19,37.07,19,77.38,22.76,118.1,24.27s81.27-1.48,120.66-13.1C316.87,101.75,325.68,97.44,334.92,93.76Z" transform="translate(-49.14 -22.72)"/></svg>