<svg id="About_App" data-name="About App" xmlns="http://www.w3.org/2000/svg" viewBox="0 0 307.38 307.53"><defs><style>.cls-1{fill:#fdfbfb;}.cls-2{fill:#af1d22;}.cls-3{fill:#b01d22;}</style></defs><path class="cls-1" d="M281.37,312c3.95-.77,7.9-1.52,11.85-2.33a90.65,90.65,0,0,0,26.5-9.92,7.34,7.34,0,0,1,6.14-.76c14.49,4.1,29,8.1,43.51,12.13.37.1.74.16,1.56.34l-5.18-18.86c-2.52-9.13-5.08-18.25-7.52-27.4a4.91,4.91,0,0,1,.19-3.33,102.11,102.11,0,0,0,12.33-37.26,5.72,5.72,0,0,1,.68-1.47V312Z" transform="translate(-64.04 -4.43)"/><path class="cls-2" d="M64.46,238.89l9.44-34.18c1.94-7,3.94-14,5.75-21.09a5.75,5.75,0,0,0-.46-3.85c-10.56-19-16-39.26-15-60.91,2.15-45.21,23-79.65,63-100.7,62.86-33.11,138.16-4,164,62.22,21.34,54.72-2.91,118.88-55.64,145.58-37.35,18.91-74.82,17.94-111.7-1.86-2-1.08-3.59-.63-5.37-.14C100.62,228.87,82.83,233.8,64.46,238.89Zm126-89.74c0-4.06-.14-7.85.08-11.63a6.22,6.22,0,0,1,1.66-3.81c4.6-4.44,9.47-8.61,14.08-13a36,36,0,1,0-57.78-40.53,30.15,30.15,0,0,0-2.91,14.35h17.75c.12-.89.22-1.66.32-2.44a18,18,0,0,1,34.1-5,17.67,17.67,0,0,1-3.61,20.2c-6.48,6.24-13.23,12.2-19.82,18.33-.76.71-1.8,1.68-1.82,2.55-.15,7-.08,14-.08,21Zm-.19,36.06V167.46H172.56v17.75Z" transform="translate(-64.04 -4.43)"/><path class="cls-3" d="M358.23,265.16a4.91,4.91,0,0,1,.19-3.33A100.85,100.85,0,0,0,369,234.58c2.9-17,2.27-29.87,1.15-37.92q-6-35.67-33.73-59.75A87.12,87.12,0,0,0,316.86,124c-1.27,36.52-14.17,67.88-39.84,93.56s-57.12,38.63-93.54,39.85c.37.82.54,1.28.77,1.71,14.48,26.07,36,42.83,64.81,50.07a107.73,107.73,0,0,0,48.52-.57,90.85,90.85,0,0,0,22.14-8.9,7.34,7.34,0,0,1,6.14-.76c14.49,4.1,29,8.1,43.51,12.13.37.1.74.16,1.56.34l-5.18-18.86C363.23,283.43,360.67,274.31,358.23,265.16Z" transform="translate(-64.04 -4.43)"/></svg>