<svg id="Layer_29" data-name="Layer 29" xmlns="http://www.w3.org/2000/svg" viewBox="0 0 305.35 305.21"><defs><style>.cls-1{fill:#b01f24;}.cls-2{fill:#b02025;}.cls-3{fill:#b3292d;}.cls-4{fill:#b63035;}</style></defs><path class="cls-1" d="M30.62,136.63c0-32.45.11-64.91-.06-97.36-.06-12,5.49-20.34,15.65-25.83A19.5,19.5,0,0,1,55,11.1c32.33-.17,64.67-.36,97,.05,9.37.11,16.66,5.49,20.9,13.89,2,3.9,2.9,8.45,3.64,12.81C177.68,44.52,178.2,51.28,179,58q2.4,19.43,4.87,38.85t4.89,38.84q2.69,21.54,5.29,43.08c2.31,19.08,4.56,38.17,6.86,57.26.68,5.65,1.75,11.26,2.13,16.93.43,6.43-3.18,9.86-9.56,9.86q-66.87,0-133.73,0c-9.81,0-18.12-3.31-24-11.53a27.29,27.29,0,0,1-5.18-16.58C30.68,202,30.62,169.31,30.62,136.63ZM75.21,171.9c-.17,5.52,3.1,9.27,8,10,3.92.58,8.86-2.32,9.74-6.19,1.47-6.47,2.54-13,3.86-19.53a43.41,43.41,0,0,1,2-7.53,4.14,4.14,0,0,1,3-2.23c6.42-.19,12.84-.06,19.25-.08,2,0,2.9.88,3.31,2.89,1.74,8.59,3.66,17.14,5.49,25.71a8.52,8.52,0,0,0,10.7,6.7,9.33,9.33,0,0,0,7-11.06c-2.57-11.67-4.94-23.39-7.34-35.11-1.83-8.93-3.58-17.89-5.35-26.83-1.54-7.78-3.39-15.52-4.49-23.35-.92-6.56-4.41-10.51-11.06-10.69-5.22-.15-10.45-.08-15.68,0-4.37,0-8,1.72-9.81,5.84-.8,1.78-.74,3.94-1.15,5.91-2.41,11.71-4.87,23.41-7.27,35.13-1.86,9-3.64,18.09-5.46,27.14C78.29,156.62,76.67,164.62,75.21,171.9Z" transform="translate(-30.56 -10.91)"/><path class="cls-2" d="M175.7,315.79c3.35-3.87,6.18-7.17,9.05-10.43,9.09-10.35,17.89-21,27.37-30.95s9.79-21.23,8-33.52c-1.91-13-3.55-26.1-5.22-39.17-1.76-13.77-3.42-27.55-5.12-41.33q-2.88-23.31-5.74-46.63Q201.23,91,198.4,68.18c-.28-2.2.63-3.07,2.75-3.06,3.8,0,7.61,0,11.41,0,30.92,0,61.83.14,92.75-.07,12.27-.09,21.78,4.19,27.52,15.29a22.76,22.76,0,0,1,2.79,9.34c.36,11,.2,22.11.2,33.17,0,55-.12,110.1.09,165.15,0,12.14-5.7,20.2-15.67,25.79a18.1,18.1,0,0,1-8.45,2.16q-66.36.24-132.7.15C178.28,316.12,177.47,316,175.7,315.79ZM280.4,140.61c1.67,5.39,6.77,9.65,11.32,9.63,2.33,0,3.22.84,3.18,3.12-.07,4.52.13,9-.1,13.55a6,6,0,0,1-1.92,3.87c-3.32,2.86-6.85,5.47-10.38,8.07-1.51,1.12-3.12,3.36-5.19,1.28-1.85-1.86-4.53-3.65-1.91-7.16,1.17-1.57,1.38-4,1.6-6.1.75-7.25-2.79-12.92-7.55-17.73-8.27-8.36-16.59-11.1-27.55-5.11-6.9,3.78-7.15,5.28-1.86,10.75.57.59,1.24,1.11,1.8,1.71,1.5,1.61,2.73,1.37,4.62.21a70.23,70.23,0,0,1,11.91-6.06c4.26-1.6,8.44,1.94,8.83,6.39.65,7.28-3.61,11.46-9.06,14.79-5.61,3.44-5.71,3.28-.7,8a5.9,5.9,0,0,1,.75.75c2.24,2.93,4.45,3.58,7.78,1.1s5.92-2.08,6.81.5c1.76,5.14,2.37,10.45-.45,15.48-5.26,9.41-15.95,12-24.56,5.56-5.1-3.81-9.6-8.42-14.33-12.73-1.38-1.26-2.92-2.77-4.45-.94-.59.7,0,3.22.83,4.11a170,170,0,0,0,14.65,14c6.3,5.08,13.26,9.35,21.87,8.81,2.37-.15,4.69-1.28,7-2,4.36-1.31,9.42-7.25,9.62-11.83.29-6.72,3.38-11.57,9-15.08,2-1.24,2.89-.73,2.94,1.47a58.05,58.05,0,0,1-.08,8.55c-.77,6.14.71,11.21,6,14.87,1.44,1,2.77,2.15,4.68,3.65.15-1.73.26-2.41.26-3.1,0-19.73.07-39.46-.1-59.2,0-3,1-3.69,3.65-3.57,3.56.17,7.13.1,10.7.06,1.08,0,2.16-.26,4.38-.54-3-2.71-5.28-4.5-7.18-6.65a7.88,7.88,0,0,0-6.57-2.77c-8.8.12-17.59,0-26.39,0C283.06,140.41,281.91,140.53,280.4,140.61Z" transform="translate(-30.56 -10.91)"/><path class="cls-3" d="M181,281.86q-6.53,7.22-13.05,14.41c-4.48,4.93-9.05,9.76-13.43,14.76-1.92,2.19-3.76,2.15-5.91.64-7.32-5.12-11.61-12-12.43-21-.16-1.77-.24-3.55-.41-5.33-.43-4.63-.44-4.64,4.37-4.64q18.54,0,37.09,0c1.13,0,2.26.13,3.39.2Z" transform="translate(-30.56 -10.91)"/><path class="cls-4" d="M111.44,128.48a48.84,48.84,0,0,0-5,0c-3.32.35-4.3-1.15-3.65-4.2q2.39-11.28,4.74-22.58a44.06,44.06,0,0,1,1.08-5.56A17.64,17.64,0,0,1,111,92.49c1.14,1.18,2.9,2.17,3.3,3.56,1.06,3.73,1.51,7.63,2.27,11.45,1.2,5.92,2.44,11.83,3.68,17.74.43,2-.12,3.27-2.42,3.24C115.72,128.46,113.58,128.48,111.44,128.48Z" transform="translate(-30.56 -10.91)"/></svg>