<svg id="Layer_30" data-name="Layer 30" xmlns="http://www.w3.org/2000/svg" viewBox="0 0 230.64 307.26"><defs><style>.cls-1{fill:#b01e23;}.cls-2{fill:#b01f24;}.cls-3{fill:#b22328;}.cls-4{fill:#b02025;}.cls-5{fill:#b2262a;}.cls-6{fill:#af1d22;}.cls-7{fill:#b2252a;}.cls-8{fill:#b3272c;}.cls-9{fill:#b12126;}</style></defs><path class="cls-1" d="M292.06,7.13a7.76,7.76,0,0,1,3.66,6.94q-.11,129.63-.06,259.24v2.5H98.31V51h25.88c2.1,0,4.2,0,6.3,0,6.93-.07,11.48-4.55,11.51-11.45.05-10.8,0-21.6,0-32.4Zm-62.3,219.53c0,5.06,0,9.66,0,14.25,0,5.88,1.66,7.57,7.42,7.57h39.89c6,0,7.67-1.62,7.67-7.62q0-80.07,0-160.15c0-6-1.61-7.68-7.6-7.68H116.65c-6,0-7.6,1.61-7.6,7.66v138c0,6.37,1.63,8,8,8H229.76ZM169.62,39.86h54.47V29.33H169.62Zm43.57,22V51.17H180.58V61.82ZM114.52,253.76h32.77v-10.6H114.52v10.6Z" transform="translate(-65.08 -7.13)"/><path class="cls-2" d="M273.29,286.88c0,5.1.63,10.07-.15,14.81-1.23,7.53-8.15,12.65-16.05,12.67-15.7.06-31.41,0-47.11,0H83.65c-11.94,0-18.46-6.57-18.46-18.59q0-124.22-.11-248.42c0-10.15,7.09-18.92,18.28-18.29,5.65.32,11.34.06,17.88.06C97.37,33,94.15,36.5,90.66,39.68a10.47,10.47,0,0,0-3.53,8.45q.11,113,.06,225.92c0,6.75,2.49,10.86,7.75,12.34a20.13,20.13,0,0,0,5.33.47q84.78,0,169.54,0Z" transform="translate(-65.08 -7.13)"/><path class="cls-3" d="M131,16.08V39.87H107.23Z" transform="translate(-65.08 -7.13)"/><path class="cls-4" d="M120.18,105.6V84.16h153.3V105.6Z" transform="translate(-65.08 -7.13)"/><path class="cls-5" d="M153.07,149.66V139h76.56v10.71Z" transform="translate(-65.08 -7.13)"/><path class="cls-6" d="M229.62,117.05v10.6H153.09v-10.6Z" transform="translate(-65.08 -7.13)"/><path class="cls-6" d="M153.1,171.5V160.91h76.51V171.5Z" transform="translate(-65.08 -7.13)"/><path class="cls-2" d="M229.61,182.9v10.67H153.18V182.9Z" transform="translate(-65.08 -7.13)"/><path class="cls-2" d="M153.1,215.4V204.78h76.51V215.4Z" transform="translate(-65.08 -7.13)"/><path class="cls-7" d="M273.56,138.92V149.7H241V138.92Z" transform="translate(-65.08 -7.13)"/><path class="cls-6" d="M240.94,127.57V117.08h32.49v10.49Z" transform="translate(-65.08 -7.13)"/><path class="cls-6" d="M240.93,171.43v-10.5h32.63v10.5Z" transform="translate(-65.08 -7.13)"/><path class="cls-2" d="M241.08,182.9h32.4v10.61h-32.4Z" transform="translate(-65.08 -7.13)"/><path class="cls-2" d="M240.94,215.33V204.79h32.5v10.54Z" transform="translate(-65.08 -7.13)"/><path class="cls-6" d="M273.56,226.88V237.4H241.05V226.88Z" transform="translate(-65.08 -7.13)"/><path class="cls-8" d="M120.11,149.66V139h21.68v10.65Z" transform="translate(-65.08 -7.13)"/><path class="cls-2" d="M120.19,127.65v-10.6h21.68v10.6Z" transform="translate(-65.08 -7.13)"/><path class="cls-2" d="M141.93,161v10.52H120.22V161Z" transform="translate(-65.08 -7.13)"/><path class="cls-9" d="M120.19,193.53V182.88h21.68v10.65Z" transform="translate(-65.08 -7.13)"/><path class="cls-9" d="M120.2,215.39V204.75h21.67v10.64Z" transform="translate(-65.08 -7.13)"/></svg>