<svg id="Layer_1" data-name="Layer 1" xmlns="http://www.w3.org/2000/svg" viewBox="0 0 331.04 306.9"><defs><style>.cls-1{fill:#b01f24;}.cls-2{fill:#b12126;}</style></defs><path class="cls-1" d="M141.4,233.44v6.24c0,24.18-.09,48.36.09,72.54,0,4.11-1,5.44-5.27,5.38-16.34-.24-32.68-.08-49-.1-19.14,0-34.36-14.35-34.63-33.46-.37-26.51-.23-53,.06-79.54a13.9,13.9,0,0,1,3.83-8.76Q110.85,141.2,165.61,87c4.62-4.59,9-4.15,14.29,1.06q42.57,42.33,85.11,84.67c7.45,7.41,15.18,14.56,22.26,22.29,2.36,2.58,4.38,6.61,4.43,10,.33,26,.43,52,0,78-.34,20.63-15,34.41-35.61,34.42-15.67,0-31.35-.2-47,.12-5,.1-6.05-1.59-6-6.25.22-24,0-48,.2-72,0-4.43-.86-6.09-5.7-6-17,.3-34,.12-51,.12Z" transform="translate(-6.87 -10.72)"/><path class="cls-2" d="M244.21,61c0-7.17-.06-12.79,0-18.41.13-11.45,8-19.86,18.57-20s19.22,8.38,19.35,20c.2,17.17.16,34.35,0,51.52a11,11,0,0,0,3.63,8.74Q308.53,125.26,331,148c10.84,11,8.61,25.44-4.67,31.82-7.3,3.5-15.23,1.77-22.24-5.17q-22.39-22.17-44.63-44.49L182.63,53.54c-7.76-7.74-13.08-7.74-20.86,0Q102.3,112.93,42.83,172.29a47.68,47.68,0,0,1-6.8,5.84,18.21,18.21,0,0,1-24.44-2.94,19,19,0,0,1-.56-24.4c3.27-4,7.09-7.5,10.75-11.14C60.07,101.54,98.69,63.77,136.53,25.23,155,6.46,188.73,5.5,207.15,24.71c10.61,11.06,21.75,21.62,32.67,32.39C240.85,58.12,242,59,244.21,61Z" transform="translate(-6.87 -10.72)"/></svg>