<svg id="Layer_23" data-name="Layer 23" xmlns="http://www.w3.org/2000/svg" viewBox="0 0 308.1 308"><g id="review"><g id="Path_5219" data-name="Path 5219"><path id="Path_5276" data-name="Path 5276" d="M298.22,11.06H239.34a4.43,4.43,0,1,0,0,8.86h58.88a4.44,4.44,0,0,1,4.44,4.43v89.32a4.45,4.45,0,0,1-4.44,4.43H176.14v-2.18a15.7,15.7,0,0,0-31.4,0v2.18H99.55a4.43,4.43,0,0,0,0,8.86h45.2v78.21L134.2,193.3a34.34,34.34,0,0,0-25.6-11.48,10.24,10.24,0,0,0-9,15.1l17.67,32.47A87.7,87.7,0,0,0,133.89,251L152.72,269v9.5a10.14,10.14,0,0,0-8.07,9.89v14.74a10.14,10.14,0,0,0,10.15,10.15h70a10.15,10.15,0,0,0,10.15-10.15h0V288.45a10.15,10.15,0,0,0-7.77-9.89v-9.9a95.91,95.91,0,0,0,16.56-59.75V181.85a15.7,15.7,0,0,0-23.63-13.54,15.7,15.7,0,0,0-20.4-8.77,16.58,16.58,0,0,0-2.12,1,15.68,15.68,0,0,0-20.37-8.78h0c-.35.14-.7.29-1,.46V127H298.22a13.33,13.33,0,0,0,13.32-13.31V24.37a13.31,13.31,0,0,0-13.32-13.31ZM183,159.55a6.82,6.82,0,0,1,6.82,6.82h0v7.74a4.44,4.44,0,1,0,8.87,0h0v0a6.83,6.83,0,1,1,13.65,0v7.74a4.44,4.44,0,1,0,8.88,0h0a6.83,6.83,0,0,1,13.66,0v27.06A84.45,84.45,0,0,1,219.47,264a4.42,4.42,0,0,0-1.22,3.05v11.2H207.52a4.43,4.43,0,0,0,0,8.86h17.23a1.27,1.27,0,0,1,1.27,1.27v14.74a1.27,1.27,0,0,1-1.27,1.27h-70a1.26,1.26,0,0,1-1.26-1.27h0V288.45a1.26,1.26,0,0,1,1.26-1.27h35a4.43,4.43,0,0,0,0-8.86H161.6v-11.2a4.4,4.4,0,0,0-1.38-3.2L140,244.68a79.14,79.14,0,0,1-14.94-19.47l-17.66-32.47c-.42-1.12,0-1.82,1.18-2a25.47,25.47,0,0,1,19,8.51l18.13,20.3a4.57,4.57,0,0,0,6.45.24,4.62,4.62,0,0,0,1.46-3.19V115.92a6.83,6.83,0,1,1,13.65,0v50.45a4.43,4.43,0,1,0,8.86,0v0a6.82,6.82,0,0,1,6.83-6.82Z" transform="translate(-6.35 -8.15)"/><path id="Path_5277" data-name="Path 5277" d="M224.76,316.15h-70a13.07,13.07,0,0,1-13-13.06V288.35a13.15,13.15,0,0,1,8.07-12v-6.12l-17.93-17.07a90.4,90.4,0,0,1-17.15-22.36L97.06,198.31a13.14,13.14,0,0,1,11.53-19.39,37.33,37.33,0,0,1,27.78,12.44l5.47,6.16V129.87H99.55a7.34,7.34,0,0,1,0-14.68h42.3a18.61,18.61,0,0,1,37.19,0H298.22a1.52,1.52,0,0,0,1.52-1.52V24.35a1.52,1.52,0,0,0-1.52-1.52H239.34a7.34,7.34,0,0,1,0-14.68h58.88a16.25,16.25,0,0,1,16.23,16.22v89.3a16.28,16.28,0,0,1-16.23,16.22H179.05v18.3a18.66,18.66,0,0,1,19.83,8.54,18.62,18.62,0,0,1,22.51,7.73,18.65,18.65,0,0,1,6.61-1.21h0a18.58,18.58,0,0,1,18.6,18.58h0v27.07A99.05,99.05,0,0,1,230,269.55v6.92a13,13,0,0,1,7.78,12v14.63A13.08,13.08,0,0,1,224.76,316.15ZM108.59,184.73a7.33,7.33,0,0,0-6.42,10.81L119.84,228a84.71,84.71,0,0,0,16,20.93l19.74,18.78v13.11l-2.32.48a7.29,7.29,0,0,0-5.76,7.06v14.73a7.24,7.24,0,0,0,7.24,7.24h70a7.25,7.25,0,0,0,7.24-7.24V288.45a7.22,7.22,0,0,0-5.55-7.07l-2.23-.53V267.76l.51-.74a93.4,93.4,0,0,0,16.06-57.94V181.85A12.78,12.78,0,0,0,228,169.07h0a12.76,12.76,0,0,0-6.46,1.75l-2.92,1.71-1.25-3.14a12.73,12.73,0,0,0-18.34-6.3l-2.93,1.72-1.25-3.16a12.8,12.8,0,0,0-16.6-7.15c-.28.11-.56.23-.83.36l-4.18,2V124.07h125a10.45,10.45,0,0,0,10.41-10.41V24.37A10.43,10.43,0,0,0,298.22,14H239.34a1.53,1.53,0,1,0,0,3.05h58.88a7.36,7.36,0,0,1,7.34,7.34v89.31a7.34,7.34,0,0,1-7.34,7.34h-125v-5.08a12.8,12.8,0,0,0-25.59,0V121H99.55a1.53,1.53,0,0,0,0,3h48.1v88.77L132,195.23A31.47,31.47,0,0,0,108.59,184.73ZM224.76,307.3h-70a4.17,4.17,0,0,1-4.17-4.17V288.45a4.17,4.17,0,0,1,4.17-4.17h35a1.53,1.53,0,0,0,0-3H158.69V267.12a1.5,1.5,0,0,0-.47-1.09L138,246.79a81.74,81.74,0,0,1-15.48-20.18l-17.84-32.85a4.17,4.17,0,0,1,2.08-5.52,4.55,4.55,0,0,1,1.44-.36l.39,0a28.4,28.4,0,0,1,21.16,9.48l18.13,20.3a1.67,1.67,0,0,0,2.84-1.12V115.92a9.73,9.73,0,1,1,19.46,0v50.45a1.53,1.53,0,0,0,1.52,1.54h0a1.53,1.53,0,0,0,1.52-1.52,9.74,9.74,0,0,1,19.47,0h0v7.74a1.53,1.53,0,0,0,1.51,1.54h0a1.53,1.53,0,0,0,1.52-1.53,9.74,9.74,0,1,1,19.47,0h0v7.74a1.54,1.54,0,1,0,3.07.07v-.07a9.73,9.73,0,1,1,19.46,0h0v27.06a87.38,87.38,0,0,1-15.9,56.79l-.27.32a1.47,1.47,0,0,0-.42,1.05v14.1H207.52A1.54,1.54,0,0,0,206,282.7a1.52,1.52,0,0,0,1.53,1.52h17.23a4.18,4.18,0,0,1,4.17,4.18v14.74A4.17,4.17,0,0,1,224.76,307.3Zm-68.32-5.81h66.67V290H207.52a7.34,7.34,0,0,1,0-14.68h7.82v-8.29a7.32,7.32,0,0,1,1.87-4.88A81.75,81.75,0,0,0,232,209.13V181.85a3.92,3.92,0,1,0-7.84,0,7.35,7.35,0,0,1-14.7,0h0v-7.74a3.92,3.92,0,0,0-7.84,0,7.35,7.35,0,0,1-7.34,7.35h0a7.34,7.34,0,0,1-7.32-7.36v-7.73a3.92,3.92,0,1,0-7.84,0,7.37,7.37,0,0,1-7.34,7.36h0a7.35,7.35,0,0,1-7.32-7.37V115.92a3.92,3.92,0,0,0-7.83,0V216.63a7.49,7.49,0,0,1-13,4.93l-18.16-20.35a22.66,22.66,0,0,0-14.11-7.37l16.32,30A75.86,75.86,0,0,0,142,242.57l20.2,19.24a7.36,7.36,0,0,1,2.29,5.3v8.3h25.27a7.34,7.34,0,0,1,0,14.68H156.44Z" transform="translate(-6.35 -8.15)"/></g><g id="Path_5220" data-name="Path 5220"><path id="Path_5278" data-name="Path 5278" d="M81.83,118.1H22.57a4.43,4.43,0,0,1-4.43-4.43V24.37a4.43,4.43,0,0,1,4.41-4.45H221.61a4.43,4.43,0,0,0,0-8.86h-199A13.32,13.32,0,0,0,9.25,24.37h0v89.3A13.31,13.31,0,0,0,22.57,127H81.83a4.43,4.43,0,1,0,0-8.86h0Z" transform="translate(-6.35 -8.15)"/><path id="Path_5279" data-name="Path 5279" d="M81.83,129.89H22.57A16.24,16.24,0,0,1,6.35,113.67V24.37A16.24,16.24,0,0,1,22.57,8.15h199a7.34,7.34,0,0,1,0,14.68h-199a1.52,1.52,0,0,0-1.52,1.52h0v89.31a1.52,1.52,0,0,0,1.52,1.52H84.73v.62a7.34,7.34,0,0,1-2.9,14.08ZM22.57,14A10.43,10.43,0,0,0,12.16,24.37v89.3a10.42,10.42,0,0,0,10.41,10.4H81.83a1.53,1.53,0,1,0,0-3l-59.26,0a7.34,7.34,0,0,1-7.34-7.33V24.37A7.35,7.35,0,0,1,22.53,17H221.61a1.53,1.53,0,1,0,0-3.05Z" transform="translate(-6.35 -8.15)"/></g><g id="Path_5221" data-name="Path 5221"><path id="Path_5280" data-name="Path 5280" d="M189.6,65.68a9.49,9.49,0,0,0-5.26-16.18L174,48a.61.61,0,0,1-.47-.34L168.9,38.3a9.5,9.5,0,0,0-17,0l-4.63,9.36a.61.61,0,0,1-.48.34l-10.32,1.5a9.5,9.5,0,0,0-8,10.79,9.41,9.41,0,0,0,2.75,5.39L138.65,73a.6.6,0,0,1,.18.55l-1.76,10.29a9.51,9.51,0,0,0,13.85,10L160.16,89a.64.64,0,0,1,.57,0L170,93.82a9.51,9.51,0,0,0,13.85-10l-1.76-10.29a.6.6,0,0,1,.18-.55Zm-13.67.93A9.5,9.5,0,0,0,173.2,75L175,85.31a.62.62,0,0,1-.48.73h0a.59.59,0,0,1-.43-.08l-9.24-4.86a9.47,9.47,0,0,0-8.84,0L146.73,86a.61.61,0,0,1-.84-.21.57.57,0,0,1-.07-.44L147.58,75a9.53,9.53,0,0,0-2.73-8.41l-7.48-7.28a.61.61,0,0,1,.34-1.07L148,56.76a9.5,9.5,0,0,0,7.15-5.2l4.63-9.35a.61.61,0,0,1,.81-.3h0a.58.58,0,0,1,.29.29l4.63,9.35a9.47,9.47,0,0,0,7.14,5.2L183,58.26a.61.61,0,0,1,.54.68.59.59,0,0,1-.2.39Z" transform="translate(-6.35 -8.15)"/><path id="Path_5281" data-name="Path 5281" d="M174.45,97.86a12.33,12.33,0,0,1-5.85-1.48l-8.16-4.29-8.17,4.3A12.4,12.4,0,0,1,134.2,83.31l1.56-9.1-6.62-6.44A12.4,12.4,0,0,1,136,46.62l9.15-1.33,4.1-8.28a12.4,12.4,0,0,1,22.24,0l4.1,8.28,9.15,1.33a12.4,12.4,0,0,1,6.89,21.13l-6.52,6.45,1.56,9.12a12.41,12.41,0,0,1-10.09,14.36,12.79,12.79,0,0,1-2.14.18ZM160.45,86a3.42,3.42,0,0,1,1.63.4l9.24,4.87A6.59,6.59,0,0,0,181,84.32L179.19,74a3.5,3.5,0,0,1,1-3.14l7.34-7.27a6.59,6.59,0,0,0,.11-9.31h0a6.7,6.7,0,0,0-3.75-1.91l-10.33-1.5A3.46,3.46,0,0,1,170.92,49l-4.63-9.35a6.58,6.58,0,0,0-11.82,0L149.84,49a3.51,3.51,0,0,1-2.76,1.93l-10.23,1.5a6.58,6.58,0,0,0-3.65,11.22l7.48,7.28a3.51,3.51,0,0,1,1,3.19l-1.76,10.23a6.6,6.6,0,0,0,9.61,7l9.26-4.88a3.58,3.58,0,0,1,1.66-.41ZM136.62,75v0ZM184.33,75l-.05.05ZM136,73v0Zm49,0v0ZM144.63,46.37h0Zm31.5,0h0Zm-29.79-1.24-.13,0Zm28,0,.16,0ZM146.44,89a3.57,3.57,0,0,1-.92-.12A3.52,3.52,0,0,1,143,84.71l1.74-10.18a6.55,6.55,0,0,0-1.9-5.83l-7.48-7.28a3.4,3.4,0,0,1-1.08-2.33,3.52,3.52,0,0,1,.87-2.54,3.58,3.58,0,0,1,2.25-1.18l10.24-1.48a6.61,6.61,0,0,0,4.95-3.62l4.63-9.36a3.53,3.53,0,0,1,4.66-1.63A3.56,3.56,0,0,1,163.54,41l4.6,9.3a6.59,6.59,0,0,0,5,3.62l10.33,1.5a3.51,3.51,0,0,1,1.83,6.13L178,68.7a6.57,6.57,0,0,0-1.89,5.83l1.76,10.29a3.52,3.52,0,0,1-5.25,3.65l-9.12-4.8a6.6,6.6,0,0,0-6.14,0l-9.24,4.87A3.2,3.2,0,0,1,146.44,89Zm25.65-3.21a.77.77,0,0,0,0,.15Zm-23.39-.08,0,.13a.59.59,0,0,0,0-.13Zm-3.26-2.31-.18.09Zm29.82,0,.14.07-.13-.07ZM142.7,60.47l4.17,4.06a12.39,12.39,0,0,1,3.57,11l-1,5.73,5.15-2.72a12.41,12.41,0,0,1,11.55,0l5.15,2.72-1-5.73a12.4,12.4,0,0,1,3.56-11L178,60.47l-5.77-.84a12.39,12.39,0,0,1-9.33-6.79l-2.57-5.2-2.58,5.21a12.39,12.39,0,0,1-9.33,6.79Zm39.85.66.12,0Zm-44.32,0-.11,0h.11Zm43.08-3.87a.49.49,0,0,0-.12.13Zm-42-.11.18.17-.18-.16Zm19-13.66,0,.09Zm4.13,0,0,.07,0-.07Z" transform="translate(-6.35 -8.15)"/></g><g id="Path_5222" data-name="Path 5222"><path id="Path_5282" data-name="Path 5282" d="M95.24,83.81,93.48,73.52a.6.6,0,0,1,.18-.55l7.48-7.28A9.5,9.5,0,0,0,95.88,49.5L85.55,48a.61.61,0,0,1-.48-.34L80.45,38.3a9.5,9.5,0,0,0-17,0l-4.63,9.36a.61.61,0,0,1-.47.34L48,49.5a9.5,9.5,0,0,0-5.27,16.19L50.19,73a.6.6,0,0,1,.18.55L48.61,83.81a9.5,9.5,0,0,0,13.85,10L71.7,89a.64.64,0,0,1,.57,0l9.24,4.87a9.51,9.51,0,0,0,13.86-10Zm-7.77-17.2A9.51,9.51,0,0,0,84.73,75L86.5,85.31A.63.63,0,0,1,86,86a.59.59,0,0,1-.43-.08L76.35,81.1a9.49,9.49,0,0,0-8.85,0L58.26,86a.61.61,0,0,1-.84-.21h0a.68.68,0,0,1-.07-.44L59.11,75a9.5,9.5,0,0,0-2.73-8.41L48.9,59.33a.6.6,0,0,1,0-.86.64.64,0,0,1,.39-.2l10.33-1.5a9.49,9.49,0,0,0,7.14-5.2l4.63-9.36a.61.61,0,0,1,.81-.29h0a.63.63,0,0,1,.29.29l4.63,9.36a9.49,9.49,0,0,0,7.14,5.2l10.33,1.5a.62.62,0,0,1,.54.68.61.61,0,0,1-.21.39Z" transform="translate(-6.35 -8.15)"/><path id="Path_5283" data-name="Path 5283" d="M58,97.86a11.94,11.94,0,0,1-2.15-.19A12.42,12.42,0,0,1,45.74,83.31l1.56-9.1-6.62-6.44a12.41,12.41,0,0,1,6.87-21.15h0l9.16-1.33L60.8,37a12.4,12.4,0,0,1,22.25,0l4.1,8.27,9.15,1.33a12.41,12.41,0,0,1,6.88,21.14l-6.63,6.45,1.68,9.1A12.41,12.41,0,0,1,80.14,96.38L72,92.09l-8.18,4.3A12.32,12.32,0,0,1,58,97.86ZM71.91,35.91A6.59,6.59,0,0,0,66,39.59L61.38,49a3.54,3.54,0,0,1-2.76,1.94L48.39,52.38a6.59,6.59,0,0,0-3.65,11.23l7.48,7.27a3.51,3.51,0,0,1,1,3.19L51.47,84.3a6.59,6.59,0,0,0,9.6,7l9.27-4.88a3.54,3.54,0,0,1,3.26,0l9.26,4.88a6.6,6.6,0,0,0,9.73-6l-.22-1L90.61,74a3.48,3.48,0,0,1,1-3.14L99.1,63.6a6.59,6.59,0,0,0,.11-9.31h0a6.58,6.58,0,0,0-3.75-1.91L85.13,50.87a3.47,3.47,0,0,1-2.67-1.93l-4.63-9.35a6.6,6.6,0,0,0-5.92-3.68ZM48.16,75l0,0Zm47.55,0,0,0ZM47.5,73v0ZM96.34,73v.1s0-.07,0-.1ZM56.18,46.37h0Zm31.5,0h0Zm-29.8-1.24-.12,0Zm28,0,.16,0-.16,0ZM58,89a3.56,3.56,0,0,1-3.56-3.53,3.82,3.82,0,0,1,.06-.68l1.76-10.23a6.64,6.64,0,0,0-1.9-5.84l-7.48-7.28a3.49,3.49,0,0,1-.21-4.86,3.58,3.58,0,0,1,2.25-1.18l10.23-1.49a6.57,6.57,0,0,0,5-3.61l4.63-9.36a3.51,3.51,0,0,1,4.66-1.63A3.56,3.56,0,0,1,75.08,41l4.6,9.3a6.58,6.58,0,0,0,4.95,3.61L95,55.38a3.52,3.52,0,0,1,1.83,6.14l-7.3,7.17a6.59,6.59,0,0,0-1.89,5.83l1.76,10.3a3.44,3.44,0,0,1-.53,2.55,3.52,3.52,0,0,1-4.72,1.1L75,83.67a6.6,6.6,0,0,0-6.14,0l-9.24,4.86A3.18,3.18,0,0,1,58,89Zm25.63-3.23,0,.15Zm-23.39,0v0ZM57,83.36l-.17.09Zm29.84,0,.13.07-.13-.07ZM54.24,60.47l4.17,4.06a12.38,12.38,0,0,1,3.57,11l-1,5.73,5.15-2.72a12.41,12.41,0,0,1,11.55,0l5.15,2.72-1-5.73a12.4,12.4,0,0,1,3.56-11l4.14-4.07-5.77-.84a12.39,12.39,0,0,1-9.33-6.79l-2.57-5.2-2.58,5.21A12.39,12.39,0,0,1,60,59.64Zm39.85.66.12,0Zm-44.32,0-.11,0h.11Zm43.08-3.87-.13.13Zm-42-.1.14.15-.14-.14Zm19-13.66,0,.08ZM74,43.44l0,.07a.16.16,0,0,0,0-.07Z" transform="translate(-6.35 -8.15)"/></g><g id="Path_5223" data-name="Path 5223"><path id="Path_5284" data-name="Path 5284" d="M278.06,65.68A9.5,9.5,0,0,0,272.8,49.5L262.47,48a.63.63,0,0,1-.48-.34l-4.62-9.36a9.5,9.5,0,0,0-17,0l-4.63,9.36a.61.61,0,0,1-.47.34L224.9,49.5a9.49,9.49,0,0,0-5.26,16.18L227.11,73a.6.6,0,0,1,.18.55l-1.75,10.29a9.5,9.5,0,0,0,13.84,10L248.62,89a.66.66,0,0,1,.58,0l9.24,4.87a9.5,9.5,0,0,0,13.85-10l-1.76-10.29a.62.62,0,0,1,.17-.55Zm-13.67.93A9.5,9.5,0,0,0,261.66,75l1.76,10.29a.62.62,0,0,1-.48.73.59.59,0,0,1-.43-.08l-9.24-4.86a9.49,9.49,0,0,0-8.85,0L235.18,86a.6.6,0,0,1-.82-.25h0a.61.61,0,0,1-.07-.4L236.05,75a9.49,9.49,0,0,0-2.73-8.41l-7.48-7.28a.61.61,0,0,1-.05-.86.61.61,0,0,1,.39-.21l10.33-1.5a9.47,9.47,0,0,0,7.14-5.2l4.63-9.35a.61.61,0,0,1,.81-.3h0a.55.55,0,0,1,.29.29L254,51.56a9.49,9.49,0,0,0,7.14,5.2l10.33,1.5a.62.62,0,0,1,.54.68.64.64,0,0,1-.2.39Z" transform="translate(-6.35 -8.15)"/><path id="Path_5285" data-name="Path 5285" d="M234.88,97.86a11.94,11.94,0,0,1-2.15-.19,12.43,12.43,0,0,1-10.07-14.36l1.56-9.1-6.61-6.44a12.41,12.41,0,0,1,6.86-21.15h0l9.16-1.33L237.73,37A12.39,12.39,0,0,1,260,37l4.1,8.28,9.15,1.33a12.4,12.4,0,0,1,6.88,21.14l-6.51,6.44,1.56,9.12a12.4,12.4,0,0,1-18.09,13.06l-8.15-4.29-8.17,4.3A12.39,12.39,0,0,1,234.88,97.86Zm14-61.95a6.53,6.53,0,0,0-2.9.68,6.65,6.65,0,0,0-3,3L238.31,49a3.56,3.56,0,0,1-2.72,1.93l-10.27,1.5a6.58,6.58,0,0,0-3.65,11.23l7.47,7.27a3.53,3.53,0,0,1,1,3.16L228.39,84.3a6.6,6.6,0,0,0,9.61,7l9.26-4.88a3.58,3.58,0,0,1,3.28,0l9.25,4.87a6.59,6.59,0,0,0,9.63-6.94L267.66,74a3.47,3.47,0,0,1,1-3.14L276,63.61a6.59,6.59,0,0,0-3.65-11.23l-10.33-1.51a3.44,3.44,0,0,1-2.66-1.93l-4.63-9.35a6.61,6.61,0,0,0-5.93-3.68ZM225.08,75l0,0ZM272.79,75l0,0Zm.59-2v.1a.31.31,0,0,0,0-.1ZM224.43,73v0Zm40.16-26.66h0Zm-29.78-1.25-.08,0Zm28,0h.09l-.09,0Zm0,43.84a3.57,3.57,0,0,1-1.78-.48l-9.13-4.8a6.52,6.52,0,0,0-6.13,0l-9.24,4.86a3.51,3.51,0,0,1-4.75-1.47,3.44,3.44,0,0,1-.35-2.29l1.75-10.24a6.6,6.6,0,0,0-1.89-5.84l-7.48-7.28a3.49,3.49,0,0,1-.21-4.87,3.56,3.56,0,0,1,2.25-1.17l10.23-1.49A6.6,6.6,0,0,0,241,50.28l4.63-9.36a3.54,3.54,0,0,1,4.67-1.64A3.59,3.59,0,0,1,252,40.93l4.63,9.34a6.61,6.61,0,0,0,5,3.62l10.32,1.5a3.42,3.42,0,0,1,2.27,1.29,3.52,3.52,0,0,1-.44,4.84l-7.32,7.18a6.61,6.61,0,0,0-1.9,5.83l1.76,10.29a3.44,3.44,0,0,1-.52,2.55A3.5,3.5,0,0,1,262.82,89Zm-2.27-3.21a.77.77,0,0,0,0,.15Zm-23.38,0v0Zm-3.34-2.35h0Zm29.9-.07.13.07-.13-.08Zm-14.88-6.22a12.47,12.47,0,0,1,5.77,1.42l5.15,2.72-1-5.73a12.39,12.39,0,0,1,3.57-11l4.14-4.06-5.76-.84a12.39,12.39,0,0,1-9.33-6.79l-2.58-5.2-2.57,5.21a12.41,12.41,0,0,1-9.33,6.79l-5.75.83,4.17,4.06a12.4,12.4,0,0,1,3.57,11l-1,5.71,5.13-2.7a12.37,12.37,0,0,1,5.78-1.44Zm22.18-16h0Zm-44.31,0-.12,0h.12Zm43.07-3.87-.12.13Zm-42-.1.16.15-.16-.14Zm19-13.66h0Zm4.12,0,0,0Z" transform="translate(-6.35 -8.15)"/></g></g></svg>