<svg id="Layer_18" data-name="Layer 18" xmlns="http://www.w3.org/2000/svg" viewBox="0 0 263.76 307.42"><path d="M99.53,56v-8.5a18.32,18.32,0,0,1,18.56-18.66c5.94,0,11.89,0,17.83,0,.79,0,1.2-.17,1.45-1C140,19.07,145.85,13.15,154,9.54a48.11,48.11,0,0,1,40.6,0c7.29,3.22,12.82,8.4,15.87,15.94.09.24.21.47.29.71.94,2.65.94,2.65,3.81,2.65h15.13c10.89,0,18.87,8,18.88,18.86V56h1.63c9,0,18,0,26.93,0a29.13,29.13,0,0,1,28.43,21.79,30.85,30.85,0,0,1,1,7.84q.08,98.61,0,197.23A29.11,29.11,0,0,1,282.2,312a31,31,0,0,1-5.62.4q-101.94,0-203.89,0c-14.87,0-26.66-9.69-29.43-24.2a29.94,29.94,0,0,1-.44-5.6q0-98.43,0-196.85c0-14.49,9.4-26.21,23.41-29.17A33.59,33.59,0,0,1,72.71,56c8.38-.07,16.76,0,25.13,0Zm149,14.73c0,.59,0,1.09,0,1.6a41.6,41.6,0,0,1-.69,6.72,18.15,18.15,0,0,1-17.92,13.55q-55.92,0-111.82,0h-.77a18.24,18.24,0,0,1-17.57-15.7c-.28-2-.24-4.06-.35-6.16-.35,0-.68-.07-1-.07q-13.08,0-26.16,0a15,15,0,0,0-3,.31c-7.14,1.51-11.74,7.35-11.74,14.88V282.55c0,9,6.27,15.25,15.23,15.25h204c8.88,0,15.2-6.29,15.2-15.15q0-98.41,0-196.84a15.46,15.46,0,0,0-.14-2.55,14.58,14.58,0,0,0-14.68-12.61c-9.1-.05-18.21,0-27.31,0C249.39,70.64,249,70.68,248.54,70.71ZM174,77.94h55a13.27,13.27,0,0,0,1.41,0,3.6,3.6,0,0,0,3.44-3.64c-.06-3.22.4-6.46-.39-9.68a11.55,11.55,0,0,1,.2-3.54c0-.37.22-.74.22-1.12,0-4.27,0-8.54,0-12.82a3.63,3.63,0,0,0-3.47-3.6c-.43,0-.86,0-1.29,0-7.86,0-15.72,0-23.58,0-4.69,0-7.65-3-7.79-7.67a15.4,15.4,0,0,0-.43-3.16c-1.26-5.05-4.75-8.17-9.26-10.28a32.73,32.73,0,0,0-17.13-2.7,27.21,27.21,0,0,0-14,4.81,13.78,13.78,0,0,0-6.1,11c-.19,5.2-3,8-8.26,8H118.49c-2.91,0-4.31,1.44-4.31,4.35q0,12.69,0,25.38c0,3.41,1.32,4.73,4.73,4.73Z" transform="translate(-42.8 -5.03)"/><path d="M218.65,187.9h43.46c3.66,0,6.39,1.85,7.44,5a7.35,7.35,0,0,1-6.75,9.69c-.39,0-.77,0-1.16,0q-43,0-86,0a11.41,11.41,0,0,1-2.92-.3A7.3,7.3,0,0,1,174,188c.59,0,1.19,0,1.79,0Z" transform="translate(-42.8 -5.03)"/><path d="M218.53,261.15q-21.79,0-43.59,0a7.22,7.22,0,0,1-7.52-6.43,7.32,7.32,0,0,1,6.91-8.2h87.95a7.33,7.33,0,1,1,.09,14.64Q240.46,261.18,218.53,261.15Z" transform="translate(-42.8 -5.03)"/><path d="M218.64,143.92q-21.91,0-43.85,0a7.32,7.32,0,1,1,.07-14.63h87.56a7.32,7.32,0,1,1-.06,14.63Z" transform="translate(-42.8 -5.03)"/><path d="M103.52,140.88a9.76,9.76,0,0,1,.89-1.24q11.46-11.47,22.93-22.93a7.29,7.29,0,0,1,12.28,2.89,7.11,7.11,0,0,1-2,7.51c-3.95,4-7.92,7.92-11.87,11.88L109,155.76c-3.59,3.59-7.79,3.59-11.37,0-4.78-4.77-9.58-9.51-14.31-14.33a7.28,7.28,0,0,1,3.28-12.24,7.09,7.09,0,0,1,7.17,2c3,2.95,5.92,5.92,8.88,8.88C102.83,140.25,103,140.42,103.52,140.88Z" transform="translate(-42.8 -5.03)"/><path d="M103.5,263.18a8.84,8.84,0,0,1,.92-1.33q11.4-11.45,22.84-22.85a7.32,7.32,0,1,1,10.35,10.35q-12.18,12.21-24.38,24.39c-1.54,1.54-3.1,3.06-4.61,4.62a7.26,7.26,0,0,1-10.47.11c-5.07-4.89-10-9.9-15-15a7.31,7.31,0,0,1,10.43-10.25c1.63,1.57,3.21,3.2,4.81,4.8Z" transform="translate(-42.8 -5.03)"/><path d="M103.44,202a12.58,12.58,0,0,1,1-1.27q11.46-11.48,22.93-22.93a7.3,7.3,0,0,1,12.29,2.89,6.88,6.88,0,0,1-1.72,7.23q-14.73,14.82-29.55,29.55a7.18,7.18,0,0,1-10.26-.19c-5-4.87-10-9.86-14.87-14.86a7.3,7.3,0,0,1,10.36-10.3C96.82,195.31,100,198.55,103.44,202Z" transform="translate(-42.8 -5.03)"/></svg>