<svg id="Layer_47" data-name="Layer 47" xmlns="http://www.w3.org/2000/svg" viewBox="0 0 347.01 302.06"><defs><style>.cls-1{fill:#b01d22;}</style></defs><path class="cls-1" d="M170.9,302c-20.93,0-41.86.06-62.79,0C91.54,302,82,292.24,81.89,275.6s-.41-33.57,0-50.34c.38-14,2.6-27.87,9.4-40.38C105,159.6,126.6,145.5,154.93,141.62c16.75-2.3,33.61-2.11,49.94,2.08,30.89,7.94,56.28,37,58.85,68.81,1.79,22.13,1.42,44.48.93,66.71-.32,14.88-8.95,22.07-26,22.46-22.57.51-45.17.12-67.75.12Z" transform="translate(0.04 0.01)"/><path class="cls-1" d="M173.39,117.55a58.78,58.78,0,1,1,58.79-58.77v.32a58.61,58.61,0,0,1-58.77,58.45Z" transform="translate(0.04 0.01)"/><path class="cls-1" d="M54.36,117.5A37,37,0,1,1,91.44,80.29C91.61,100.5,74.79,117.4,54.36,117.5Z" transform="translate(0.04 0.01)"/><path class="cls-1" d="M292.05,117.5c-20.44-.42-37.18-17.68-36.57-37.7a37.19,37.19,0,1,1,36.67,37.7Z" transform="translate(0.04 0.01)"/><path class="cls-1" d="M39.18,141.84C15.91,145.06,0,163.68,0,188.31q-.08,34.91,0,69.82c0,14,7.7,22,21.73,22.33,11.3.23,22.6.16,33.9.13a39,39,0,0,0,5.28-.64c0-15-.06-29.42,0-43.87.17-31.35,5.39-61,30.31-85.09-1.68-.87-3.24-1.83-4.73-2.75C69.18,139.81,40.87,141.72,39.18,141.84Z" transform="translate(0.04 0.01)"/><path class="cls-1" d="M347,194.5v-7.91a61.68,61.68,0,0,0-.81-7.17A2.4,2.4,0,0,0,346,179c-3.38-17.69-13.53-30.08-30.6-35.27-15.13-4.6-30.86-4-46.12.35-4.57,1.3-8.63,4.39-13.45,6.94,15.81,16,25.4,34,27.76,55.09,1.64,14.63,1.6,29.46,2,44.21.28,9.76,0,19.54,0,29.57a19.09,19.09,0,0,0,3.75.71c12.45,0,24.9,0,37.35-.27,5.8-.11,11-2.16,14.69-6.8,0-.17.21-.47.71-1a35.2,35.2,0,0,0,2.16-3.59c2.37-6.06,2.59-16.08,2.6-18.68v-54A12.67,12.67,0,0,1,347,194.5Z" transform="translate(0.04 0.01)"/></svg>