<svg id="Layer_1" data-name="Layer 1" xmlns="http://www.w3.org/2000/svg" xmlns:xlink="http://www.w3.org/1999/xlink" viewBox="0 0 1093.9 198.75"><defs><style>.cls-1{fill:#d43237;}.cls-2{clip-path:url(#clip-path);}.cls-3{fill:#f04248;}</style><clipPath id="clip-path" transform="translate(-13.4 -80.12)"><rect class="cls-1" x="13.4" y="80.12" width="1093.9" height="198.75" rx="6.78"/></clipPath></defs><rect class="cls-1" width="1093.9" height="198.75" rx="6.78"/><g class="cls-2"><path class="cls-3" d="M1060.58,274.63c-3.7-.24-7.5-.71-11.15-1.29a19.67,19.67,0,0,0-2.93-.49h0c-3-.54-5.94-1.13-8.54-1.72a108.93,108.93,0,0,1-22.87-9.61c-23.85-14.25-47.59-28.69-71.54-42.76-18.51-10.87-37.93-19.86-58.71-25.7-21-5.91-42.27-8-63.82-4.17-23.48,4.2-45.49,13.17-67.66,21.59-25.28,9.6-50.39,19.75-76,28.3a153,153,0,0,1-70.19,6.77c-23.52-3.32-44.12-13.49-63.33-27.32-10.72-7.71-22.13-14.92-34.16-20.26-22-9.76-45.52-10-69-7.14-23.09,2.79-45.36,9.4-67.52,16.29-35.49,11-70.75,22.93-106.53,32.94q-7.86,2.19-15.78,4.06a559.07,559.07,0,0,1-62.16,8.4,243.48,243.48,0,0,1-28.14-.92c-14.3-1.31-28.69-2.52-42.8-5.08-33.08-6-63.64-18.36-90.95-38.34-3.1-2.27-6.81-3.7-10.23-5.53,0,.66,0,1.32,0,2l-.59-.4-2.31-1.63v74.93H25v-.06c1.1-.05,2.21-.11,3.32-.14l1078.71.66V267.5S1077,275.7,1060.58,274.63Z" transform="translate(-13.4 -80.12)"/></g><path class="cls-1" d="M143.08-389.76" transform="translate(-13.4 -80.12)"/></svg>