<svg id="Layer_33" data-name="Layer 33" xmlns="http://www.w3.org/2000/svg" viewBox="0 0 307.4 307.47"><defs><style>.cls-1{fill:#af1d22;}.cls-2{fill:#b42c31;}.cls-3{fill:#b01e23;}.cls-4{fill:#b01f24;}.cls-5{fill:#b01f23;}.cls-6{fill:#b12125;}</style></defs><path class="cls-1" d="M64.7,305.39c.68-3.05,1.32-6.11,2-9.16,5.63-24.4,19.65-43,40-57,19.08-13.17,40.36-19.86,63.52-20.61a10.54,10.54,0,0,1,1.13.08c1.52,31.87,28.42,47.56,47.75,47.14,20.93-.44,45.23-17.88,46.28-47.15a109.57,109.57,0,0,1,29.55,3.95c28.35,7.9,50.95,23.57,65.79,49.43a86,86,0,0,1,11.37,43H206.39a24.94,24.94,0,0,0-3.7-.58q-66.72,0-133.43,0H65.83l-1.13-3.6Zm101.94-45.85H131.39v17.57h35.25Z" transform="translate(-64.7 -7.53)"/><path class="cls-2" d="M64.7,310.8l1.13,3.6h3.43q66.71,0,133.43,0a24.94,24.94,0,0,1,3.7.58H64.7Z" transform="translate(-64.7 -7.53)"/><path class="cls-3" d="M171.68,67.46c31.5,21.17,62.14,21.16,93.61.16.77,4,2.2,8,2.23,12,.22,23.51.37,47,0,70.54-.24,16.92-14.54,31.92-32.62,33.52a179.33,179.33,0,0,1-34.44-.3c-17.76-1.89-31-17.54-31.09-35.55q-.22-32.88.08-65.74C169.54,77.27,170.9,72.43,171.68,67.46Z" transform="translate(-64.7 -7.53)"/><path class="cls-4" d="M148.34,73.58l3.12.19v61.1c-6.63,0-12.92.28-19.16-.1-4.14-.24-7.38-4.37-7.41-8.9q-.15-21.47,0-42.93a13.6,13.6,0,0,1,1.42-4.82c1.13-2.71,2.69-5.26,3.67-8,12.38-35,37.23-55.41,73.57-61.22,28.73-4.59,54.8,2.47,77.13,21.53,13.46,11.48,22.21,26.06,27.11,43,.22.77.24,1.78.75,2.25,3.72,3.4,3.43,7.82,3.42,12.25-.07,22.41.08,44.83-.2,67.24a78.77,78.77,0,0,1-2.3,18.95c-3,11.2-12.51,17.66-23.63,17V173.53c5.05-1,6.33-1.87,7-7a140.72,140.72,0,0,0,.94-15.24c.15-5.28,0-10.56,0-16.21h-8.54V73.9l3.12-.35C281,51.39,255.27,26,219,25.64,183.38,25.33,156.47,50,148.34,73.58Z" transform="translate(-64.7 -7.53)"/><path class="cls-5" d="M247.4,200c-.33,8.13.21,16.45-1.19,24.43-2.45,14-15.65,24-29,23.27a29.2,29.2,0,0,1-27.13-26.23c-.68-7.12-.12-14.35-.12-21.37A177.38,177.38,0,0,0,247.4,200Z" transform="translate(-64.7 -7.53)"/><path class="cls-6" d="M183.83,53.08c5.35-4,11.06-6.79,17.46-7,11.47-.34,23-.28,34.45,0,6.19.13,13.17,3.35,17.36,7.09C236.37,68.58,202.84,69.76,183.83,53.08Z" transform="translate(-64.7 -7.53)"/></svg>