<svg id="Layer_22" data-name="Layer 22" xmlns="http://www.w3.org/2000/svg" viewBox="0 0 312.06 308.14"><g id="Group_880" data-name="Group 880"><g id="Group_878" data-name="Group 878"><path id="Path_5230" data-name="Path 5230" d="M159.85,311.93c-86,0-156-70-156-156A155,155,0,0,1,49.52,45.57a19.82,19.82,0,0,1,28,28,116.39,116.39,0,1,0,164.6,0A19.82,19.82,0,0,1,270,45.39l.17.18a155,155,0,0,1,45.7,110.33C315.88,241.94,245.89,311.93,159.85,311.93Z" transform="translate(-3.82 -3.79)"/></g><g id="Group_879" data-name="Group 879"><path id="Path_5231" data-name="Path 5231" d="M159.39,131.36a19.82,19.82,0,0,1-19.82-19.82h0V23.75a19.82,19.82,0,1,1,39.64-.28v88.07A19.82,19.82,0,0,1,159.39,131.36Z" transform="translate(-3.82 -3.79)"/></g></g></svg>