<svg id="Layer_24" data-name="Layer 24" xmlns="http://www.w3.org/2000/svg" viewBox="0 0 321.06 308.01"><path id="star" d="M324.69,122.22a27.12,27.12,0,0,0-21.52-18.46L225.65,91.17,189.71,21.33a27.22,27.22,0,0,0-48.41,0L105.36,91.17,27.83,103.76a27.23,27.23,0,0,0-14.95,46l55.31,55.76-12,77.62a27.21,27.21,0,0,0,39.16,28.46l70.13-35.39,70.12,35.38a27.22,27.22,0,0,0,39.17-28.45l-12-77.62,55.32-55.77a27.09,27.09,0,0,0,6.55-27.57Zm-21.75,12.51L240,198.15l13.62,88.3a5.79,5.79,0,0,1-8.37,6.08l-79.76-40.24L85.74,292.53a5.8,5.8,0,0,1-8.37-6.07L91,198.15,28.08,134.73a5.83,5.83,0,0,1,.05-8.24,5.91,5.91,0,0,1,3.15-1.6l88.18-14.34,40.87-79.44a5.82,5.82,0,0,1,7.83-2.51,5.74,5.74,0,0,1,2.51,2.51l40.88,79.44,88.18,14.34a5.83,5.83,0,0,1,3.2,9.84Z" transform="translate(-4.99 -6.56)"/></svg>