<svg id="Officer_Report" data-name="Officer Report" xmlns="http://www.w3.org/2000/svg" viewBox="0 0 321.68 303.77"><defs><style>.cls-1{fill:#fff;}</style></defs><path class="cls-1" d="M49,145.17c9.8.06,19.59.18,29.38.18q63.78,0,127.54,0h6.33v17.42H178.86v159H63.34V163.11H49Z" transform="translate(-49.03 -19.73)"/><path class="cls-1" d="M269.16,190.37c1.86-16.9,3.68-33.48,5.57-50.6-5.48.86-10.3,1.81-15.17,2.36-18.49,2.11-36.77.26-54.95-3.17-9.3-1.75-14.73-9.83-13-19.13,1.56-8.21,9.91-13.23,19-11.7,19.21,3.22,38.56,6,57.68.27,7.5-2.25,14.57-6.22,21.47-10,15-8.31,29.38-7.59,41.61,2.72,8.09,6.82,11.42,15.27,10.1,26-2.78,22.72-4.89,45.51-7.49,68.25-1.05,9.2-1.38,19.44-11.07,24.14a54.77,54.77,0,0,1-19.93,5c-11.9.79-23.88.14-35.83.34a77.71,77.71,0,0,0-11.32,1.44c-7.82,1.28-13.11,5.12-15.56,13.25-7,23.13-14.46,46.11-21.64,69.18-3.19,10.26-11.71,15.35-21.86,12.75a17,17,0,0,1-11.73-21.22c7.75-26.88,16.18-53.56,24.24-80.35,4.76-15.8,16.51-23,31.67-25.78,7.64-1.41,15.42-2.09,23.13-3.1C265.71,190.75,267.34,190.58,269.16,190.37Z" transform="translate(-49.03 -19.73)"/><path class="cls-1" d="M283.84,323.2h-14c-.26-9.1,3.53-15.8,10.26-21.12s15-4.15,23.2-4.51V253.66c-9.43,0-18.68-.19-27.92.09-4,.12-5.3-1.19-5-5.09a76.78,76.78,0,0,0,0-11.45c-.25-3.54,1.11-4.62,4.54-4.55,9.8.19,19.6.36,29.39.05,5.6-.18,11.38-.59,16.7-2.15,13.19-3.87,20.32-13.72,22-26.8,2-15.27,2.81-30.7,4.08-46.07.7-8.59,1.2-17.21,2.05-25.79.14-1.33,1.66-3.56,2.63-3.62,6.09-.33,12.21-.17,18.86-.17-.32,6.42-.45,12.32-.95,18.18-1.53,18-2.53,36.11-5.06,54a129.45,129.45,0,0,1-8.61,30.89c-4.78,11.61-14.33,18.38-27.16,19.85-1.14.13-2.25.49-3.65.8v45.94c3.47,0,6.89-.07,10.3,0,13.11.32,23.53,11.58,23,25.67-4,0-8.09.15-12.14-.11-.85-.06-2-1.43-2.36-2.43-2.65-6.38-4.6-7.83-11.64-7.87-11.62-.05-23.25,0-34.87,0C288.56,313,286.61,314.47,283.84,323.2Z" transform="translate(-49.03 -19.73)"/><path class="cls-1" d="M273,54.33c.49-20.09,16.47-35.18,36.63-34.59,19.05.57,34.65,17.07,33.94,35.92-.76,20.26-16.5,35.06-36.77,34.55C287.73,89.74,272.54,73.61,273,54.33Z" transform="translate(-49.03 -19.73)"/><path class="cls-1" d="M89.4,54.77l12-3.34c2.06,7.29,4.12,14.37,6.06,21.47,4.53,16.6,9.12,33.19,13.44,49.84.84,3.27,2.35,4.05,5.48,4,17.09-.14,34.18.15,51.27-.19,5.24-.1,5.47,2.38,5.44,6.33s.12,6.81-5.53,6.71c-20.24-.34-40.48-.23-60.72-.05-3.73,0-5-1.29-5.94-4.76-6.83-25.57-13.9-51.08-20.88-76.61C89.81,57.25,89.69,56.27,89.4,54.77Z" transform="translate(-49.03 -19.73)"/></svg>