<svg id="Redempyion_Report" data-name="Redempyion Report" xmlns="http://www.w3.org/2000/svg" viewBox="0 0 304.93 304.89"><defs><style>.cls-1{fill:#fff;}</style></defs><path class="cls-1" d="M74.29,171.46H188V323.59h-5q-42.84,0-85.69,0c-15.66,0-23-7.24-23-22.74q0-62.28,0-124.55Z" transform="translate(-55.22 -18.71)"/><path class="cls-1" d="M227,171.59H341v5.31q0,62.29,0,124.59c0,14.41-7.42,22-21.63,22.07-29.41.07-58.81,0-88.21,0H227Z" transform="translate(-55.22 -18.71)"/><path class="cls-1" d="M188.43,117.77a7.07,7.07,0,0,0-.14-1.29,2.72,2.72,0,0,0-2-2.18c-.75-.07-1.44-.13-2.13-.13-39,0-77.95,0-116.93-.08a13.42,13.42,0,0,0-9.13,3A9.76,9.76,0,0,0,55.22,123v3.14a3.09,3.09,0,0,1,0,.86v13.13c0,4.41,1.32,6.9,2.28,8.13.32.35.65.69,1,1h0A9.76,9.76,0,0,0,65.44,152q59.46-.1,118.92,0c3.4,0,4.2-1.26,4.15-4.38C188.36,137.67,188.47,127.72,188.43,117.77Z" transform="translate(-55.22 -18.71)"/><path class="cls-1" d="M360.1,128.27c0-11.58-2.49-14.11-14-14.11H227.05V151.9h2.5q60.3,0,120.58,0c5.88,0,9.55-3.71,9.88-9.69C360.26,137.57,360.1,132.91,360.1,128.27Z" transform="translate(-55.22 -18.71)"/><path d="M234.62,20.54" transform="translate(-55.22 -18.71)"/><path class="cls-1" d="M273.35,30.76a36.06,36.06,0,0,0-11.87-8.41,42.8,42.8,0,0,0-20.26-3,2.74,2.74,0,0,1-.82.24,38.91,38.91,0,0,0-4.76.7,37.17,37.17,0,0,0-9.7,3.7c-6.59,4-11,10.5-13.28,19.23a161.94,161.94,0,0,0-4.42,26.36c-.73,8.16-.15,16.44-.15,24.87,13.83,0,27.25.46,40.63-.11,15.66-.67,26.64-9.36,32.21-23.48C286.64,56.43,284.18,42.63,273.35,30.76ZM245.7,75.85a19.22,19.22,0,0,1-19.1-19.44,19.13,19.13,0,1,1,19.1,19.44Z" transform="translate(-55.22 -18.71)"/><path class="cls-1" d="M204.78,91.94c-8.1-9-13.12-19.54-15.87-31.13-1.14-4.8-1.9-9.7-2.65-14.6,0-.18-.06-.37-.09-.59h0c-.16-1.07-.32-2.14-.49-3.2a32.53,32.53,0,0,0-1.23-4.5c-4.11-10.63-10.38-15-14.71-16.82l-.93-.28c-1.58-.44-3.17-.82-4.77-1.18a55.75,55.75,0,0,0-6.61-.93h-8.51a48.16,48.16,0,0,0-7.37,1.17,38.52,38.52,0,0,0-6.4,2.16h0c-14.68,6.46-23.68,21.55-22.26,38.6,1.53,18.28,16.39,33.11,35,33.74s37.48.24,56.22.28a13,13,0,0,0,2.23-.47A22.52,22.52,0,0,0,204.78,91.94ZM150.52,75.85a19.11,19.11,0,0,1-.39-38.22,19.44,19.44,0,0,1,19.65,18.93C169.89,66.94,161,75.8,150.52,75.85Z" transform="translate(-55.22 -18.71)"/></svg>