<svg id="Layer_49" data-name="Layer 49" xmlns="http://www.w3.org/2000/svg" viewBox="0 0 293.37 296.72"><defs><style>.cls-1{fill:#fff;}</style></defs><path class="cls-1" d="M235.72,265.39c-3.08-2.92-5.18-6.05-8.1-7.46a76.87,76.87,0,0,0-17.93-6.54c-6.28-1.26-9.92,4.53-7.53,10.67,1.93,4.94,3.76,9.91,5.58,14.88a6.34,6.34,0,0,1-.09,2c-2,0-3.92,0-5.87,0q-67.26-.5-134.53-1c-8.25-.06-11.87-3.61-11.88-11.76q0-87.21,0-174.41c0-1.45.19-2.89.32-4.59H348.37c.12,1.83.33,3.57.33,5.31q0,86.46,0,172.92c0,8.93-3.08,12.07-12.12,12.61-4.42.27-8.84.6-13.79.93V268c0-13.79-7.53-19.25-20.83-14.92-4.65-7.17-11-9.65-19.52-5.8-3.89-7.43-10.35-8.58-18.24-6.58V222.74c0-11,.13-21.93-.07-32.89-.16-8.33-6.3-14.43-14.06-14.46s-14.28,6.41-14.32,14.83c-.09,23.26,0,46.51,0,69.77Zm9.62-138q35.36,0,70.7,0c2.7,0,6.51.79,6.49-3.33s-3.82-3.21-6.52-3.41a4.17,4.17,0,0,0-.5,0H175.6c-1.16,0-2.54-.32-3.43.18a21.49,21.49,0,0,0-3.64,3.27c1.2,1.09,2.26,2.5,3.67,3.18,1.08.52,2.6.13,3.93.13Zm0,24.85H197.52c-7.64,0-15.28-.05-22.92,0-2.51,0-6-.84-5.94,3.24s3.7,2.8,6.15,3.07a4.17,4.17,0,0,0,.5,0H315.83c1.33,0,2.82.29,3.94-.21s2.88-2.08,2.71-2.76a5.8,5.8,0,0,0-2.93-3.21c-1.07-.53-2.6-.15-3.93-.15ZM93,157.57V124.63c5.29,0,10.26.24,15.17-.14,1.45-.12,2.77-2,4.14-3.08-1.33-1.1-2.61-3-4-3.15-5.45-.37-10.94-.14-16.42-.15-3.9,0-5.81,1.94-5.81,5.81,0,11.46,0,22.91,0,34.37,0,3.85,1.91,6,5.68,6.06,11.62.1,23.25.24,34.85-.17,2-.07,5.11-2.58,5.47-4.4.83-4.15.49-8.6.12-12.88-.09-1.08-2.11-2.78-3.22-2.76s-2.78,1.72-3.05,2.94c-.53,2.39,0,5-.44,7.41-.23,1.17-1.79,2.93-2.78,2.95C112.9,157.66,103.12,157.57,93,157.57ZM92.8,205c5.11,0,9.76.31,14.33-.15,1.81-.18,3.45-2.06,5.17-3.17-1.66-1.16-3.24-3.14-5-3.31a121.64,121.64,0,0,0-14.42-.14c-5.24.1-6.8,1.67-6.83,6.91q-.09,16.17,0,32.35c0,5.57,1.19,6.84,6.69,6.92,8.3.11,16.59,0,24.89,0,15.37,0,15.48,0,14.61-15.41-.09-1.71-2.18-3.32-3.34-5-1.1,1.73-2.76,3.34-3.15,5.22-.54,2.64-.13,5.47-.13,8.25H92.8Zm103,2.56c7.29,0,14.58.2,21.85-.15,1.8-.09,4.86-1.81,5-3.06.41-3.4-2.62-3.45-5.21-3.44-14.57,0-29.14-.1-43.7.14-1.76,0-4.8,1.8-5,3.07-.48,3.51,2.64,3.43,5.18,3.43Zm-83.19-69.37c-2.19-1.69-4-3.49-6.17-4.6-1.15-.58-2.91.05-4.4.13.13,1.62-.31,3.66.51,4.78,1.33,1.81,3.45,3.05,5.29,4.47,4.46,3.46,6.57,3.38,10.11-.78,5.7-6.69,11.4-13.41,16.75-20.38,1-1.37.47-4,.65-6-1.93.68-4.47.81-5.67,2.15C123.87,124.45,118.38,131.29,112.64,138.17Zm0,80.23c-2-1.57-3.53-3.25-5.42-4.08-1.49-.66-3.44-.28-5.18-.37.4,1.84.38,4,1.34,5.45s2.94,2.62,4.51,3.83c4.13,3.19,6.9,3,10.22-1,5.44-6.46,10.8-13,16.21-19.47,1.72-2.08,3.9-4.37,1-6.75s-4.45.58-6,2.39C123.77,205,118.31,211.58,112.63,218.4Zm191.08-10.88c5,0,9.94.24,14.86-.16,1.45-.11,2.74-2.05,4.11-3.16-1.37-1.1-2.72-3.11-4.12-3.15q-14.37-.42-28.75,0c-1.46,0-2.87,1.9-4.31,2.93,1.45,1.18,2.8,3.24,4.34,3.39C294.43,207.82,299.08,207.52,303.71,207.52ZM178.47,238.86v0c2,0,4.07.37,5.92-.12,1.31-.35,3.12-1.78,3.23-2.87s-1.55-3.31-2.57-3.39a86,86,0,0,0-13.81,0c-1,.09-2.36,2.21-2.46,3.49-.07.86,1.64,2.49,2.77,2.7C173.78,239.17,176.16,238.86,178.47,238.86Z" transform="translate(-55.34 -30.91)"/><path class="cls-1" d="M348.62,80H55.36v-9.3c0-9.47,0-18.94,0-28.4,0-7,4-11,11-11.4.83,0,1.66,0,2.49,0q133.28,0,266.55.08c2.88,0,6.24.46,8.48,2s4.41,4.64,4.49,7.13C348.85,53.23,348.62,66.34,348.62,80ZM274.25,51.2H216.47c-1.32,0-2.82-.31-3.93.19s-2.76,2-2.65,2.81a5.48,5.48,0,0,0,2.66,3.39c1,.57,2.59.21,3.92.21H332c1.49,0,3.19.3,4.41-.31a4.63,4.63,0,0,0,2.21-3.26c.07-.89-1.19-2.36-2.18-2.75-1.32-.51-2.94-.28-4.43-.28Zm-118-10a14,14,0,1,0,14,13.83A14,14,0,0,0,156.24,41.22Zm-52.11,13.7a13.66,13.66,0,0,0,13.51,14.21,14.15,14.15,0,0,0,14.54-13.9,14.35,14.35,0,0,0-14-14A13.75,13.75,0,0,0,104.13,54.92Zm-10.57.52c.06-8-5.63-14-13.45-14.21a14,14,0,1,0-.49,27.92A13.57,13.57,0,0,0,93.56,55.44Z" transform="translate(-55.34 -30.91)"/><path class="cls-1" d="M208.83,257c4.52,1.69,9.56,2.45,13.14,5.14,8,6,15,13.22,13.75,24.67a4.68,4.68,0,0,0,0,1c.45,3-1.52,7.86,3.54,7.72s3.23-5,3.24-8c.12-30.72.07-61.44.08-92.16,0-1.49,0-3,0-4.48.18-5.61,2.79-8.7,7.35-8.74,4.77,0,7.69,3.23,7.7,9q.09,38.37.09,76.72c0,1.16-.35,2.48.08,3.45.82,1.86,1.9,4.83,3.19,5,3.46.47,3.5-2.67,3.52-5.21.05-5.64,0-11.29.05-16.93.06-5.21,2.29-8.13,6-8.09s6,3.1,6,8.13q0,8.72-.06,17.44c0,2.54.4,5.21,3.47,4.69,1.31-.22,3-2.88,3.14-4.58.47-4.27.14-8.62.21-12.93.07-3.84,1.83-6.43,5.86-6.68,4.28-.27,6.6,2.28,6.83,6.26.32,5.63.16,11.29.18,16.93,0,2.43.2,5.32,3.3,4.85,1.31-.2,2.82-3.1,3.11-4.95.51-3.24.12-6.62.16-9.94.05-4.23,1.93-7,6.36-7.38,3.92-.31,6.75,2.32,6.79,6.84.12,14.61.34,29.23-.14,43.83-.36,10.75-8.9,18.6-20.11,18.79-17.43.29-34.87.25-52.3,0-10.05-.14-17.11-6.26-19.71-15.89C218.94,293.83,214.06,276.15,208.83,257Z" transform="translate(-55.34 -30.91)"/><path class="cls-1" d="M156.12,47.86a7.35,7.35,0,0,1,7.41,7.08,7.25,7.25,0,1,1-7.41-7.08Z" transform="translate(-55.34 -30.91)"/><path class="cls-1" d="M125.28,55a7.22,7.22,0,0,1-7,7.48,7.66,7.66,0,0,1-7.78-7.39,7.64,7.64,0,0,1,7.43-7.27A7.31,7.31,0,0,1,125.28,55Z" transform="translate(-55.34 -30.91)"/><path class="cls-1" d="M87.24,55.08A7.67,7.67,0,0,1,80,62.52a7.33,7.33,0,1,1-.25-14.66A7.63,7.63,0,0,1,87.24,55.08Z" transform="translate(-55.34 -30.91)"/></svg>