<svg id="Layer_5" data-name="Layer 5" xmlns="http://www.w3.org/2000/svg" viewBox="0 0 218.66 306.49"><defs><style>.cls-1{fill:#b01f24;}.cls-2{fill:#b01e23;}</style></defs><path class="cls-1" d="M162.58,96.72a21.91,21.91,0,0,1,.28,43.82,21.91,21.91,0,1,1-.28-43.82Z" transform="translate(-53 -9.52)"/><path class="cls-2" d="M265,154.6a186.25,186.25,0,0,0,5.4-22.24,114.7,114.7,0,0,0-1.48-42.63,107.32,107.32,0,0,0-71.46-75.37,128,128,0,0,0-67.32-.64A106.66,106.66,0,0,0,54.57,96.06c-3.88,20.44-.1,40.29,6.07,59.77,11.18,35.36,29,67.49,48.73,98.59,11,17.35,22.8,34.2,34.6,51,6.45,9.2,15.39,12.63,24.53,9.36,4.16-1.49,8.67-4.16,11.22-7.63,29.63-40.23,56.71-82,76.3-128.26,3-7.19,5.8-14.46,8.16-21.85C264.4,156.29,264.65,155.48,265,154.6ZM162.7,162.49c-24.46.09-43.81-19.54-43.84-44.46,0-23.56,19.69-43.14,43.53-43.24,24.28-.1,44.15,20,44,44.46C206.27,142.72,186.37,162.41,162.7,162.49Z" transform="translate(-53 -9.52)"/></svg>