<svg id="Layer_36" data-name="Layer 36" xmlns="http://www.w3.org/2000/svg" viewBox="0 0 357.45 305.56"><defs><style>.cls-1{fill:#af1d22;}.cls-2{fill:#b01e23;}.cls-3{fill:#b01f24;}</style></defs><path class="cls-1" d="M38.63,54.31Q59,45.37,79.37,36.42q25-11,49.92-22.16l3-1.35v4q0,106.91.06,213.81c0,2.82-.77,4.24-3.43,5.42C99.88,249,70.88,261.92,41.84,274.8a19.1,19.1,0,0,1-3.21.81Z" transform="translate(-38.63 -12.91)"/><path class="cls-2" d="M238,287l-20.27-11.26q-35.31-19.62-70.63-39.22c-1.77-1-3-1.8-3-4.35q.15-108.15.08-216.31v-2c1.49.78,2.66,1.37,3.81,2Q191.49,40,235,64.17c2,1.09,3,2.2,3,4.77q-.13,107.81-.07,215.62Z" transform="translate(-38.63 -12.91)"/><path class="cls-2" d="M343.4,192.68c-35.85,4.45-58.37,40.65-47.93,75L249.71,288v-4.35q0-106.78-.07-213.57c0-2.87.86-4.21,3.5-5.37C282.13,51.93,311.06,39,340,26.16c1-.45,2.07-.84,3.39-1.37Z" transform="translate(-38.63 -12.91)"/><path class="cls-3" d="M349.4,318.47c-12.48-13.58-25-26.84-37.07-40.5-4.9-5.53-7.34-12.54-8.68-19.88-4.36-23.95,11.64-48.67,35.21-54.24,23.83-5.63,47.87,8.49,55,32.41,4.82,16.26,2,31.3-9.06,44.06C373.53,293.32,361.43,305.57,349.4,318.47Zm.15-103a30.52,30.52,0,0,0-30.36,30.77c-.06,17.2,13.68,31.31,30.39,31.22s30.27-14.12,30.27-31.07S366.24,215.5,349.55,215.49Z" transform="translate(-38.63 -12.91)"/><path class="cls-3" d="M369.6,246.31c0,11.68-8.83,20.94-20.1,21s-20.34-9.43-20.27-20.92,9-20.73,20-20.87S369.57,234.74,369.6,246.31Z" transform="translate(-38.63 -12.91)"/></svg>